<svg xmlns="http://www.w3.org/2000/svg" viewBox="0 0 481.21 151.3"><defs><style>.cls-1{fill:#dd681c;}.cls-2{fill:#434040;}.cls-3{fill:#dd671a;}</style></defs><g id="Capa_2" data-name="Capa 2"><g id="Capa_1-2" data-name="Capa 1"><path class="cls-1" d="M172.28,74.53V67.12H188.5V60.3H172.28V53h18V45.82H164.18V81.59h26.69V74.53Z"/><path class="cls-1" d="M220.12,56.67a9.86,9.86,0,0,0-7.38-3.07,10.9,10.9,0,0,0-7.93,3.53V54.06H197V81.59h7.77V66.23a6.38,6.38,0,0,1,1.74-4.87,5.63,5.63,0,0,1,4.06-1.67c3.15,0,4.72,2.11,4.72,6.35V81.59h7.77V64.85A11.26,11.26,0,0,0,220.12,56.67Z"/><path class="cls-1" d="M250.51,71.36c-2.06,2.55-4.4,3.82-7,3.82a7.54,7.54,0,0,1-5.17-1.94,6.9,6.9,0,0,1-2.2-5.45,7,7,0,0,1,2.2-5.47,7.65,7.65,0,0,1,5.26-2,9.59,9.59,0,0,1,3.87.86,9.13,9.13,0,0,1,3.29,2.46l4-5.22a15.49,15.49,0,0,0-5.42-3.63,16.11,16.11,0,0,0-6.09-1.23,14.93,14.93,0,0,0-10.38,4,13.21,13.21,0,0,0-4.39,10.27,13.16,13.16,0,0,0,4.33,10.24A15.22,15.22,0,0,0,243.46,82q6.28,0,11.66-5.53Z"/><path class="cls-1" d="M280.77,56.11a13.12,13.12,0,0,0-8.29-2.51A21,21,0,0,0,260,57.53l3.46,5a14.36,14.36,0,0,1,3.81-2,13.2,13.2,0,0,1,4.27-.79c3.15,0,4.72,1.46,4.72,4.4v.15h-5.8c-3.6,0-6.42.69-8.49,2.1a7.08,7.08,0,0,0-3.11,6.31,8.42,8.42,0,0,0,3,6.76A11.19,11.19,0,0,0,269.25,82a9.12,9.12,0,0,0,7.42-3.74v3.34H284V64C284,60.41,282.92,57.79,280.77,56.11Zm-4.6,15a4.11,4.11,0,0,1-1.59,3.36,5.83,5.83,0,0,1-3.65,1.25,5.52,5.52,0,0,1-3.19-.79,2.68,2.68,0,0,1-1.12-2.28q0-2.86,4.68-2.87h4.87Z"/><path class="cls-1" d="M307.2,53.6a10.3,10.3,0,0,0-4.58,1.23,12.79,12.79,0,0,0-3.75,2.86V54.06h-7.78V81.59h7.78V69.67a11,11,0,0,1,1.7-6.43,5.9,5.9,0,0,1,5.18-2.42h1.51Z"/><path class="cls-1" d="M335.46,56.67a9.82,9.82,0,0,0-7.38-3.07,11,11,0,0,0-7.93,3.53V54.06h-7.77V81.59h7.77V66.23a6.38,6.38,0,0,1,1.74-4.87A5.65,5.65,0,0,1,326,59.69c3.15,0,4.72,2.11,4.72,6.35V81.59h7.77V64.85A11.26,11.26,0,0,0,335.46,56.67Z"/><path class="cls-1" d="M366,56.11a13.12,13.12,0,0,0-8.29-2.51,21.12,21.12,0,0,0-12.55,3.93l3.48,5a13.77,13.77,0,0,1,3.81-2,13.05,13.05,0,0,1,4.27-.79c3.15,0,4.72,1.46,4.72,4.4v.15h-5.8c-3.6,0-6.44.69-8.51,2.1A7.12,7.12,0,0,0,344,72.7a8.38,8.38,0,0,0,3,6.76A11.14,11.14,0,0,0,354.43,82a9.18,9.18,0,0,0,7.44-3.74v3.34h7.31V64C369.18,60.41,368.12,57.79,366,56.11Zm-4.62,15a4.06,4.06,0,0,1-1.59,3.36,5.75,5.75,0,0,1-3.65,1.25,5.45,5.45,0,0,1-3.17-.79,2.63,2.63,0,0,1-1.12-2.28c0-1.91,1.54-2.87,4.66-2.87h4.87Z"/><path class="cls-1" d="M396.63,71.36c-2.07,2.55-4.39,3.82-7,3.82a7.53,7.53,0,0,1-5.16-1.94,6.87,6.87,0,0,1-2.2-5.45,7,7,0,0,1,2.2-5.47,7.65,7.65,0,0,1,5.26-2,9.54,9.54,0,0,1,3.86.86,9.22,9.22,0,0,1,3.29,2.46l4-5.22a15.54,15.54,0,0,0-5.41-3.63,16.27,16.27,0,0,0-6.09-1.23,15,15,0,0,0-10.4,4,13.19,13.19,0,0,0-4.37,10.27A13.16,13.16,0,0,0,379,78.08,15.21,15.21,0,0,0,389.59,82q6.27,0,11.66-5.53Z"/><path class="cls-1" d="M413.57,44.15a4.51,4.51,0,0,0-3.25-1.28,4.41,4.41,0,0,0-3.23,1.28,4.54,4.54,0,0,0,0,6.42,4.41,4.41,0,0,0,3.23,1.28,4.51,4.51,0,0,0,3.25-1.28,4.59,4.59,0,0,0,0-6.42Zm-7.14,9.91V81.59h7.77V54.06Z"/><path class="cls-1" d="M445.25,57.73a15.53,15.53,0,0,0-21.09,0,14.23,14.23,0,0,0,0,20.17,15.64,15.64,0,0,0,21.09,0,14.21,14.21,0,0,0,0-20.17Zm-5.57,15.59a6.88,6.88,0,0,1-9.95,0,7.8,7.8,0,0,1-2-5.49,7.93,7.93,0,0,1,2-5.53,6.83,6.83,0,0,1,9.95,0,7.93,7.93,0,0,1,1.94,5.53A7.79,7.79,0,0,1,439.68,73.32Zm-2.88-32-6.59,9.07h7.43l7.19-5.74Z"/><path class="cls-1" d="M478.23,56.67a9.86,9.86,0,0,0-7.38-3.07,10.9,10.9,0,0,0-7.93,3.53V54.06h-7.77V81.59h7.77V66.23a6.45,6.45,0,0,1,1.72-4.87,5.68,5.68,0,0,1,4.08-1.67c3.13,0,4.72,2.11,4.72,6.35V81.59h7.77V64.85A11.3,11.3,0,0,0,478.23,56.67Z"/><path class="cls-2" d="M200.39,95.07a10.1,10.1,0,0,0-13.73,0,9.44,9.44,0,0,0,0,13.4,10.1,10.1,0,0,0,13.73,0,9.46,9.46,0,0,0,0-13.4Zm-3,10.84a5.25,5.25,0,0,1-7.75,0,5.85,5.85,0,0,1-1.57-4.14,5.93,5.93,0,0,1,1.57-4.15,5.25,5.25,0,0,1,7.75,0,5.89,5.89,0,0,1,1.58,4.15A5.82,5.82,0,0,1,197.41,105.91Z"/><path class="cls-2" d="M220.28,103.05a5,5,0,0,0-2.73-1.53l.66-.29a3.49,3.49,0,0,0,.66-.46,3.69,3.69,0,0,0,1.39-3.17A4.67,4.67,0,0,0,219,94.43a4.74,4.74,0,0,0-2-1.21,10.87,10.87,0,0,0-3.21-.44h-7.15V111h8c2.52,0,4.29-.55,5.3-1.69a4.78,4.78,0,0,0,1.31-3.36A4.21,4.21,0,0,0,220.28,103.05Zm-9.55-6.83h2a5.89,5.89,0,0,1,2.57.4,1.62,1.62,0,0,1,.76,1.6,1.55,1.55,0,0,1-.82,1.57,7,7,0,0,1-2.53.36h-2Zm5.45,10.88a6.21,6.21,0,0,1-2.65.43h-2.8v-4.19h2.41a7.94,7.94,0,0,1,3,.41,1.62,1.62,0,0,1,.93,1.67A1.68,1.68,0,0,1,216.18,107.1Z"/><rect class="cls-2" x="224.73" y="92.79" width="4.1" height="18.18"/><polygon class="cls-2" points="237.44 103.61 245.66 103.61 245.66 100.15 237.44 100.15 237.44 96.4 246.58 96.4 246.58 92.79 233.34 92.79 233.34 110.97 246.87 110.97 246.87 107.38 237.44 107.38 237.44 103.61"/><path class="cls-2" d="M261.92,104.47c2.34-.86,3.5-2.74,3.5-5.64a5.49,5.49,0,0,0-1.84-4.61q-1.81-1.44-6.09-1.44h-7V111h4.1v-5.79h2.85l4.07,5.79h5.05ZM260.47,101a4.35,4.35,0,0,1-2.86.67h-3V96.28h3.08a5.15,5.15,0,0,1,2.76.53,2.32,2.32,0,0,1,.79,2A2.69,2.69,0,0,1,260.47,101Z"/><polygon class="cls-2" points="282.46 104.49 273.45 92.79 269.62 92.79 269.62 110.97 273.72 110.97 273.72 99.58 282.46 110.97 286.56 110.97 286.56 92.79 282.46 92.79 282.46 104.49"/><path class="cls-2" d="M306.52,95.07a10.08,10.08,0,0,0-13.71,0,9.46,9.46,0,0,0,0,13.4,10.08,10.08,0,0,0,13.71,0,9.44,9.44,0,0,0,0-13.4Zm-3,10.84a5.25,5.25,0,0,1-7.75,0,5.91,5.91,0,0,1-1.58-4.14,6,6,0,0,1,1.58-4.15,5.25,5.25,0,0,1,7.75,0,5.93,5.93,0,0,1,1.57,4.15A5.85,5.85,0,0,1,303.56,105.91Z"/><polygon class="cls-2" points="329.98 102.78 325.25 92.79 319.71 92.79 319.71 110.97 323.81 110.97 323.81 99.53 328.75 109.46 331.19 109.46 336.15 99.53 336.15 110.97 340.25 110.97 340.25 92.79 334.74 92.79 329.98 102.78"/><path class="cls-2" d="M356.14,102.83a5.37,5.37,0,0,1-1,3.45,3.33,3.33,0,0,1-2.74,1.26,3.36,3.36,0,0,1-2.76-1.26,5.37,5.37,0,0,1-1-3.45v-10h-4.1V103a8,8,0,0,0,2.22,6.06,8.57,8.57,0,0,0,11.3,0,8,8,0,0,0,2.21-6.07V92.79h-4.1Z"/><polygon class="cls-2" points="377.34 104.49 368.33 92.79 364.5 92.79 364.5 110.97 368.6 110.97 368.6 99.58 377.34 110.97 381.44 110.97 381.44 92.79 377.34 92.79 377.34 104.49"/><rect class="cls-2" x="385.96" y="92.79" width="4.1" height="18.18"/><path class="cls-2" d="M403.29,96.25a6,6,0,0,1,4.84,2.39l2.54-2.86a9.74,9.74,0,0,0-7.56-3.41,9.47,9.47,0,0,0-6.84,2.71,9.54,9.54,0,0,0-.06,13.44,10,10,0,0,0,14.36-.83L407.94,105a6.06,6.06,0,0,1-4.94,2.37,5.13,5.13,0,0,1-3.75-1.53,5.46,5.46,0,0,1-1.55-4.07,5.19,5.19,0,0,1,1.64-4A5.64,5.64,0,0,1,403.29,96.25Z"/><rect class="cls-2" x="413.8" y="92.79" width="4.1" height="18.18"/><path class="cls-2" d="M435.06,94.42c-1.29-1.08-3.34-1.64-6.16-1.64h-6.48V111h4.1V105.9H429c2.71,0,4.74-.52,6.06-1.56a5.88,5.88,0,0,0,2-4.93A6.12,6.12,0,0,0,435.06,94.42Zm-3,7.16a3.75,3.75,0,0,1-2.79.8h-2.74v-6.1h2.34a5.38,5.38,0,0,1,3,.65,2.55,2.55,0,0,1,.94,2.25A3.47,3.47,0,0,1,432.05,101.58Z"/><path class="cls-2" d="M448.64,92.78h-4L436.73,111h4.37l1.7-3.91h7.69l1.72,3.91h4.35Zm-4.3,10.7,2.32-5.28,2.28,5.28Z"/><polygon class="cls-2" points="462.79 107.35 462.79 92.79 458.69 92.79 458.69 110.97 470.62 110.97 470.62 107.35 462.79 107.35"/><path class="cls-2" d="M173.41,104.09h3.75v2.61a7.09,7.09,0,0,1-3.55.81A5,5,0,0,1,170,106a6.23,6.23,0,0,1,.06-8.27A5.42,5.42,0,0,1,174,96.12a6.12,6.12,0,0,1,2.25.4A8.14,8.14,0,0,1,178.47,98l2.13-3a10,10,0,0,0-6.87-2.58A9.38,9.38,0,0,0,167,95.08a9,9,0,0,0-2.8,6.75,8.9,8.9,0,0,0,2.75,6.69,9.39,9.39,0,0,0,6.79,2.66,9.68,9.68,0,0,0,7.56-3v-7.11h-7.87Z"/><path class="cls-3" d="M110.42,104.72a91.28,91.28,0,0,0-7,5.87,36.46,36.46,0,0,1-16.72,8.92c-8.21,1.75-16.36,2-24.35-.87-10.64-3.76-17.47-11.33-21.2-21.84a39.9,39.9,0,0,1-2.19-11.11h89.18a10.15,10.15,0,0,0,7.52-3.33,10.74,10.74,0,0,0,2.8-8.13,157.3,157.3,0,0,0-2.72-20.48,81.88,81.88,0,0,0-9.06-24.51C115.31,9.82,95.89,0,69,0,48.44,0,32.06,6.38,20.28,19a67.37,67.37,0,0,0-13,20.62,95.35,95.35,0,0,0-5.87,21A124.83,124.83,0,0,0,.22,86.91a74.71,74.71,0,0,0,6.72,26.17c7.31,15.48,19,26.25,34.91,32.52A80.71,80.71,0,0,0,61,150.39a100.23,100.23,0,0,0,20,.69,103.26,103.26,0,0,0,24.24-4.63,67.58,67.58,0,0,0,18.66-8.94,31.53,31.53,0,0,0,9.71-10.32,20.68,20.68,0,0,0,2.7-10.8A14.57,14.57,0,0,0,132,106.6,16.08,16.08,0,0,0,110.42,104.72ZM82.31,27.82l3.25,4.07a13.43,13.43,0,0,0-3.25,2.6Zm0,39.49h0V63.38h0V46.42H102.4V72.35H82.31Zm.09-24.49a10,10,0,0,1,19.91,0Zm-3.69,0V72.35h-21V67.19h0v-4h0V20.43l10.53-9.08,10.48,9.08ZM54.1,34.48a12.47,12.47,0,0,0-3.23-2.62l3.23-4.05ZM54,42.82H34a10,10,0,0,1,20,0Zm0,3.6V61.88h0v3.71h0v6.75H34V46.42ZM106,67.09a14.82,14.82,0,0,0,12.52-.59,11.16,11.16,0,0,1,10.53,0A13.46,13.46,0,0,0,133.39,68c.16,1.56.29,3,.39,4.36H106ZM5.88,61.24C7.79,49.94,12.39,34,23.56,22,34.46,10.37,49.73,4.5,69,4.5c50.6,0,61.05,36.92,64,59.73a14.67,14.67,0,0,1-2.31-1,13.72,13.72,0,0,0-6.88-1.7,13.38,13.38,0,0,0-6.85,1.7,11.22,11.22,0,0,1-10.56,0,1.62,1.62,0,0,0-.37-.19V43.63h0s0-.05,0-.07v-.74h-.07A13.61,13.61,0,0,0,92.35,30a13.32,13.32,0,0,0-3.42.49l.06,0-6.68-8.38v-3.3l-12.73-11a2.09,2.09,0,0,0-2.75,0l-12.73,11V22l-6.69,8.39,0,0A13.08,13.08,0,0,0,44,30,13.58,13.58,0,0,0,30.47,42.82h0V62a14.56,14.56,0,0,0-3.71-.45,13.32,13.32,0,0,0-6.85,1.7,10.49,10.49,0,0,1-5.3,1.32A10.32,10.32,0,0,1,9.3,63.28a14.47,14.47,0,0,0-3.52-1.35A4.77,4.77,0,0,1,5.88,61.24ZM5.25,65.5a14.51,14.51,0,0,1,2.46,1,13.44,13.44,0,0,0,6.85,1.7,13.39,13.39,0,0,0,6.86-1.7,10.44,10.44,0,0,1,5.29-1.32,9.79,9.79,0,0,1,3.71.64v6.53H4.56C4.72,70.26,4.93,68,5.25,65.5Zm-.9,11.3H133.76a6.44,6.44,0,0,1-1.41,2.51,5.7,5.7,0,0,1-4.23,1.88H4.32C4.3,80.11,4.3,78.6,4.35,76.8Z"/><path class="cls-3" d="M62.71,40.53h11V25.14h-11Zm2.74-12.61H71v9.83H65.45Z"/></g></g></svg>