<svg xmlns="http://www.w3.org/2000/svg" viewBox="0 0 140 153">
  <path d="M111.6218,105.9a92.3147,92.3147,0,0,0-7.0757,5.9362,36.8489,36.8489,0,0,1-16.9008,9.0205c-8.2988,1.77-16.537,2.0225-24.6134-.88-10.7551-3.8024-17.659-11.4577-21.4293-22.0861a40.3622,40.3622,0,0,1-2.2137-11.2352h90.1446a10.2577,10.2577,0,0,0,7.6013-3.3676,10.8641,10.8641,0,0,0,2.83-8.2216,159.14,159.14,0,0,0-2.7494-20.7108,82.8285,82.8285,0,0,0-9.158-24.7862C116.5647,9.9307,96.9347,0,69.7538,0,48.9714,0,32.4143,6.4519,20.5069,19.2141A68.1317,68.1317,0,0,0,7.3663,40.0665,96.4541,96.4541,0,0,0,1.4328,61.3032,126.2923,126.2923,0,0,0,.23,87.8894a75.5772,75.5772,0,0,0,6.7927,26.4649C14.4116,130.0088,26.2281,140.9,42.31,147.2408a81.5506,81.5506,0,0,0,19.3571,4.844,101.2714,101.2714,0,0,0,20.2163.6978A104.3378,104.3378,0,0,0,106.3858,148.1a68.297,68.297,0,0,0,18.8618-9.0408,31.8771,31.8771,0,0,0,9.815-10.4363,20.92,20.92,0,0,0,2.7292-10.9217,14.737,14.737,0,0,0-4.3566-9.9A16.2487,16.2487,0,0,0,111.6218,105.9ZM83.2078,28.1335l3.2851,4.1159a13.5763,13.5763,0,0,0-3.2851,2.6293Zm0,39.935h0V64.0943h0V46.9431h20.3073V73.1653H83.2078Zm.0909-24.7659a10.1078,10.1078,0,0,1,20.1254,0Zm-3.73,0V73.1653H58.3417V67.9472h0V63.9021h0V20.66l10.6439-9.1823L79.5789,20.66Zm-24.8761-8.434a12.6065,12.6065,0,0,0-3.265-2.65l3.265-4.0956Zm-.1011,8.434H34.3753a10.1082,10.1082,0,1,1,20.2163,0Zm0,3.6405V62.5774h0v3.7518h0v6.826H34.3753V46.9431Zm52.5624,20.903a14.9742,14.9742,0,0,0,12.6554-.5967,11.2765,11.2765,0,0,1,10.6439,0,13.6013,13.6013,0,0,0,4.387,1.5169c.1617,1.5776.2931,3.0338.3942,4.4092h-28.08ZM5.9511,61.93c1.9307-11.4273,6.58-27.5469,17.8712-39.6822C34.84,10.4869,50.2754,4.5507,69.7538,4.5507c51.1473,0,61.71,37.3361,64.6922,60.4031a14.8208,14.8208,0,0,1-2.3349-1.0112,13.8639,13.8639,0,0,0-6.9545-1.7192,13.5192,13.5192,0,0,0-6.924,1.7192,11.3372,11.3372,0,0,1-10.6743,0,1.6358,1.6358,0,0,0-.374-.1922V44.1217h0v-.8191h-.0707A13.76,13.76,0,0,0,93.3564,30.3381a13.4576,13.4576,0,0,0-3.457.4955H89.96l-6.7522-8.4744V19.022L70.34,7.898a2.1121,2.1121,0,0,0-2.78,0L54.6927,19.022v3.2259L47.93,30.7325h0a13.2133,13.2133,0,0,0-3.4469-.3944A13.73,13.73,0,0,0,30.8071,43.3026h0V62.6987a14.7131,14.7131,0,0,0-3.75-.4551,13.46,13.46,0,0,0-6.924,1.7192,10.6006,10.6006,0,0,1-5.3574,1.3349,10.4278,10.4278,0,0,1-5.3674-1.3046A14.6241,14.6241,0,0,0,5.85,62.6279,4.8326,4.8326,0,0,1,5.9511,61.93Zm-.6368,4.308a14.67,14.67,0,0,1,2.4866,1.0113,13.5807,13.5807,0,0,0,6.9241,1.7192,13.5308,13.5308,0,0,0,6.9342-1.7192,10.55,10.55,0,0,1,5.3472-1.3349,9.891,9.891,0,0,1,3.75.6473v6.6035H4.6168C4.7786,71.0518,4.9908,68.7663,5.3143,66.2381Zm-.91,11.4274h130.81a6.5134,6.5134,0,0,1-1.4252,2.5383,5.7609,5.7609,0,0,1-4.2758,1.9012H4.3742C4.354,81.0128,4.354,79.4858,4.4046,77.6655Z" transform="translate(0)" fill="#dd671a"/>
</svg>
