<?xml version="1.0" encoding="utf-8"?>
<!-- Generator: Adobe Illustrator 25.2.3, SVG Export Plug-In . SVG Version: 6.00 Build 0)  -->
<svg version="1.1" id="Layer_1" xmlns="http://www.w3.org/2000/svg" xmlns:xlink="http://www.w3.org/1999/xlink" x="0px" y="0px"
	 viewBox="0 0 481.21 151.3" enable-background="new 0 0 481.21 151.3" xml:space="preserve">
<g id="Capa_2">
	<g id="Capa_1-2">
		<path fill="#FFFFFF" d="M172.28,74.53v-7.41h16.22V60.3h-16.22V53h18v-7.18h-26.1v35.77h26.69v-7.06H172.28z"/>
		<path fill="#FFFFFF" d="M220.12,56.67c-1.9163-2.0193-4.5969-3.1344-7.38-3.07c-3.0181,0.028-5.8894,1.3062-7.93,3.53v-3.07H197
			v27.53h7.77V66.23c-0.1334-1.7962,0.4986-3.565,1.74-4.87c1.0716-1.0831,2.5364-1.6856,4.06-1.67c3.15,0,4.72,2.11,4.72,6.35
			v15.55h7.77V64.85C223.2144,61.8397,222.1554,58.8932,220.12,56.67z"/>
		<path fill="#FFFFFF" d="M250.51,71.36c-2.06,2.55-4.4,3.82-7,3.82c-1.9066,0.0303-3.754-0.6628-5.17-1.94
			c-1.509-1.3979-2.3157-3.3962-2.2-5.45c-0.1077-2.0583,0.6971-4.0595,2.2-5.47c1.4355-1.3108,3.3162-2.0259,5.26-2
			c1.3358,0.014,2.654,0.3069,3.87,0.86c1.2693,0.5594,2.3944,1.4007,3.29,2.46l4-5.22c-1.5285-1.581-3.3761-2.8185-5.42-3.63
			c-1.931-0.8013-3.9994-1.219-6.09-1.23c-3.8461-0.0536-7.5645,1.3793-10.38,4c-2.9097,2.6059-4.517,6.366-4.39,10.27
			c-0.1401,3.8854,1.4449,7.6339,4.33,10.24c2.9103,2.6344,6.726,4.0425,10.65,3.93c4.1867,0,8.0733-1.8433,11.66-5.53L250.51,71.36
			z"/>
		<path fill="#FFFFFF" d="M280.77,56.11c-2.3995-1.751-5.3222-2.6359-8.29-2.51c-4.4724-0.0524-8.8446,1.3244-12.48,3.93l3.46,5
			c1.1624-0.8542,2.4467-1.5285,3.81-2c1.37-0.4973,2.8128-0.7642,4.27-0.79c3.15,0,4.72,1.46,4.72,4.4v0.15h-5.8
			c-3.6,0-6.42,0.69-8.49,2.1c-2.0822,1.4031-3.2655,3.804-3.11,6.31c-0.0961,2.5954,1.0109,5.09,3,6.76
			c2.0781,1.7072,4.7015,2.6089,7.39,2.54c2.9306,0.0179,5.6913-1.3736,7.42-3.74v3.34H284V64C284,60.41,282.92,57.79,280.77,56.11z
			 M276.17,71.11c0.0357,1.3094-0.5549,2.5574-1.59,3.36c-1.0396,0.8188-2.3267,1.2597-3.65,1.25
			c-1.1189,0.0666-2.2315-0.2089-3.19-0.79c-0.7327-0.5236-1.1534-1.3801-1.12-2.28c0-1.9067,1.56-2.8633,4.68-2.87h4.87V71.11z"/>
		<path fill="#FFFFFF" d="M307.2,53.6c-1.6016,0.0482-3.1698,0.4693-4.58,1.23c-1.4165,0.7126-2.6881,1.6825-3.75,2.86v-3.63h-7.78
			v27.53h7.78V69.67c-0.1104-2.2674,0.4834-4.5134,1.7-6.43c1.1944-1.6453,3.1517-2.5597,5.18-2.42h1.51L307.2,53.6z"/>
		<path fill="#FFFFFF" d="M335.46,56.67c-1.9134-2.0235-4.596-3.1394-7.38-3.07c-3.0155,0.0399-5.8823,1.3161-7.93,3.53v-3.07h-7.77
			v27.53h7.77V66.23c-0.1334-1.7962,0.4986-3.565,1.74-4.87c1.085-1.0937,2.5696-1.697,4.11-1.67c3.15,0,4.72,2.11,4.72,6.35v15.55
			h7.77V64.85C338.6201,61.827,337.528,58.8788,335.46,56.67z"/>
		<path fill="#FFFFFF" d="M366,56.11c-2.3995-1.751-5.3222-2.6359-8.29-2.51c-4.495-0.059-8.8915,1.3178-12.55,3.93l3.48,5
			c1.1573-0.8622,2.443-1.5371,3.81-2c1.3692-0.5,2.8125-0.767,4.27-0.79c3.15,0,4.72,1.46,4.72,4.4v0.15h-5.8
			c-3.6,0-6.44,0.69-8.51,2.1c-2.0835,1.4038-3.273,3.8018-3.13,6.31c-0.1022,2.5966,1.006,5.0937,3,6.76
			c2.0863,1.7204,4.7271,2.6232,7.43,2.54c2.9353,0.0145,5.7006-1.3755,7.44-3.74v3.34h7.31V64C369.18,60.41,368.12,57.79,366,56.11
			z M361.38,71.11c0.0439,1.3111-0.5483,2.5626-1.59,3.36c-1.0364,0.8246-2.3257,1.2661-3.65,1.25
			c-1.1126,0.067-2.219-0.2087-3.17-0.79c-0.7399-0.5174-1.1628-1.3781-1.12-2.28c0-1.91,1.54-2.87,4.66-2.87h4.87V71.11z"/>
		<path fill="#FFFFFF" d="M396.63,71.36c-2.07,2.55-4.39,3.82-7,3.82c-1.9034,0.0288-3.747-0.6644-5.16-1.94
			c-1.5126-1.3954-2.32-3.3955-2.2-5.45c-0.1077-2.0583,0.6971-4.0595,2.2-5.47c1.4355-1.3108,3.3163-2.0259,5.26-2
			c1.3326,0.0139,2.6475,0.3069,3.86,0.86c1.2677,0.5621,2.3923,1.403,3.29,2.46l4-5.22c-1.5266-1.5787-3.3704-2.8159-5.41-3.63
			c-1.9321-0.7974-3.9998-1.215-6.09-1.23c-3.8517-0.0515-7.5755,1.3808-10.4,4c-2.9046,2.608-4.5048,6.3687-4.37,10.27
			c-0.128,3.8984,1.4799,7.6527,4.39,10.25c2.8962,2.6172,6.6878,4.0207,10.59,3.92c4.18,0,8.0667-1.8433,11.66-5.53L396.63,71.36z"
			/>
		<path fill="#FFFFFF" d="M413.57,44.15c-0.8674-0.8459-2.0387-1.3072-3.25-1.28c-1.2065-0.0333-2.3739,0.4293-3.23,1.28
			c-1.7726,1.7729-1.7726,4.6471,0,6.42c0.8561,0.8507,2.0236,1.3133,3.23,1.28c1.2113,0.0272,2.3826-0.4341,3.25-1.28
			C415.3155,48.7859,415.3155,45.9341,413.57,44.15z M406.43,54.06v27.53h7.77V54.06H406.43z"/>
		<path fill="#FFFFFF" d="M445.25,57.73c-5.9522-5.5053-15.1378-5.5053-21.09,0c-5.5698,5.5445-5.5903,14.5544-0.0458,20.1242
			c0.0152,0.0153,0.0305,0.0306,0.0458,0.0458c5.9727,5.4528,15.1173,5.4528,21.09,0c5.5698-5.5288,5.603-14.526,0.0742-20.0958
			C445.2995,57.7794,445.2748,57.7546,445.25,57.73z M439.68,73.32c-2.6246,2.7476-6.9796,2.8474-9.7272,0.2228
			c-0.076-0.0725-0.1502-0.1468-0.2228-0.2228c-1.3528-1.5017-2.0698-3.47-2-5.49c-0.0667-2.0315,0.6492-4.0111,2-5.53
			c2.5844-2.7476,6.907-2.8799,9.6546-0.2955c0.1015,0.0954,0.2,0.194,0.2954,0.2955c1.3291,1.528,2.0232,3.5066,1.94,5.53
			C441.7073,69.842,441.012,71.8096,439.68,73.32z M436.8,41.32l-6.59,9.07h7.43l7.19-5.74L436.8,41.32z"/>
		<path fill="#FFFFFF" d="M478.23,56.67c-1.9163-2.0193-4.5969-3.1344-7.38-3.07c-3.0181,0.028-5.8894,1.3062-7.93,3.53v-3.07h-7.77
			v27.53h7.77V66.23c-0.13-1.792,0.4934-3.5571,1.72-4.87c1.0797-1.0833,2.5506-1.6853,4.08-1.67c3.13,0,4.72,2.11,4.72,6.35v15.55
			h7.77V64.85C481.3491,61.8348,480.276,58.8892,478.23,56.67z"/>
		<path fill="#FFFFFF" d="M200.39,95.07c-3.873-3.589-9.857-3.589-13.73,0c-3.7003,3.6727-3.7227,9.6498-0.0499,13.3501
			c0.0166,0.0167,0.0332,0.0333,0.0499,0.0499c3.873,3.589,9.857,3.589,13.73,0c3.7003-3.6884,3.71-9.6781,0.0216-13.3784
			C200.4044,95.0844,200.3972,95.0772,200.39,95.07z M197.39,105.91c-1.9563,2.1401-5.2771,2.2891-7.4172,0.3328
			c-0.1159-0.1059-0.2269-0.217-0.3328-0.3328c-1.0455-1.121-1.6093-2.6076-1.57-4.14c-0.0334-1.5344,0.5294-3.022,1.57-4.15
			c1.9563-2.1401,5.2771-2.2891,7.4172-0.3328c0.1159,0.1059,0.2269,0.217,0.3328,0.3328c1.0479,1.1242,1.6149,2.6135,1.58,4.15
			c0.0452,1.5315-0.5153,3.0191-1.56,4.14H197.39z"/>
		<path fill="#FFFFFF" d="M220.28,103.05c-0.7228-0.789-1.6797-1.3253-2.73-1.53l0.66-0.29c0.237-0.1274,0.4585-0.2817,0.66-0.46
			c0.9609-0.7603,1.4818-1.9481,1.39-3.17c-0.0052-1.1777-0.4553-2.31-1.26-3.17c-0.5552-0.564-1.2428-0.9799-2-1.21
			c-1.042-0.3062-2.124-0.4545-3.21-0.44h-7.15V111h8c2.52,0,4.29-0.55,5.3-1.69c0.8586-0.906,1.3288-2.1119,1.31-3.36
			C221.3016,104.8959,220.9554,103.8609,220.28,103.05z M210.73,96.22h2c0.8758-0.0598,1.7538,0.0768,2.57,0.4
			c0.5483,0.3354,0.8465,0.9631,0.76,1.6c0.082,0.6433-0.2451,1.2698-0.82,1.57c-0.8141,0.2742-1.6717,0.3963-2.53,0.36h-2
			L210.73,96.22z M216.18,107.1c-0.8414,0.3348-1.7459,0.4816-2.65,0.43h-2.8v-4.19h2.41c1.017-0.057,2.0356,0.0822,3,0.41
			c0.6404,0.295,1.0164,0.9703,0.93,1.67C217.1492,106.1101,216.7955,106.7779,216.18,107.1z"/>
		<rect x="224.73" y="92.79" fill="#FFFFFF" width="4.1" height="18.18"/>
		<polygon fill="#FFFFFF" points="237.44,103.61 245.66,103.61 245.66,100.15 237.44,100.15 237.44,96.4 246.58,96.4 246.58,92.79 
			233.34,92.79 233.34,110.97 246.87,110.97 246.87,107.38 237.44,107.38 		"/>
		<path fill="#FFFFFF" d="M261.92,104.47c2.34-0.86,3.5-2.74,3.5-5.64c0.156-1.742-0.5273-3.4542-1.84-4.61
			c-1.2067-0.96-3.2367-1.44-6.09-1.44h-7V111h4.1v-5.79h2.85l4.07,5.79h5.05L261.92,104.47z M260.47,101
			c-0.8468,0.5482-1.8578,0.785-2.86,0.67h-3v-5.39h3.08c0.9514-0.0826,1.9069,0.1009,2.76,0.53c0.575,0.497,0.8702,1.2442,0.79,2
			C261.3278,99.6189,261.0447,100.424,260.47,101z"/>
		<polygon fill="#FFFFFF" points="282.46,104.49 273.45,92.79 269.62,92.79 269.62,110.97 273.72,110.97 273.72,99.58 
			282.46,110.97 286.56,110.97 286.56,92.79 282.46,92.79 		"/>
		<path fill="#FFFFFF" d="M306.52,95.07c-3.8664-3.5864-9.8436-3.5864-13.71,0c-3.7003,3.6884-3.71,9.6781-0.0215,13.3784
			c0.0072,0.0072,0.0143,0.0144,0.0215,0.0216c3.8664,3.5864,9.8436,3.5864,13.71,0c3.7003-3.6727,3.7227-9.6498,0.0499-13.3501
			C306.5533,95.1032,306.5367,95.0866,306.52,95.07z M303.52,105.91c-1.9563,2.1401-5.277,2.2891-7.4171,0.3328
			c-0.1159-0.1059-0.2269-0.217-0.3329-0.3328c-1.0437-1.1229-1.6102-2.6073-1.58-4.14c-0.0235-1.5345,0.542-3.0196,1.58-4.15
			c1.9563-2.1401,5.277-2.2891,7.4171-0.3328c0.1159,0.1059,0.2269,0.217,0.3329,0.3328c1.0406,1.128,1.6034,2.6156,1.57,4.15
			c0.0501,1.5268-0.499,3.0127-1.53,4.14H303.52z"/>
		<polygon fill="#FFFFFF" points="329.98,102.78 325.25,92.79 319.71,92.79 319.71,110.97 323.81,110.97 323.81,99.53 
			328.75,109.46 331.19,109.46 336.15,99.53 336.15,110.97 340.25,110.97 340.25,92.79 334.74,92.79 		"/>
		<path fill="#FFFFFF" d="M356.14,102.83c0.0726,1.2307-0.2805,2.4489-1,3.45c-0.6599,0.8332-1.6779,1.3014-2.74,1.26
			c-1.0681,0.0429-2.0928-0.4249-2.76-1.26c-0.7195-1.0011-1.0726-2.2193-1-3.45v-10h-4.1V103
			c-0.1438,2.2421,0.6619,4.4413,2.22,6.06c3.2332,2.8349,8.0667,2.8349,11.3,0c1.5571-1.6227,2.3593-3.826,2.21-6.07v-10.2h-4.1
			L356.14,102.83z"/>
		<polygon fill="#FFFFFF" points="377.34,104.49 368.33,92.79 364.5,92.79 364.5,110.97 368.6,110.97 368.6,99.58 377.34,110.97 
			381.44,110.97 381.44,92.79 377.34,92.79 		"/>
		<rect x="385.96" y="92.79" fill="#FFFFFF" width="4.1" height="18.18"/>
		<path fill="#FFFFFF" d="M403.29,96.25c1.9008-0.015,3.6964,0.8716,4.84,2.39l2.54-2.86c-1.886-2.2064-4.6578-3.4566-7.56-3.41
			c-2.5521-0.0555-5.0184,0.9217-6.84,2.71c-3.708,3.7031-3.7348,9.7039-0.06,13.44c4.0601,3.744,10.3866,3.4877,14.1306-0.5724
			c0.0779-0.0845,0.1544-0.1704,0.2294-0.2576l-2.63-2.69c-1.1751,1.5318-3.0098,2.412-4.94,2.37
			c-1.407,0.0259-2.7628-0.5273-3.75-1.53c-1.0588-1.083-1.6202-2.5571-1.55-4.07c-0.0611-1.5084,0.5376-2.9686,1.64-4
			C400.4095,96.7698,401.826,96.2247,403.29,96.25z"/>
		<rect x="413.8" y="92.79" fill="#FFFFFF" width="4.1" height="18.18"/>
		<path fill="#FFFFFF" d="M435.06,94.42c-1.29-1.08-3.34-1.64-6.16-1.64h-6.48V111h4.1v-5.1H429c2.71,0,4.74-0.52,6.06-1.56
			c1.4145-1.2305,2.1574-3.0618,2-4.93C437.1987,97.5272,436.4606,95.6858,435.06,94.42z M432.06,101.58
			c-0.7849,0.6303-1.7903,0.9186-2.79,0.8h-2.74v-6.1h2.34c1.0419-0.0793,2.0844,0.1466,3,0.65
			c0.6749,0.5419,1.0288,1.3891,0.94,2.25c0.056,0.8669-0.2152,1.7233-0.76,2.4H432.06z"/>
		<path fill="#FFFFFF" d="M448.64,92.78h-4L436.73,111h4.37l1.7-3.91h7.69l1.72,3.91h4.35L448.64,92.78z M444.34,103.48l2.32-5.28
			l2.28,5.28H444.34z"/>
		<polygon fill="#FFFFFF" points="462.79,107.35 462.79,92.79 458.69,92.79 458.69,110.97 470.62,110.97 470.62,107.35 		"/>
		<path fill="#FFFFFF" d="M173.41,104.09h3.75v2.61c-1.0926,0.5744-2.3163,0.8536-3.55,0.81c-1.3585,0.008-2.6618-0.5371-3.61-1.51
			c-2.0764-2.3744-2.0507-5.926,0.06-8.27c1.0389-1.0515,2.4621-1.633,3.94-1.61c0.7685-0.0091,1.5318,0.1266,2.25,0.4
			c0.8164,0.3679,1.5664,0.8679,2.22,1.48l2.13-3c-1.8803-1.6995-4.3358-2.6217-6.87-2.58c-2.5088-0.0492-4.9328,0.9088-6.73,2.66
			c-1.8459,1.7528-2.8632,4.2053-2.8,6.75c-0.0717,2.5187,0.9276,4.9498,2.75,6.69c1.8125,1.7652,4.2607,2.7243,6.79,2.66
			c2.8383,0.1586,5.6027-0.9385,7.56-3v-7.11h-7.87L173.41,104.09z"/>
		<path fill="#FFFFFF" d="M110.42,104.72c-2.4298,1.8386-4.7661,3.7977-7,5.87c-4.6897,4.3951-10.4579,7.4724-16.72,8.92
			c-8.21,1.75-16.36,2-24.35-0.87c-10.64-3.76-17.47-11.33-21.2-21.84c-1.2545-3.5804-1.9919-7.3214-2.19-11.11h89.18
			c2.8642,0.0008,5.5955-1.2087,7.52-3.33c2.0248-2.2018,3.0396-5.1483,2.8-8.13c-0.4569-6.8789-1.3655-13.7203-2.72-20.48
			c-1.6884-8.6023-4.7474-16.8777-9.06-24.51C115.31,9.82,95.89,0,69,0C48.44,0,32.06,6.38,20.28,19
			c-5.5511,6.0257-9.9565,13.0134-13,20.62c-2.7533,6.7525-4.7228,13.7986-5.87,21c-1.3219,8.6969-1.7208,17.5092-1.19,26.29
			c0.6309,9.0592,2.9081,17.9276,6.72,26.17c7.31,15.48,19,26.25,34.91,32.52c6.1633,2.3742,12.5947,3.9829,19.15,4.79
			c6.627,0.8966,13.327,1.1278,20,0.69c8.236-0.5688,16.3741-2.1232,24.24-4.63c6.642-2.0045,12.9358-5.0198,18.66-8.94
			c3.9777-2.6587,7.2983-6.1878,9.71-10.32c1.8703-3.2855,2.8041-7.0209,2.7-10.8c-0.1435-3.6917-1.6841-7.1911-4.31-9.79
			C126.3711,100.4954,117.0197,99.6807,110.42,104.72z M82.31,27.82l3.25,4.07c-1.2119,0.6925-2.3084,1.5697-3.25,2.6V27.82z
			 M82.31,67.31L82.31,67.31v-3.93l0,0V46.42h20.09v25.93H82.31V67.31z M82.4,42.82c0.5233-5.498,5.4046-9.5308,10.9026-9.0074
			c4.7738,0.4544,8.553,4.2336,9.0074,9.0074H82.4z M78.71,42.82v29.53h-21v-5.16l0,0v-4l0,0V20.43l10.53-9.08l10.48,9.08
			L78.71,42.82z M54.1,34.48c-0.9224-1.048-2.0143-1.9336-3.23-2.62l3.23-4.05V34.48z M54,42.82H34c0-5.5228,4.4772-10,10-10
			S54,37.2972,54,42.82z M54,46.42v15.46l0,0v3.71l0,0v6.75H34V46.42H54z M106,67.09c4.0552,1.6646,8.6393,1.4486,12.52-0.59
			c3.2894-1.76,7.2406-1.76,10.53,0c1.3501,0.7449,2.8181,1.2523,4.34,1.5c0.16,1.56,0.29,3,0.39,4.36H106V67.09z M5.88,61.24
			C7.79,49.94,12.39,34,23.56,22C34.46,10.37,49.73,4.5,69,4.5c50.6,0,61.05,36.92,64,59.73c-0.7972-0.2665-1.5701-0.6011-2.31-1
			c-2.1049-1.1594-4.4774-1.7456-6.88-1.7c-2.3943-0.0566-4.76,0.5305-6.85,1.7c-3.3,1.76-7.26,1.76-10.56,0
			c-0.1147-0.079-0.239-0.1428-0.37-0.19V43.63l0,0c0,0,0-0.05,0-0.07v-0.74h-0.07c-0.419-7.2064-6.3914-12.8322-13.61-12.82
			c-1.1564,0.0142-2.3061,0.1789-3.42,0.49h0.06l-6.68-8.38v-3.3l-12.73-11c-0.7876-0.688-1.9624-0.688-2.75,0l-12.73,11V22
			l-6.69,8.39l0,0C46.2954,30.1108,45.1489,29.9797,44,30c-7.1937,0.0152-13.1274,5.6376-13.53,12.82l0,0V62
			c-1.2122-0.3087-2.4591-0.46-3.71-0.45c-2.3947-0.0596-4.7611,0.5277-6.85,1.7c-1.6191,0.9003-3.4478,1.3557-5.3,1.32
			c-1.8538,0.0549-3.6881-0.3907-5.31-1.29c-1.1094-0.6016-2.2928-1.0554-3.52-1.35C5.7965,61.6979,5.8299,61.4673,5.88,61.24z
			 M5.25,65.5c0.8488,0.2574,1.6723,0.5922,2.46,1c2.0911,1.1668,4.456,1.7537,6.85,1.7c2.3976,0.0579,4.7668-0.5292,6.86-1.7
			c1.6153-0.9008,3.4409-1.3563,5.29-1.32c1.2664-0.0287,2.5264,0.1887,3.71,0.64v6.53H4.56C4.72,70.26,4.93,68,5.25,65.5z
			 M4.35,76.8h129.41c-0.2746,0.9324-0.7566,1.7905-1.41,2.51c-1.0806,1.1968-2.6176,1.8798-4.23,1.88H4.32
			C4.3,80.11,4.3,78.6,4.35,76.8z"/>
		<path fill="#FFFFFF" d="M62.71,40.53h11V25.14h-11V40.53z M65.45,27.92H71v9.83h-5.55V27.92z"/>
	</g>
</g>
</svg>
