<svg xmlns="http://www.w3.org/2000/svg" viewBox="0 0 566.49 732.21"><defs><style>.cls-1{fill:#1042e2;stroke:#1d1d1b;stroke-miterlimit:10;stroke-width:2px;}.cls-2{fill:#fefefe;}.cls-3{fill:#030302;}.cls-4{fill:#e7951a;}.cls-5{fill:#020202;}.cls-6{fill:#ed5858;}</style></defs><g id="Capa_5" data-name="Capa 5"><path class="cls-1" d="M275.84,731.21c-14.45-7.91-17.19-23.27-23.08-36.34-22.67-50.27-44.79-100.79-67-151.27-1.5-3.42-3.86-5-7.14-6.33-56-22-100.07-58.42-132.79-108-17.1-25.92-29.85-54-36.29-84.5l44-.18a27.48,27.48,0,0,1,1.11,2.56c54,170.12,268.22,223.68,396.24,99.05,26.32-25.63,45.11-56,57.91-90.08h44.69c-7.91,27.07-19.26,52.47-35.43,75.89-9.1,13.16-18.36,26.11-29.72,37.37-29.6,29.32-63.06,53.15-102.51,68.08-2.69,1-3.89,2.67-5,5.2-13.25,30.27-26.18,60.69-40.22,90.61-12.15,25.89-22.8,52.4-34.46,78.48-3.79,8.48-8.32,15.75-17.29,19.47Zm52.83-177.67c-30.95,4.94-60.41,4.69-91.14.16,15.35,34.57,30.16,67.92,45.53,102.55Z"/><path class="cls-1" d="M53.53,344.58l-44,.18c-7.72-26.51-9.64-53.68-8-81C4.73,210.15,21.72,161,53.93,117.56,101.73,53.06,165.82,14.81,246.23,3.5c3.6-.51,7.69.3,10.81-2.5H306.2c10.53,1.81,21.17,3.11,31.56,5.5,116,26.66,189.65,97,219.81,210.5,12,45.19,9.78,90.83-2.68,135.92a22,22,0,0,1-1.41,3.19H508.79c.42-1.59.75-3.2,1.26-4.77A232.63,232.63,0,0,0,520,251.5C508.51,153.9,434.69,71.75,337.3,50.05c-69.08-15.4-133.56-3.48-191.78,37.09-30,20.88-54.42,46.74-71.86,79A238.66,238.66,0,0,0,44.55,275.62C44,299.06,48,321.91,53.53,344.58Z"/><path class="cls-2" d="M53.53,344.58c-5.55-22.67-9.54-45.52-9-69A238.66,238.66,0,0,1,73.66,166.13c17.44-32.25,41.9-58.11,71.86-79,58.22-40.57,122.7-52.49,191.78-37.09C434.69,71.75,508.51,153.9,520,251.5a232.63,232.63,0,0,1-9.94,99.84c-.51,1.57-.84,3.18-1.26,4.77-12.8,34.1-31.59,64.45-57.91,90.08-128,124.63-342.22,71.07-396.24-99.05A27.48,27.48,0,0,0,53.53,344.58ZM160.4,363.24c-.07,5.7-.47,11.42-.1,17.09.31,4.73-1.33,5.87-6,5.89-13.62,0-23,9.07-23,21.31s9.79,21.21,23.16,21.3c14.69.09,29.38,0,44.08,0q105.85,0,211.71,0c7.36,0,13.92-1.58,18.86-7.13,5.89-6.62,7.65-14.3,4-22.5-3.86-8.62-10.9-13.35-20.49-13-5.38.17-7.14-1.19-6.77-6.63.48-6.84,0-13.76-.08-20.65V246.75c3.44,2.58,5.49,4.12,7.54,5.64,10.61,7.86,23.38,6.86,31.07-2.44,7.91-9.56,6.44-22.72-4-31q-71-56.24-142.2-112.22c-10.36-8.16-19.92-8.09-30.21,0Q196.8,162.84,125.77,219c-10.17,8.05-11.87,20.69-4.43,30.37s20.37,11,31,3.47c2.39-1.69,4.18-4.49,8.09-4.8Z"/><path class="cls-2" d="M362.83,358.27c-.07,7.58-.31,15.18-.15,22.76.08,3.42-1.06,4.46-4.5,4.43-16.36-.15-32.71-.21-49.06,0-4.36.06-4.43-2.06-4.41-5.23q.14-21.35,0-42.7c-.06-13.8-9-23.44-21.65-23.44s-21.58,9.64-21.64,23.43c-.06,14.24-.15,28.48.06,42.71.06,3.95-1,5.3-5.17,5.24q-23.81-.36-47.62,0c-4.09.06-5.45-1.08-5.25-5.16.28-5.91,0-11.85-.12-17.78.08-47.47.39-94.94,0-142.41-.06-7.41,2.78-11.91,8.18-15.57,14.95-10.12,28.56-21.86,42.37-33.38,8.44-7.05,17.61-13.24,26.32-20,2.43-1.88,4.12-1.4,6.29.32q36.47,28.93,73.08,57.65c3.3,2.57,3,5.54,3,8.81q0,66.24,0,132.46C362.59,353.06,362.74,355.66,362.83,358.27Zm-79.72-87c4.81,0,9.62.12,14.42,0,12.27-.39,21.6-9.59,21.69-21.23s-9.23-21.17-21.4-21.48q-14.77-.39-29.57,0c-12.16.33-21.44,9.91-21.32,21.55.12,11.34,9.24,20.61,21,21.13C273,271.46,278.06,271.27,283.11,271.29Z"/><path class="cls-3" d="M451.31,241.32c5.45,2.89,5.91,3.92,4.63,11.6-6.55,39.34-17.43,77.39-33.93,113.87C404,406.7,379.58,442,346.06,470.76c-17.64,15.13-36.9,27.75-58.83,36.05-.55.21-1.17.24-1.3,1h-5.37c-8.87-4.28-18-8-26.52-13-37.88-22.26-66.67-53.35-89.69-90.09-9.27-14.78-16.52-30.56-23.62-46.42-2.33-5.22-1.85-6.89,2.68-10.63,4.9-1,7.86,1,9.7,5.58,5.09,12.59,11.44,24.62,17.93,36.52a250.6,250.6,0,0,0,30,42.86c21.76,25.4,47,46.4,78,60a9.85,9.85,0,0,0,8.5,0,188.89,188.89,0,0,0,40.14-23.77c36.25-27.85,61.89-63.69,80.93-104.65,17.11-36.81,27.84-75.44,34.64-115.26C444.18,243.22,445.45,242.11,451.31,241.32Z"/><path class="cls-3" d="M434.51,176.2c-3.3,60.5-12.79,118.45-36.76,173.34C381.37,387,359.67,420.9,328.17,448a195.88,195.88,0,0,1-39.81,26.79,10.35,10.35,0,0,1-10.13,0c-32.11-16.16-57.46-39.93-78-68.8C175.12,370.6,159,331.17,148.19,289.44c-7.89-30.53-11.87-61.64-14.38-93-.63-7.94-1.33-15.87-1.82-23.82-.37-5.92,2.42-9.06,8.27-9.51,34.46-2.65,67.06-11.36,97-28.95,14.46-8.5,27.06-19.27,39.18-30.67,5.72-5.38,8.19-5.23,13.83.38,31.77,31.66,70.37,49.82,114.62,56.71,6.76,1.05,13.59,1.66,20.4,2.42,7.21.81,9.46,3.32,9.23,10.45C434.47,174.8,434.51,176.13,434.51,176.2ZM145.86,182a608,608,0,0,0,8.64,73.37c8.65,47.36,24.09,92.29,50.14,133.13,19,29.86,43.44,54.58,74.95,71.88,2.55,1.4,4.6,1.59,7,.09,4.79-3,9.78-5.64,14.43-8.8,29.29-19.91,51.42-46.08,68.76-76.61,34.47-60.68,46.73-127,51-195.33.12-1.88-.09-2.86-2.44-3.11-21.11-2.23-41.65-6.28-61.53-14.36-26.19-10.64-50.16-24.35-70.66-43.71-2.49-2.35-3.68-2.06-6,.14-22.43,21.59-49.49,35.77-78.32,46.77-14.88,5.68-30.6,8.55-46.46,10.35C145.48,177,145.47,176.94,145.86,182Z"/><path class="cls-2" d="M145.86,182c-.39-5.09-.38-5.06,9.58-6.19,15.86-1.8,31.58-4.67,46.46-10.35,28.83-11,55.89-25.18,78.32-46.77,2.28-2.2,3.47-2.49,6-.14,20.5,19.36,44.47,33.07,70.66,43.71,19.88,8.08,40.42,12.13,61.53,14.36,2.35.25,2.56,1.23,2.44,3.11-4.29,68.37-16.55,134.65-51,195.33-17.34,30.53-39.47,56.7-68.76,76.61-4.65,3.16-9.64,5.82-14.43,8.8-2.41,1.5-4.46,1.31-7-.09-31.51-17.3-55.91-42-74.95-71.88-26-40.84-41.49-85.77-50.14-133.13A608,608,0,0,1,145.86,182Z"/><path class="cls-3" d="M453.29,225.11c-4.47-1.47-6.14-4.41-5.68-9.12,2.12-21.43,3.44-42.91,3.83-64.46.07-3.53-.88-4.33-4.39-4.26-41.63.85-80.6-8.33-115.89-30.85a172.61,172.61,0,0,1-45.09-41.83c-1.87-2.48-2.84-3.76-5.46-.33-30.76,40.28-72.1,62.75-122,70.59a201.39,201.39,0,0,1-39.62,2.42c-3.24-.14-3.91.84-3.86,3.9.94,58.05,7.77,115.21,26,170.68,1.76,5.35,1.05,7.2-3.63,10.4-5.68.14-7.24-.95-9.05-6.37-10.58-31.7-17.36-64.22-21.51-97.32a700.61,700.61,0,0,1-5.24-86.49c0-6.9,2.74-8.93,9.65-8.57,67.76,3.51,123.85-18.29,164-74.45.43-.6.82-1.22,1.24-1.83,4.32-6.24,9-6.3,13.26-.09a179,179,0,0,0,20.08,24.81c28.5,29,63.53,44.89,103.68,50.42a184.34,184.34,0,0,0,43.22,1c4.9-.47,8,2.34,8,7.25A744.67,744.67,0,0,1,461,217.51C460.52,222.24,458,224.67,453.29,225.11Z"/><path class="cls-4" d="M451.31,241.32c-5.86.79-7.13,1.9-8.09,7.54-6.8,39.82-17.53,78.45-34.64,115.26-19,41-44.68,76.8-80.93,104.65a188.89,188.89,0,0,1-40.14,23.77,9.85,9.85,0,0,1-8.5,0c-31-13.6-56.26-34.6-78-60a250.6,250.6,0,0,1-30-42.86c-6.49-11.9-12.84-23.93-17.93-36.52-1.84-4.55-4.8-6.54-9.7-5.58l-5.94-15.34c4.68-3.2,5.39-5.05,3.63-10.4-18.25-55.47-25.08-112.63-26-170.68,0-3.06.62-4,3.86-3.9a201.39,201.39,0,0,0,39.62-2.42c49.95-7.84,91.29-30.31,122.05-70.59,2.62-3.43,3.59-2.15,5.46.33a172.61,172.61,0,0,0,45.09,41.83c35.29,22.52,74.26,31.7,115.89,30.85,3.51-.07,4.46.73,4.39,4.26-.39,21.55-1.71,43-3.83,64.46-.46,4.71,1.21,7.65,5.68,9.12Zm-16.8-65.12c0-.07,0-1.4,0-2.73.23-7.13-2-9.64-9.23-10.45-6.81-.76-13.64-1.37-20.4-2.42-44.25-6.89-82.85-25-114.62-56.71-5.64-5.61-8.11-5.76-13.83-.38-12.12,11.4-24.72,22.17-39.18,30.67-29.93,17.59-62.53,26.3-97,28.95-5.85.45-8.64,3.59-8.27,9.51.49,8,1.19,15.88,1.82,23.82,2.51,31.34,6.49,62.45,14.38,93C159,331.17,175.12,370.6,200.25,406c20.52,28.87,45.87,52.64,78,68.8a10.35,10.35,0,0,0,10.13,0A195.88,195.88,0,0,0,328.17,448c31.5-27.05,53.2-60.91,69.58-98.41C421.72,294.65,431.21,236.7,434.51,176.2Z"/><path class="cls-5" d="M253,363.55c-1.34-.85-1.65-2.1-1.64-3.65,0-15.38,0-30.77.05-46.15,0-1.28-.29-1.64-1.58-1.62-5,.09-9.92,0-14.88,0-2.29,0-2.82-.4-3.53-2.58.42-1.89,1.62-2.5,3.47-2.47,6,.07,11.9,0,17.84,0,3,0,3.61.64,3.62,3.7,0,15.23,0,30.47,0,45.71,0,1.56.31,2,1.94,2q26.18-.1,52.37,0c1.66,0,1.93-.52,1.92-2-.05-15.24,0-30.48,0-45.72,0-3.05.61-3.68,3.62-3.68,15.06,0,30.12,0,45.18.05,1.73,0,2-.52,2-2.12q-.07-26.42,0-52.84c0-1.66-.48-2-2-2-15.16.06-30.33,0-45.5,0-2.58,0-3.31-.74-3.31-3.33q0-12.76,0-25.51c0-2,.48-2.59,2.43-3.12,2,.49,2.53,1.16,2.53,3.21,0,7.35,0,14.69,0,22,0,1.33.23,1.74,1.65,1.73,15.16-.06,30.33,0,45.5,0,2.95,0,3.65.71,3.65,3.7v59.46c0,3-.71,3.72-3.64,3.72-15.17,0-30.34,0-45.5,0-1.4,0-1.67.37-1.66,1.72.05,15.35,0,30.7.06,46,0,1.55-.31,2.8-1.64,3.66Z"/><path class="cls-5" d="M228.2,309.61c-.48,2-1.16,2.55-3.16,2.55-7,0-14,0-21,0a3.7,3.7,0,0,1-3.44-1.67V246.92a3.76,3.76,0,0,1,3.61-1.66c15.17,0,30.34,0,45.51.06,1.34,0,1.69-.29,1.69-1.69-.06-15.35,0-30.7,0-46,0-3,.72-3.68,3.68-3.68h58.77c2.94,0,3.64.72,3.64,3.72,0,4.69,0,9.39,0,14.08,0,2.19-.42,2.73-2.54,3.42-1.78-.39-2.48-1.49-2.45-3.33.08-3.7-.05-7.4.06-11.1.05-1.48-.38-1.81-1.81-1.81q-26.25.08-52.52,0c-1.46,0-1.91.33-1.9,1.89.06,15.23,0,30.46,0,45.7,0,3.28-.56,3.84-3.8,3.84-15,0-30.11,0-45.16,0-1.33,0-1.87.19-1.86,1.76q.09,26.73,0,53.48c0,1.31.33,1.67,1.63,1.65,6-.07,12,0,18,0C227.12,307.15,227.67,307.62,228.2,309.61Z"/><path class="cls-6" d="M228.2,309.61c-.53-2-1.08-2.46-3.07-2.46-6,0-12,0-18,0-1.3,0-1.64-.34-1.63-1.65q.06-26.75,0-53.48c0-1.57.53-1.76,1.86-1.76,15.05.05,30.11,0,45.16,0,3.24,0,3.8-.56,3.8-3.84,0-15.24,0-30.47,0-45.7,0-1.56.44-1.89,1.9-1.89q26.26.08,52.52,0c1.43,0,1.86.33,1.81,1.81-.11,3.7,0,7.4-.06,11.1,0,1.84.67,2.94,2.45,3.33,0,1.08,0,2.16,0,3.23-1.95.53-2.42,1.11-2.43,3.12q0,12.75,0,25.51c0,2.59.73,3.33,3.31,3.33,15.17,0,30.34,0,45.5,0,1.53,0,2,.3,2,2q-.1,26.41,0,52.84c0,1.6-.28,2.13-2,2.12-15.06-.08-30.12-.05-45.18-.05-3,0-3.62.63-3.62,3.68,0,15.24,0,30.48,0,45.72,0,1.52-.26,2-1.92,2q-26.19-.1-52.37,0c-1.63,0-1.95-.47-1.94-2,.06-15.24,0-30.48,0-45.71,0-3.06-.62-3.69-3.62-3.7-5.94,0-11.89.05-17.84,0-1.85,0-3,.58-3.47,2.47Z"/></g></svg>