<svg id="Capa_1" data-name="Capa 1" xmlns="http://www.w3.org/2000/svg" viewBox="0 0 564.49 730.21"><defs><style>.cls-1{fill:#1042e2;stroke:#1d1d1b;stroke-miterlimit:10;stroke-width:2px;}.cls-2{fill:#fefefe;}</style></defs><path class="cls-1" d="M274.84,730.21c-14.45-7.91-17.19-23.27-23.08-36.34-22.67-50.27-44.79-100.79-67-151.27-1.5-3.42-3.86-5-7.14-6.33-56-22-100.07-58.42-132.79-108-17.1-25.92-29.85-54-36.29-84.5l44-.18a27.48,27.48,0,0,1,1.11,2.56c54,170.12,268.22,223.68,396.24,99.05,26.32-25.63,45.11-56,57.91-90.08h44.69c-7.91,27.07-19.26,52.47-35.43,75.89-9.1,13.16-18.36,26.11-29.72,37.37-29.6,29.32-63.06,53.15-102.51,68.08-2.69,1-3.89,2.67-5,5.2-13.25,30.27-26.18,60.69-40.22,90.61-12.15,25.89-22.8,52.4-34.46,78.48-3.79,8.48-8.32,15.75-17.29,19.47Zm52.83-177.67c-30.95,4.94-60.41,4.69-91.14.16,15.35,34.57,30.16,67.92,45.53,102.55Z"/><path class="cls-1" d="M52.53,343.58l-44,.18c-7.72-26.51-9.64-53.68-8-81C3.73,209.15,20.72,160,52.93,116.56,100.73,52.06,164.82,13.81,245.23,2.5c3.6-.51,7.69.3,10.81-2.5H305.2c10.53,1.81,21.17,3.11,31.56,5.5,116,26.66,189.65,97,219.81,210.5,12,45.19,9.78,90.83-2.68,135.92a22,22,0,0,1-1.41,3.19H507.79c.42-1.59.75-3.2,1.26-4.77A232.63,232.63,0,0,0,519,250.5C507.51,152.9,433.69,70.75,336.3,49.05c-69.08-15.4-133.56-3.48-191.78,37.09-30,20.88-54.42,46.74-71.86,79A238.66,238.66,0,0,0,43.55,274.62C43,298.06,47,320.91,52.53,343.58Z"/><path class="cls-2" d="M52.53,343.58c-5.55-22.67-9.54-45.52-9-69A238.66,238.66,0,0,1,72.66,165.13c17.44-32.25,41.9-58.11,71.86-79,58.22-40.57,122.7-52.49,191.78-37.09C433.69,70.75,507.51,152.9,519,250.5a232.63,232.63,0,0,1-9.94,99.84c-.51,1.57-.84,3.18-1.26,4.77-12.8,34.1-31.59,64.45-57.91,90.08-128,124.63-342.22,71.07-396.24-99.05A27.48,27.48,0,0,0,52.53,343.58ZM159.4,362.24c-.07,5.7-.47,11.42-.1,17.09.31,4.73-1.33,5.87-6,5.89-13.62,0-23,9.07-23,21.31s9.79,21.21,23.16,21.3c14.69.09,29.38,0,44.08,0q105.85,0,211.71,0c7.36,0,13.92-1.58,18.86-7.13,5.89-6.62,7.65-14.3,4-22.5-3.86-8.62-10.9-13.35-20.49-13-5.38.17-7.14-1.19-6.77-6.63.48-6.84,0-13.76-.08-20.65V245.75c3.44,2.58,5.49,4.12,7.54,5.64,10.61,7.86,23.38,6.86,31.07-2.44,7.91-9.56,6.44-22.72-4-31q-71-56.24-142.2-112.22c-10.36-8.16-19.92-8.09-30.21,0Q195.8,161.84,124.77,218c-10.17,8.05-11.87,20.69-4.43,30.37s20.37,11,31,3.47c2.39-1.69,4.18-4.49,8.09-4.8Z"/><path class="cls-1" d="M159.4,362.24V247.07c-3.91.31-5.7,3.11-8.09,4.8-10.6,7.48-23.63,6.07-31-3.47s-5.74-22.32,4.43-30.37q71-56.21,142.19-112.25c10.29-8.1,19.85-8.17,30.21,0q71.19,56,142.2,112.22c10.41,8.24,11.88,21.4,4,31-7.69,9.3-20.46,10.3-31.07,2.44-2-1.52-4.1-3.06-7.54-5.64V358H361.82c-.08-2.6-.24-5.21-.24-7.81q0-66.22,0-132.46c0-3.27.26-6.24-3-8.81-24.47-19.08-48.78-38.37-73.08-57.65-2.18-1.72-3.87-2.2-6.3-.32-8.71,6.73-17.88,12.92-26.32,20-13.81,11.53-27.41,23.27-42.37,33.39-5.4,3.65-8.24,8.16-8.18,15.57.4,47.47.09,94.94,0,142.41Z"/><path class="cls-1" d="M159.4,362.24h42.92c.07,5.93.4,11.87.12,17.78-.19,4.07,1.17,5.21,5.25,5.16q23.81-.33,47.62,0c4.2.06,5.24-1.28,5.18-5.24-.22-14.23-.13-28.46-.07-42.7.06-13.8,9-23.44,21.65-23.43s21.58,9.63,21.64,23.44q.1,21.35,0,42.7c0,3.16.05,5.29,4.41,5.23,16.35-.23,32.71-.17,49.06,0,3.44,0,4.58-1,4.51-4.42-.16-7.59.07-15.18.14-22.77h42.91c.07,6.88.56,13.8.08,20.64-.37,5.44,1.39,6.8,6.77,6.63,9.59-.32,16.63,4.41,20.49,13,3.67,8.2,1.91,15.88-4,22.5-4.94,5.55-11.5,7.14-18.86,7.13q-105.86-.13-211.71,0c-14.7,0-29.39.07-44.08,0-13.37-.09-23.11-9.13-23.16-21.3s9.39-21.26,23-21.31c4.68,0,6.32-1.16,6-5.89C158.93,373.66,159.33,367.94,159.4,362.24Z"/><path class="cls-1" d="M282.1,271c-5.05,0-10.1.18-15.14-.05-11.8-.53-20.92-9.79-21-21.13-.13-11.64,9.16-21.22,21.31-21.55q14.77-.41,29.57,0c12.17.32,21.48,9.85,21.4,21.48S308.8,270.57,296.52,271C291.72,271.11,286.91,271,282.1,271Z"/><path class="cls-2" d="M361.83,357.27c-.07,7.58-.31,15.18-.15,22.76.08,3.42-1.06,4.46-4.5,4.43-16.36-.15-32.71-.21-49.06,0-4.36.06-4.43-2.06-4.41-5.23q.14-21.35,0-42.7c-.06-13.8-9-23.44-21.65-23.44s-21.58,9.64-21.64,23.43c-.06,14.24-.15,28.48.06,42.71.06,3.95-1,5.3-5.17,5.24q-23.81-.36-47.62,0c-4.09.06-5.45-1.08-5.25-5.16.28-5.91,0-11.85-.12-17.78.08-47.47.39-94.94,0-142.41-.06-7.41,2.78-11.91,8.18-15.57,14.95-10.12,28.56-21.86,42.37-33.38,8.44-7.05,17.61-13.24,26.32-20,2.43-1.88,4.12-1.4,6.29.32q36.47,28.93,73.08,57.65c3.3,2.57,3,5.54,3,8.81q0,66.24,0,132.46C361.59,352.06,361.74,354.66,361.83,357.27Zm-79.72-87c4.81,0,9.62.12,14.42,0,12.27-.39,21.6-9.59,21.69-21.23s-9.23-21.17-21.4-21.48q-14.77-.39-29.57,0c-12.16.33-21.44,9.91-21.32,21.55.12,11.34,9.24,20.61,21,21.13C272,270.46,277.06,270.27,282.11,270.29Z"/></svg>