<svg xmlns="http://www.w3.org/2000/svg" viewBox="0 0 566.49 732.21"><defs><style>.cls-1{fill:#0f2fb5;stroke:#1d1d1b;stroke-miterlimit:10;stroke-width:2px;}.cls-2{fill:#fefefe;}.cls-3{fill:#030302;}.cls-4{fill:#e7951a;}.cls-5{fill:#020202;}.cls-6{fill:#ed5858;}</style></defs><g id="Capa_5" data-name="Capa 5"><path class="cls-1" d="M275.84,731.21c-14.45-7.91-17.19-23.27-23.08-36.34-22.67-50.27-44.79-100.79-67-151.27-1.5-3.42-3.86-5-7.14-6.33-56-22-100.07-58.42-132.79-108-17.1-25.92-29.85-54-36.29-84.5l44-.18a27.48,27.48,0,0,1,1.11,2.56c54,170.12,268.22,223.68,396.24,99.05,26.32-25.63,45.11-56,57.91-90.08h44.69c-7.91,27.07-19.26,52.47-35.43,75.89-9.1,13.16-18.36,26.11-29.72,37.37-29.6,29.32-63.06,53.15-102.51,68.08-2.69,1-3.89,2.67-5,5.2-13.25,30.27-26.18,60.69-40.22,90.61-12.15,25.89-22.8,52.4-34.46,78.48-3.79,8.48-8.32,15.75-17.29,19.47Zm52.83-177.67c-30.95,4.94-60.41,4.69-91.14.16,15.35,34.57,30.16,67.92,45.53,102.55Z"/><path class="cls-1" d="M53.53,344.58l-44,.18c-7.72-26.51-9.64-53.68-8-81C4.73,210.15,21.72,161,53.93,117.56,101.73,53.06,165.82,14.81,246.23,3.5c3.6-.51,7.69.3,10.81-2.5H306.2c10.53,1.81,21.17,3.11,31.56,5.5,116,26.66,189.65,97,219.81,210.5,12,45.19,9.78,90.83-2.68,135.92a22,22,0,0,1-1.41,3.19H508.79c.42-1.59.75-3.2,1.26-4.77A232.63,232.63,0,0,0,520,251.5C508.51,153.9,434.69,71.75,337.3,50.05c-69.08-15.4-133.56-3.48-191.78,37.09-30,20.88-54.42,46.74-71.86,79A238.66,238.66,0,0,0,44.55,275.62C44,299.06,48,321.91,53.53,344.58Z"/><path class="cls-2" d="M53.53,344.58c-5.55-22.67-9.54-45.52-9-69A238.66,238.66,0,0,1,73.66,166.13c17.44-32.25,41.9-58.11,71.86-79,58.22-40.57,122.7-52.49,191.78-37.09C434.69,71.75,508.51,153.9,520,251.5a232.63,232.63,0,0,1-9.94,99.84c-.51,1.57-.84,3.18-1.26,4.77-12.8,34.1-31.59,64.45-57.91,90.08-128,124.63-342.22,71.07-396.24-99.05A27.48,27.48,0,0,0,53.53,344.58ZM160.4,363.24c-.07,5.7-.47,11.42-.1,17.09.31,4.73-1.33,5.87-6,5.89-13.62,0-23,9.07-23,21.31s9.79,21.21,23.16,21.3c14.69.09,29.38,0,44.08,0q105.85,0,211.71,0c7.36,0,13.92-1.58,18.86-7.13,5.89-6.62,7.65-14.3,4-22.5-3.86-8.62-10.9-13.35-20.49-13-5.38.17-7.14-1.19-6.77-6.63.48-6.84,0-13.76-.08-20.65V246.75c3.44,2.58,5.49,4.12,7.54,5.64,10.61,7.86,23.38,6.86,31.07-2.44,7.91-9.56,6.44-22.72-4-31q-71-56.24-142.2-112.22c-10.36-8.16-19.92-8.09-30.21,0Q196.8,162.84,125.77,219c-10.17,8.05-11.87,20.69-4.43,30.37s20.37,11,31,3.47c2.39-1.69,4.18-4.49,8.09-4.8Z"/><path class="cls-1" d="M160.4,363.24V248.07c-3.91.31-5.7,3.11-8.09,4.8-10.6,7.48-23.63,6.07-31-3.47s-5.74-22.32,4.43-30.37q71-56.21,142.19-112.25c10.29-8.1,19.85-8.17,30.21,0q71.19,56,142.2,112.22c10.41,8.24,11.88,21.4,4,31-7.69,9.3-20.46,10.3-31.07,2.44-2-1.52-4.1-3.06-7.54-5.64V359H362.82c-.08-2.6-.24-5.21-.24-7.81q0-66.22,0-132.46c0-3.27.26-6.24-3-8.81-24.47-19.08-48.78-38.37-73.08-57.65-2.18-1.72-3.87-2.2-6.3-.32-8.71,6.73-17.88,12.92-26.32,20-13.81,11.53-27.41,23.27-42.37,33.39-5.4,3.65-8.24,8.16-8.18,15.57.4,47.47.09,94.94,0,142.41Z"/><path class="cls-1" d="M160.4,363.24h42.92c.07,5.93.4,11.87.12,17.78-.19,4.07,1.17,5.21,5.25,5.16q23.81-.33,47.62,0c4.2.06,5.24-1.28,5.18-5.24-.22-14.23-.13-28.46-.07-42.7.06-13.8,9-23.44,21.65-23.43s21.58,9.63,21.64,23.44q.1,21.35,0,42.7c0,3.16.05,5.29,4.41,5.23,16.35-.23,32.71-.17,49.06,0,3.44,0,4.58-1,4.51-4.42-.16-7.59.07-15.18.14-22.77h42.91c.07,6.88.56,13.8.08,20.64-.37,5.44,1.39,6.8,6.77,6.63,9.59-.32,16.63,4.41,20.49,13,3.67,8.2,1.91,15.88-4,22.5-4.94,5.55-11.5,7.14-18.86,7.13q-105.86-.13-211.71,0c-14.7,0-29.39.07-44.08,0-13.37-.09-23.11-9.13-23.16-21.3s9.39-21.26,23-21.31c4.68,0,6.32-1.16,6-5.89C159.93,374.66,160.33,368.94,160.4,363.24Z"/><path class="cls-1" d="M283.1,272c-5.05,0-10.1.18-15.14-.05-11.8-.53-20.92-9.79-21-21.13-.13-11.64,9.16-21.22,21.31-21.55q14.77-.41,29.57,0c12.17.32,21.48,9.85,21.4,21.48S309.8,271.57,297.52,272C292.72,272.11,287.91,272,283.1,272Z"/><path class="cls-2" d="M362.83,358.27c-.07,7.58-.31,15.18-.15,22.76.08,3.42-1.06,4.46-4.5,4.43-16.36-.15-32.71-.21-49.06,0-4.36.06-4.43-2.06-4.41-5.23q.14-21.35,0-42.7c-.06-13.8-9-23.44-21.65-23.44s-21.58,9.64-21.64,23.43c-.06,14.24-.15,28.48.06,42.71.06,3.95-1,5.3-5.17,5.24q-23.81-.36-47.62,0c-4.09.06-5.45-1.08-5.25-5.16.28-5.91,0-11.85-.12-17.78.08-47.47.39-94.94,0-142.41-.06-7.41,2.78-11.91,8.18-15.57,14.95-10.12,28.56-21.86,42.37-33.38,8.44-7.05,17.61-13.24,26.32-20,2.43-1.88,4.12-1.4,6.29.32q36.47,28.93,73.08,57.65c3.3,2.57,3,5.54,3,8.81q0,66.24,0,132.46C362.59,353.06,362.74,355.66,362.83,358.27Zm-79.72-87c4.81,0,9.62.12,14.42,0,12.27-.39,21.6-9.59,21.69-21.23s-9.23-21.17-21.4-21.48q-14.77-.39-29.57,0c-12.16.33-21.44,9.91-21.32,21.55.12,11.34,9.24,20.61,21,21.13C273,271.46,278.06,271.27,283.11,271.29Z"/><path class="cls-3" d="M481.05,342.09c2.32,1.24,2.51,1.68,2,5A197.62,197.62,0,0,1,468.59,396c-7.68,17.14-18,32.31-32.31,44.67a84.2,84.2,0,0,1-25,15.49c-.23.09-.5.1-.55.41h-2.29c-3.77-1.84-7.65-3.45-11.28-5.6C381,441.4,368.78,428,359,412.26a159.76,159.76,0,0,1-10-19.95c-1-2.24-.79-2.95,1.14-4.56,2.08-.42,3.34.44,4.12,2.4a154.46,154.46,0,0,0,7.63,15.69,107.68,107.68,0,0,0,12.74,18.41c9.25,10.92,20,19.94,33.18,25.78a4.18,4.18,0,0,0,3.62,0,80.2,80.2,0,0,0,17.07-10.22c15.42-12,26.33-27.36,34.43-45,7.27-15.81,11.84-32.41,14.73-49.52C478,342.91,478.56,342.43,481.05,342.09Z"/><path class="cls-3" d="M473.9,314.11c-1.4,26-5.43,50.89-15.63,74.48-7,16.11-16.2,30.66-29.6,42.28a83.7,83.7,0,0,1-16.93,11.51,4.36,4.36,0,0,1-4.31,0c-13.66-6.94-24.44-17.15-33.17-29.56-10.69-15.19-17.56-32.13-22.14-50.06-3.36-13.11-5.05-26.48-6.12-39.94-.27-3.42-.56-6.83-.77-10.24-.16-2.54,1-3.89,3.51-4.09,14.66-1.14,28.53-4.88,41.26-12.44a94.65,94.65,0,0,0,16.67-13.17c2.43-2.31,3.48-2.25,5.88.16,13.51,13.6,29.93,21.41,48.75,24.37,2.88.45,5.78.71,8.68,1,3.07.34,4,1.42,3.93,4.49C473.89,313.51,473.9,314.08,473.9,314.11Zm-122.77,2.5a263.12,263.12,0,0,0,3.67,31.53c3.68,20.35,10.25,39.65,21.33,57.2,8.1,12.83,18.48,23.45,31.88,30.88a2.62,2.62,0,0,0,3,0c2-1.28,4.16-2.42,6.14-3.78,12.46-8.55,21.87-19.8,29.25-32.91,14.66-26.08,19.87-54.56,21.7-83.93.05-.81,0-1.23-1-1.34a94.09,94.09,0,0,1-26.17-6.17c-11.14-4.57-21.34-10.46-30.06-18.78-1.06-1-1.56-.88-2.53.06-9.54,9.28-21,15.37-33.32,20.1A79.65,79.65,0,0,1,355.2,314C351,314.44,351,314.43,351.13,316.61Z"/><path class="cls-2" d="M351.13,316.61c-.17-2.18-.16-2.17,4.07-2.66A79.65,79.65,0,0,0,375,309.51c12.27-4.73,23.78-10.82,33.32-20.1,1-.94,1.47-1.07,2.53-.06,8.72,8.32,18.92,14.21,30.06,18.78A94.09,94.09,0,0,0,467,314.3c1,.11,1.09.53,1,1.34-1.83,29.37-7,57.85-21.7,83.93-7.38,13.11-16.79,24.36-29.25,32.91-2,1.36-4.1,2.5-6.14,3.78a2.62,2.62,0,0,1-3,0c-13.4-7.43-23.78-18.05-31.88-30.88-11.08-17.55-17.65-36.85-21.33-57.2A263.12,263.12,0,0,1,351.13,316.61Z"/><path class="cls-3" d="M481.89,335.13c-1.9-.64-2.61-1.9-2.41-3.92.9-9.21,1.46-18.44,1.63-27.7,0-1.52-.38-1.86-1.87-1.83C461.53,302,445,298.1,430,288.43a73.61,73.61,0,0,1-19.18-18c-.8-1.06-1.21-1.61-2.33-.14-13.08,17.31-30.67,27-51.91,30.33a85,85,0,0,1-16.85,1c-1.38-.06-1.67.36-1.64,1.67.4,24.95,3.3,49.51,11.06,73.34.75,2.3.45,3.09-1.54,4.47-2.42.06-3.08-.41-3.85-2.74a219,219,0,0,1-9.15-41.81,303.83,303.83,0,0,1-2.23-37.17c0-3,1.17-3.83,4.11-3.68,28.82,1.51,52.68-7.86,69.76-32l.53-.79c1.83-2.68,3.84-2.71,5.64,0a76.15,76.15,0,0,0,8.54,10.66c12.12,12.48,27,19.29,44.1,21.67a77.41,77.41,0,0,0,18.38.44,2.87,2.87,0,0,1,3.4,3.12,322.45,322.45,0,0,1-1.63,33A3.26,3.26,0,0,1,481.89,335.13Z"/><path class="cls-4" d="M481.05,342.09c-2.49.34-3,.82-3.44,3.24-2.89,17.11-7.46,33.71-14.73,49.52-8.1,17.6-19,33-34.43,45A80.2,80.2,0,0,1,411.38,450a4.18,4.18,0,0,1-3.62,0c-13.2-5.84-23.93-14.86-33.18-25.78a107.68,107.68,0,0,1-12.74-18.41,154.46,154.46,0,0,1-7.63-15.69c-.78-2-2-2.82-4.12-2.4q-1.27-3.3-2.53-6.59c2-1.38,2.29-2.17,1.54-4.47-7.76-23.83-10.66-48.39-11.06-73.34,0-1.31.26-1.73,1.64-1.67a85,85,0,0,0,16.85-1c21.24-3.37,38.83-13,51.91-30.33,1.12-1.47,1.53-.92,2.33.14a73.61,73.61,0,0,0,19.18,18c15,9.67,31.58,13.61,49.29,13.25,1.49,0,1.89.31,1.87,1.83-.17,9.26-.73,18.49-1.63,27.7-.2,2,.51,3.28,2.41,3.92Zm-7.15-28s0-.6,0-1.17c.09-3.07-.86-4.15-3.93-4.49-2.9-.33-5.8-.59-8.68-1-18.82-3-35.24-10.77-48.75-24.37-2.4-2.41-3.45-2.47-5.88-.16A94.65,94.65,0,0,1,390,296.05c-12.73,7.56-26.6,11.3-41.26,12.44-2.48.2-3.67,1.55-3.51,4.09.21,3.41.5,6.82.77,10.24,1.07,13.46,2.76,26.83,6.12,39.94,4.58,17.93,11.45,34.87,22.14,50.06,8.73,12.41,19.51,22.62,33.17,29.56a4.36,4.36,0,0,0,4.31,0,83.7,83.7,0,0,0,16.93-11.51c13.4-11.62,22.63-26.17,29.6-42.28C468.47,365,472.5,340.1,473.9,314.11Z"/><path class="cls-5" d="M396.68,394.6A1.64,1.64,0,0,1,396,393c0-6.61,0-13.22,0-19.83,0-.55-.13-.71-.68-.7-2.1,0-4.21,0-6.32,0-1,0-1.2-.17-1.51-1.11a1.27,1.27,0,0,1,1.48-1.06c2.53,0,5.06,0,7.59,0,1.27,0,1.54.27,1.54,1.59,0,6.54,0,13.09,0,19.64,0,.67.13.87.82.87q11.14,0,22.28,0c.71,0,.82-.22.82-.88,0-6.54,0-13.09,0-19.64,0-1.31.27-1.58,1.55-1.58,6.4,0,12.81,0,19.21,0,.74,0,.86-.22.86-.91q0-11.36,0-22.7c0-.72-.2-.85-.85-.84-6.45,0-12.9,0-19.36,0-1.09,0-1.4-.32-1.4-1.43,0-3.65,0-7.31,0-11,0-.87.2-1.11,1-1.34.84.21,1.07.5,1.07,1.38,0,3.16,0,6.31,0,9.47,0,.57.1.74.7.74,6.45,0,12.9,0,19.36,0,1.25,0,1.55.31,1.55,1.59v25.55c0,1.29-.3,1.6-1.55,1.6-6.45,0-12.9,0-19.35,0-.6,0-.71.16-.71.74,0,6.6,0,13.19,0,19.78a1.64,1.64,0,0,1-.7,1.57Z"/><path class="cls-5" d="M386.15,371.43c-.2.85-.49,1.1-1.34,1.1-3,0-6,0-8.95,0a1.55,1.55,0,0,1-1.46-.71V344.49a1.6,1.6,0,0,1,1.54-.71c6.45,0,12.9,0,19.35,0,.57,0,.72-.13.72-.73q0-9.88,0-19.79c0-1.27.31-1.57,1.57-1.57h25c1.25,0,1.55.3,1.55,1.59q0,3,0,6.05c0,.94-.17,1.18-1.08,1.47a1.25,1.25,0,0,1-1-1.43c0-1.59,0-3.18,0-4.77,0-.64-.16-.78-.77-.78q-11.17,0-22.34,0c-.62,0-.81.15-.81.81,0,6.55,0,13.1,0,19.64,0,1.41-.24,1.65-1.62,1.65-6.4,0-12.8,0-19.21,0-.56,0-.79.08-.79.75q0,11.49,0,23c0,.56.15.72.7.71,2.55,0,5.1,0,7.65,0C385.69,370.37,385.93,370.58,386.15,371.43Z"/><path class="cls-6" d="M386.15,371.43c-.22-.85-.46-1.06-1.31-1.06-2.55,0-5.1,0-7.65,0-.55,0-.7-.15-.7-.71q0-11.49,0-23c0-.67.23-.75.79-.75,6.41,0,12.81,0,19.21,0,1.38,0,1.62-.24,1.62-1.65,0-6.54,0-13.09,0-19.64,0-.66.19-.81.81-.81q11.18,0,22.34,0c.61,0,.79.14.77.78-.05,1.59,0,3.18,0,4.77a1.25,1.25,0,0,0,1,1.43c0,.47,0,.93,0,1.39-.83.23-1,.47-1,1.34,0,3.65,0,7.31,0,11,0,1.11.31,1.43,1.4,1.43,6.46,0,12.91,0,19.36,0,.65,0,.85.12.85.84q0,11.34,0,22.7c0,.69-.12.91-.86.91-6.4,0-12.81,0-19.21,0-1.28,0-1.55.27-1.55,1.58,0,6.55,0,13.1,0,19.64,0,.66-.11.88-.82.88q-11.13,0-22.28,0c-.69,0-.82-.2-.82-.87,0-6.55,0-13.1,0-19.64,0-1.32-.27-1.59-1.54-1.59-2.53,0-5.06,0-7.59,0a1.27,1.27,0,0,0-1.48,1.06Z"/></g></svg>