<svg xmlns="http://www.w3.org/2000/svg" viewBox="0 0 566.49 732.21"><defs><style>.cls-1{fill:#0f2fb5;stroke:#1d1d1b;stroke-miterlimit:10;stroke-width:2px;}.cls-2{fill:#fefefe;}.cls-3{fill:#030302;}.cls-4{fill:#e7951a;}.cls-5{fill:#4187ba;}.cls-6{fill:#020203;}.cls-7{fill:#6f7c84;}.cls-8{fill:#fcba63;}</style></defs><g id="Capa_6" data-name="Capa 6"><path class="cls-1" d="M275.84,731.21c-14.45-7.91-17.19-23.27-23.08-36.34-22.67-50.27-44.79-100.79-67-151.27-1.5-3.42-3.86-5-7.14-6.33-56-22-100.07-58.42-132.79-108-17.1-25.92-29.85-54-36.29-84.5l44-.18a27.48,27.48,0,0,1,1.11,2.56c54,170.12,268.22,223.68,396.24,99.05,26.32-25.63,45.11-56,57.91-90.08h44.69c-7.91,27.07-19.26,52.47-35.43,75.89-9.1,13.16-18.36,26.11-29.72,37.37-29.6,29.32-63.06,53.15-102.51,68.08-2.69,1-3.89,2.67-5,5.2-13.25,30.27-26.18,60.69-40.22,90.61-12.15,25.89-22.8,52.4-34.46,78.48-3.79,8.48-8.32,15.75-17.29,19.47Zm52.83-177.67c-30.95,4.94-60.41,4.69-91.14.16,15.35,34.57,30.16,67.92,45.53,102.55Z"/><path class="cls-1" d="M53.53,344.58l-44,.18c-7.72-26.51-9.64-53.68-8-81C4.73,210.15,21.72,161,53.93,117.56,101.73,53.06,165.82,14.81,246.23,3.5c3.6-.51,7.69.3,10.81-2.5H306.2c10.53,1.81,21.17,3.11,31.56,5.5,116,26.66,189.65,97,219.81,210.5,12,45.19,9.78,90.83-2.68,135.92a22,22,0,0,1-1.41,3.19H508.79c.42-1.59.75-3.2,1.26-4.77A232.63,232.63,0,0,0,520,251.5C508.51,153.9,434.69,71.75,337.3,50.05c-69.08-15.4-133.56-3.48-191.78,37.09-30,20.88-54.42,46.74-71.86,79A238.66,238.66,0,0,0,44.55,275.62C44,299.06,48,321.91,53.53,344.58Z"/><path class="cls-2" d="M53.53,344.58c-5.55-22.67-9.54-45.52-9-69A238.66,238.66,0,0,1,73.66,166.13c17.44-32.25,41.9-58.11,71.86-79,58.22-40.57,122.7-52.49,191.78-37.09C434.69,71.75,508.51,153.9,520,251.5a232.63,232.63,0,0,1-9.94,99.84c-.51,1.57-.84,3.18-1.26,4.77-12.8,34.1-31.59,64.45-57.91,90.08-128,124.63-342.22,71.07-396.24-99.05A27.48,27.48,0,0,0,53.53,344.58ZM160.4,363.24c-.07,5.7-.47,11.42-.1,17.09.31,4.73-1.33,5.87-6,5.89-13.62,0-23,9.07-23,21.31s9.79,21.21,23.16,21.3c14.69.09,29.38,0,44.08,0q105.85,0,211.71,0c7.36,0,13.92-1.58,18.86-7.13,5.89-6.62,7.65-14.3,4-22.5-3.86-8.62-10.9-13.35-20.49-13-5.38.17-7.14-1.19-6.77-6.63.48-6.84,0-13.76-.08-20.65V246.75c3.44,2.58,5.49,4.12,7.54,5.64,10.61,7.86,23.38,6.86,31.07-2.44,7.91-9.56,6.44-22.72-4-31q-71-56.24-142.2-112.22c-10.36-8.16-19.92-8.09-30.21,0Q196.8,162.84,125.77,219c-10.17,8.05-11.87,20.69-4.43,30.37s20.37,11,31,3.47c2.39-1.69,4.18-4.49,8.09-4.8Z"/><path class="cls-1" d="M160.4,363.24V248.07c-3.91.31-5.7,3.11-8.09,4.8-10.6,7.48-23.63,6.07-31-3.47s-5.74-22.32,4.43-30.37q71-56.21,142.19-112.25c10.29-8.1,19.85-8.17,30.21,0q71.19,56,142.2,112.22c10.41,8.24,11.88,21.4,4,31-7.69,9.3-20.46,10.3-31.07,2.44-2-1.52-4.1-3.06-7.54-5.64V359H362.82c-.08-2.6-.24-5.21-.24-7.81q0-66.22,0-132.46c0-3.27.26-6.24-3-8.81-24.47-19.08-48.78-38.37-73.08-57.65-2.18-1.72-3.87-2.2-6.3-.32-8.71,6.73-17.88,12.92-26.32,20-13.81,11.53-27.41,23.27-42.37,33.39-5.4,3.65-8.24,8.16-8.18,15.57.4,47.47.09,94.94,0,142.41Z"/><path class="cls-1" d="M160.4,363.24h42.92c.07,5.93.4,11.87.12,17.78-.19,4.07,1.17,5.21,5.25,5.16q23.81-.33,47.62,0c4.2.06,5.24-1.28,5.18-5.24-.22-14.23-.13-28.46-.07-42.7.06-13.8,9-23.44,21.65-23.43s21.58,9.63,21.64,23.44q.1,21.35,0,42.7c0,3.16.05,5.29,4.41,5.23,16.35-.23,32.71-.17,49.06,0,3.44,0,4.58-1,4.51-4.42-.16-7.59.07-15.18.14-22.77h42.91c.07,6.88.56,13.8.08,20.64-.37,5.44,1.39,6.8,6.77,6.63,9.59-.32,16.63,4.41,20.49,13,3.67,8.2,1.91,15.88-4,22.5-4.94,5.55-11.5,7.14-18.86,7.13q-105.86-.13-211.71,0c-14.7,0-29.39.07-44.08,0-13.37-.09-23.11-9.13-23.16-21.3s9.39-21.26,23-21.31c4.68,0,6.32-1.16,6-5.89C159.93,374.66,160.33,368.94,160.4,363.24Z"/><path class="cls-1" d="M283.1,272c-5.05,0-10.1.18-15.14-.05-11.8-.53-20.92-9.79-21-21.13-.13-11.64,9.16-21.22,21.31-21.55q14.77-.41,29.57,0c12.17.32,21.48,9.85,21.4,21.48S309.8,271.57,297.52,272C292.72,272.11,287.91,272,283.1,272Z"/><path class="cls-2" d="M362.83,358.27c-.07,7.58-.31,15.18-.15,22.76.08,3.42-1.06,4.46-4.5,4.43-16.36-.15-32.71-.21-49.06,0-4.36.06-4.43-2.06-4.41-5.23q.14-21.35,0-42.7c-.06-13.8-9-23.44-21.65-23.44s-21.58,9.64-21.64,23.43c-.06,14.24-.15,28.48.06,42.71.06,3.95-1,5.3-5.17,5.24q-23.81-.36-47.62,0c-4.09.06-5.45-1.08-5.25-5.16.28-5.91,0-11.85-.12-17.78.08-47.47.39-94.94,0-142.41-.06-7.41,2.78-11.91,8.18-15.57,14.95-10.12,28.56-21.86,42.37-33.38,8.44-7.05,17.61-13.24,26.32-20,2.43-1.88,4.12-1.4,6.29.32q36.47,28.93,73.08,57.65c3.3,2.57,3,5.54,3,8.81q0,66.24,0,132.46C362.59,353.06,362.74,355.66,362.83,358.27Zm-79.72-87c4.81,0,9.62.12,14.42,0,12.27-.39,21.6-9.59,21.69-21.23s-9.23-21.17-21.4-21.48q-14.77-.39-29.57,0c-12.16.33-21.44,9.91-21.32,21.55.12,11.34,9.24,20.61,21,21.13C273,271.46,278.06,271.27,283.11,271.29Z"/><path class="cls-3" d="M467.43,346.37c2.32,1.24,2.52,1.68,2,5A197.24,197.24,0,0,1,455,400.27c-7.68,17.15-18.05,32.32-32.3,44.68a84.38,84.38,0,0,1-25,15.49c-.23.08-.5.1-.55.41h-2.28c-3.78-1.84-7.66-3.45-11.28-5.6-16.12-9.57-28.36-22.93-38.16-38.71a161.84,161.84,0,0,1-10-20c-1-2.24-.79-3,1.14-4.56,2.08-.42,3.34.44,4.12,2.39a153.44,153.44,0,0,0,7.63,15.69A107.76,107.76,0,0,0,361,428.53c9.26,10.91,20,19.94,33.19,25.78a4.12,4.12,0,0,0,3.61,0,80.06,80.06,0,0,0,17.08-10.21c15.42-12,26.32-27.37,34.42-45,7.28-15.82,11.84-32.41,14.73-49.52C464.4,347.18,464.94,346.7,467.43,346.37Z"/><path class="cls-3" d="M460.29,318.38c-1.4,26-5.44,50.9-15.64,74.48-7,16.11-16.2,30.66-29.59,42.29a83.59,83.59,0,0,1-16.94,11.5,4.33,4.33,0,0,1-4.31,0c-13.65-6.94-24.44-17.16-33.16-29.56C350,401.91,343.08,385,338.5,367a235.45,235.45,0,0,1-6.11-40c-.27-3.41-.57-6.82-.78-10.23-.16-2.55,1-3.9,3.52-4.09,14.66-1.14,28.52-4.88,41.25-12.44a94.7,94.7,0,0,0,16.67-13.18c2.43-2.31,3.48-2.24,5.88.17,13.51,13.6,29.93,21.4,48.76,24.36,2.87.46,5.78.72,8.67,1,3.07.35,4,1.43,3.93,4.49C460.27,317.78,460.29,318.35,460.29,318.38Zm-122.78,2.51a263.24,263.24,0,0,0,3.68,31.53c3.67,20.34,10.24,39.65,21.32,57.2,8.1,12.82,18.48,23.44,31.88,30.88a2.64,2.64,0,0,0,3,0c2-1.28,4.15-2.42,6.13-3.78,12.46-8.56,21.87-19.8,29.25-32.92,14.66-26.07,19.87-54.55,21.7-83.93.05-.8,0-1.22-1-1.33a94.61,94.61,0,0,1-26.17-6.17c-11.14-4.57-21.33-10.46-30.05-18.78-1.06-1-1.57-.89-2.54.06-9.54,9.27-21.05,15.37-33.31,20.09a79.84,79.84,0,0,1-19.77,4.45C337.35,318.72,337.35,318.7,337.51,320.89Z"/><path class="cls-2" d="M337.51,320.89c-.16-2.19-.16-2.17,4.07-2.66a79.84,79.84,0,0,0,19.77-4.45c12.26-4.72,23.77-10.82,33.31-20.09,1-.95,1.48-1.07,2.54-.06,8.72,8.32,18.91,14.21,30.05,18.78a94.61,94.61,0,0,0,26.17,6.17c1,.11,1.09.53,1,1.33-1.83,29.38-7,57.86-21.7,83.93C425.38,417,416,428.2,403.51,436.76c-2,1.36-4.1,2.5-6.13,3.78a2.64,2.64,0,0,1-3,0c-13.4-7.44-23.78-18.06-31.88-30.88-11.08-17.55-17.65-36.86-21.32-57.2A263.24,263.24,0,0,1,337.51,320.89Z"/><path class="cls-3" d="M468.28,339.4c-1.9-.63-2.62-1.89-2.42-3.92.9-9.21,1.46-18.44,1.63-27.69,0-1.52-.37-1.87-1.87-1.84-17.71.37-34.28-3.57-49.29-13.25a73.73,73.73,0,0,1-19.18-18c-.8-1.07-1.21-1.62-2.32-.14-13.09,17.3-30.67,27-51.92,30.33a85.63,85.63,0,0,1-16.85,1c-1.38-.06-1.66.36-1.64,1.67.4,24.94,3.3,49.5,11.07,73.34.75,2.3.44,3.09-1.55,4.46-2.42.06-3.08-.41-3.85-2.73A218.13,218.13,0,0,1,321,340.88a301.7,301.7,0,0,1-2.24-37.16c0-3,1.17-3.83,4.11-3.68,28.82,1.51,52.68-7.86,69.76-32l.53-.78c1.84-2.68,3.84-2.71,5.64,0a76.73,76.73,0,0,0,8.54,10.66c12.12,12.47,27,19.29,44.1,21.66a78,78,0,0,0,18.38.45,2.86,2.86,0,0,1,3.4,3.11,322.17,322.17,0,0,1-1.63,33A3.24,3.24,0,0,1,468.28,339.4Z"/><path class="cls-4" d="M467.43,346.37c-2.49.33-3,.81-3.44,3.24-2.89,17.11-7.45,33.7-14.73,49.52-8.1,17.59-19,33-34.42,45a80.06,80.06,0,0,1-17.08,10.21,4.12,4.12,0,0,1-3.61,0c-13.21-5.84-23.93-14.87-33.19-25.78a107.76,107.76,0,0,1-12.74-18.42,153.44,153.44,0,0,1-7.63-15.69c-.78-1.95-2-2.81-4.12-2.39l-2.53-6.6c2-1.37,2.3-2.16,1.55-4.46-7.77-23.84-10.67-48.4-11.07-73.34,0-1.31.26-1.73,1.64-1.67a85.63,85.63,0,0,0,16.85-1c21.25-3.37,38.83-13,51.92-30.33,1.11-1.48,1.52-.93,2.32.14a73.73,73.73,0,0,0,19.18,18c15,9.68,31.58,13.62,49.29,13.25,1.5,0,1.9.32,1.87,1.84-.17,9.25-.73,18.48-1.63,27.69-.2,2,.52,3.29,2.42,3.92C468,341.72,467.71,344,467.43,346.37Zm-7.14-28s0-.6,0-1.17c.09-3.06-.86-4.14-3.93-4.49-2.89-.32-5.8-.58-8.67-1-18.83-3-35.25-10.76-48.76-24.36-2.4-2.41-3.45-2.48-5.88-.17a94.7,94.7,0,0,1-16.67,13.18c-12.73,7.56-26.59,11.3-41.25,12.44-2.49.19-3.68,1.54-3.52,4.09.21,3.41.51,6.82.78,10.23a235.45,235.45,0,0,0,6.11,40C343.08,385,350,401.91,360.65,417.1c8.72,12.4,19.51,22.62,33.16,29.56a4.33,4.33,0,0,0,4.31,0,83.59,83.59,0,0,0,16.94-11.5c13.39-11.63,22.62-26.18,29.59-42.29C454.85,369.28,458.89,344.38,460.29,318.38Z"/><path class="cls-5" d="M365.38,348.78c1.09.33,1.52.13,2.08-1s1.08-2.12,1.6-3.19a1.61,1.61,0,0,1,.93-.88q12.84-4.91,25.68-9.87a1.48,1.48,0,0,1,1.15,0q12.81,4.94,25.61,9.84a1.7,1.7,0,0,1,.95.86q5.13,10.17,10.3,20.32a.78.78,0,0,1-.05,1q-5.31,6.77-10.6,13.56s-.08.05-.23.14v-6.88c0-.41.28-.36.5-.39a24.3,24.3,0,0,0,3.61-.61,1.51,1.51,0,0,0,1.23-1.75,1.37,1.37,0,0,0-1.74-1.19c-1,.17-2,.3-3,.5-.51.11-.67-.07-.63-.63s0-1,0-1.43a4.38,4.38,0,0,0-2.07-4.2,19.16,19.16,0,0,0-3.05-1.59,67.24,67.24,0,0,0,4.41-8,46.12,46.12,0,0,0,1.73-4.31c.34-1,.1-1.85-.61-2.2s-1.51,0-1.88,1.08a58.58,58.58,0,0,1-5.95,11.87,1,1,0,0,1-1.23.56,82.38,82.38,0,0,0-24.75-1.65,62.23,62.23,0,0,0-11.25,1.67c-.51.13-.75-.05-1-.48a56.58,56.58,0,0,1-6-11.94c-.27-.77-.69-1.26-1.48-1.21-.64,0-1,.47-1.19,1.11a2,2,0,0,0,.18,1.29,57.61,57.61,0,0,0,5.63,11.47c.15.24.29.48.45.75-.72.34-1.42.63-2.08,1-2,1.09-3.32,2.59-3,5.37.15,1.47,0,1.51-1.26,1.37-.79-.09-1.57-.26-2.35-.41a1.37,1.37,0,0,0-1.7,1.16,1.51,1.51,0,0,0,1.16,1.8,22.13,22.13,0,0,0,3.68.63c.29,0,.51.07.5.5,0,2.22,0,4.44,0,6.87l-4.29-5.49c-2.14-2.73-4.25-5.48-6.41-8.18a1,1,0,0,1-.08-1.3c1.94-3.79,3.86-7.59,5.79-11.4a1.67,1.67,0,0,0-.41-2.46Zm22.53,0c0,3.45,1.88,6.22,4.69,7a4.83,4.83,0,0,1,2.52,1.57c.74.87,1.46.88,2.19,0a5,5,0,0,1,2.52-1.59,6.37,6.37,0,0,0,4.51-5,8.14,8.14,0,0,0-.69-5.51,3.78,3.78,0,0,1,.35-4.15,1.6,1.6,0,0,0-.12-2.22c-.73-.86-1.48-1.71-2.23-2.54a1.23,1.23,0,0,0-2-.19,1.92,1.92,0,0,1-2.58,0,1.24,1.24,0,0,0-1.64-.05,2,2,0,0,1-2.78-.06,1.17,1.17,0,0,0-1.79.19c-.81.9-1.62,1.8-2.41,2.73a1.53,1.53,0,0,0-.08,2,3.93,3.93,0,0,1,.36,4.38A7.63,7.63,0,0,0,387.91,348.77Z"/><path class="cls-6" d="M365.38,348.78a1.83,1.83,0,0,1-.24-2.53c.67-1.32,1.34-2.63,2-4a2.09,2.09,0,0,1,1.17-1.11q13.62-5.22,27.22-10.46a1.92,1.92,0,0,1,1.47,0l27.14,10.43a2.25,2.25,0,0,1,1.21,1.2q5.61,11.08,11.23,22.15a1.81,1.81,0,0,1-.24,2.48q-6.55,8.4-13.12,16.78a3.86,3.86,0,0,0-.72,1.36,9.26,9.26,0,0,1-3.25,4.6,23.94,23.94,0,0,1-9.65,4.58,52,52,0,0,1-29.46-.85,20,20,0,0,1-7.66-4.37,8.69,8.69,0,0,1-2.65-4.34,2.13,2.13,0,0,0-.53-.87l-13.11-16.8c-.24-.3-.46-.64-.69-1v-1.07c.27-.13.32-.44.44-.68q3.19-6.25,6.36-12.53c.55-1.07.91-1.24,1.94-1a1.67,1.67,0,0,1,.41,2.46c-1.93,3.81-3.85,7.61-5.79,11.4a1,1,0,0,0,.08,1.3c2.16,2.7,4.27,5.45,6.41,8.18l4.29,5.49c0-2.43,0-4.65,0-6.87,0-.43-.21-.46-.5-.5a22.13,22.13,0,0,1-3.68-.63,1.51,1.51,0,0,1-1.16-1.8,1.37,1.37,0,0,1,1.7-1.16c.78.15,1.56.32,2.35.41,1.29.14,1.41.1,1.26-1.37-.29-2.78,1.06-4.28,3-5.37.66-.37,1.36-.66,2.08-1-.16-.27-.3-.51-.45-.75a57.61,57.61,0,0,1-5.63-11.47,2,2,0,0,1-.18-1.29c.2-.64.55-1.08,1.19-1.11.79-.05,1.21.44,1.48,1.21a56.58,56.58,0,0,0,6,11.94c.28.43.52.61,1,.48a62.23,62.23,0,0,1,11.25-1.67,82.38,82.38,0,0,1,24.75,1.65,1,1,0,0,0,1.23-.56A58.58,58.58,0,0,0,421.34,348c.37-1.05,1.11-1.45,1.88-1.08s.95,1.18.61,2.2a46.12,46.12,0,0,1-1.73,4.31,67.24,67.24,0,0,1-4.41,8,19.16,19.16,0,0,1,3.05,1.59,4.38,4.38,0,0,1,2.07,4.2c-.05.47,0,.95,0,1.43s.12.74.63.63c1-.2,2-.33,3-.5a1.37,1.37,0,0,1,1.74,1.19,1.51,1.51,0,0,1-1.23,1.75,24.3,24.3,0,0,1-3.61.61c-.22,0-.5,0-.5.39v6.88c.15-.09.2-.1.23-.14q5.3-6.78,10.6-13.56a.78.78,0,0,0,.05-1q-5.16-10.14-10.3-20.32a1.7,1.7,0,0,0-.95-.86q-12.81-4.9-25.61-9.84a1.48,1.48,0,0,0-1.15,0q-12.84,5-25.68,9.87a1.61,1.61,0,0,0-.93.88c-.52,1.07-1.06,2.13-1.6,3.19S366.47,349.11,365.38,348.78Zm16.68,24.36a6,6,0,0,0-2.18.34,19.72,19.72,0,0,0-6.53,2.36c-1.06.68-1.15,1-.9,2.44A25.54,25.54,0,0,1,378,376.2c1.38-.38,2.8-.5,4.16-1,2-.24,4.1-.54,6.16-.7a93.6,93.6,0,0,1,17.07.13c5,.52,10,1.25,14.61,3.52a1.93,1.93,0,0,0-1.19-2.49c-.38-.2-.76-.41-1.15-.59a29.31,29.31,0,0,0-4.87-1.55c-1.12-.3-1.39-.67-1.4-2,.69-1.14.94-1.27,2.18-1,.88.21,1.76.46,2.63.71a23.06,23.06,0,0,1,3.91,1.61c0-1.82-.09-3.53,0-5.21a2.33,2.33,0,0,0-1.37-2.49,21,21,0,0,0-5.43-2,70.69,70.69,0,0,0-14-1.68,79.41,79.41,0,0,0-19.38,1.52,22.6,22.6,0,0,0-6.21,2.12,2.22,2.22,0,0,0-1.36,2.49,11.74,11.74,0,0,1,0,1.78v3.44a19.76,19.76,0,0,1,4.46-1.8,62.51,62.51,0,0,1,12.8-2,98.49,98.49,0,0,1,18.25.45,1.91,1.91,0,0,1,1.92,1.72c-.49,1.33-.86,1.53-2.12,1.37q-3.44-.44-6.88-.59a94.42,94.42,0,0,0-12.13.19A43.24,43.24,0,0,0,382.06,373.14Zm14.2,4.18a73.11,73.11,0,0,0-17.11,1.79,15.44,15.44,0,0,0-6.08,2.43c-.31.23-.63.44-.65.93a4.47,4.47,0,0,0,.55,2.64,8.64,8.64,0,0,0,2.27,2.46,26.22,26.22,0,0,0,8.8,3.93,41.35,41.35,0,0,0,8.48,1.32A48.48,48.48,0,0,0,411,390.75a18.41,18.41,0,0,0,7.35-4.08A5.56,5.56,0,0,0,420,384c.37-1.5.14-2.12-1.05-2.87a16,16,0,0,0-4.4-1.76A72,72,0,0,0,396.26,377.32Z"/><path class="cls-7" d="M396.26,377.32a72,72,0,0,1,18.29,2.05,16,16,0,0,1,4.4,1.76c1.19.75,1.42,1.37,1.05,2.87a5.56,5.56,0,0,1-1.65,2.67,18.41,18.41,0,0,1-7.35,4.08,48.48,48.48,0,0,1-18.48,2.07A41.35,41.35,0,0,1,384,391.5a26.22,26.22,0,0,1-8.8-3.93,8.64,8.64,0,0,1-2.27-2.46,4.47,4.47,0,0,1-.55-2.64c0-.49.34-.7.65-.93a15.44,15.44,0,0,1,6.08-2.43A73.11,73.11,0,0,1,396.26,377.32Z"/><path class="cls-5" d="M409.79,371.29a1.91,1.91,0,0,0-1.92-1.72,98.49,98.49,0,0,0-18.25-.45,62.51,62.51,0,0,0-12.8,2,19.76,19.76,0,0,0-4.46,1.8V369.5a11.74,11.74,0,0,0,0-1.78,2.22,2.22,0,0,1,1.36-2.49,22.6,22.6,0,0,1,6.21-2.12,79.41,79.41,0,0,1,19.38-1.52,70.69,70.69,0,0,1,14,1.68,21,21,0,0,1,5.43,2,2.33,2.33,0,0,1,1.37,2.49c-.11,1.68,0,3.39,0,5.21a23.06,23.06,0,0,0-3.91-1.61c-.87-.25-1.75-.5-2.63-.71-1.24-.3-1.49-.17-2.18,1A3.85,3.85,0,0,1,409.79,371.29Z"/><path class="cls-8" d="M409.79,371.29a3.85,3.85,0,0,0,1.6.29c0,1.3.28,1.67,1.4,2a29.31,29.31,0,0,1,4.87,1.55c.39.18.77.39,1.15.59a1.93,1.93,0,0,1,1.19,2.49c-4.64-2.27-9.61-3-14.61-3.52a93.6,93.6,0,0,0-17.07-.13c-2.06.16-4.11.46-6.16.7a4.23,4.23,0,0,0-.1-2.09,43.24,43.24,0,0,1,6.6-.88,94.42,94.42,0,0,1,12.13-.19q3.45.15,6.88.59C408.93,372.82,409.3,372.62,409.79,371.29Z"/><path class="cls-8" d="M382.06,373.14a4.23,4.23,0,0,1,.1,2.09c-1.36.47-2.78.59-4.16,1a25.54,25.54,0,0,0-5.55,2.08c-.25-1.44-.16-1.76.9-2.44a19.72,19.72,0,0,1,6.53-2.36A6,6,0,0,1,382.06,373.14Z"/><path class="cls-6" d="M387.91,348.77a7.63,7.63,0,0,1,.84-3.38,3.93,3.93,0,0,0-.36-4.38,1.53,1.53,0,0,1,.08-2c.79-.93,1.6-1.83,2.41-2.73a1.17,1.17,0,0,1,1.79-.19,2,2,0,0,0,2.78.06,1.24,1.24,0,0,1,1.64.05,1.92,1.92,0,0,0,2.58,0,1.23,1.23,0,0,1,2,.19c.75.83,1.5,1.68,2.23,2.54a1.6,1.6,0,0,1,.12,2.22,3.78,3.78,0,0,0-.35,4.15,8.14,8.14,0,0,1,.69,5.51,6.37,6.37,0,0,1-4.51,5,5,5,0,0,0-2.52,1.59c-.73.86-1.45.85-2.19,0a4.83,4.83,0,0,0-2.52-1.57C389.79,355,387.9,352.22,387.91,348.77Zm4.06-5.31a8.94,8.94,0,0,1-1,3.91,4,4,0,0,0,2.3,5.4,7.54,7.54,0,0,1,2.67,1.3c.19.15.33.23.55,0a7.6,7.6,0,0,1,2.87-1.4,3.76,3.76,0,0,0,2.46-3.72,6.79,6.79,0,0,0-.75-2.69,7.18,7.18,0,0,1-.08-5.59c.13-.33.23-.58-.07-.86s-.47-.64-1-.41a3.94,3.94,0,0,1-3.32-.09.83.83,0,0,0-.75,0,4,4,0,0,1-3.32.07c-.49-.2-.66.12-.94.37s-.27.56-.11.93A5.89,5.89,0,0,1,392,343.46Z"/><path class="cls-8" d="M392,343.46a5.89,5.89,0,0,0-.5-2.73c-.16-.37-.2-.64.11-.93s.45-.57.94-.37a4,4,0,0,0,3.32-.07.83.83,0,0,1,.75,0,3.94,3.94,0,0,0,3.32.09c.53-.23.71.14,1,.41s.2.53.07.86a7.18,7.18,0,0,0,.08,5.59,6.79,6.79,0,0,1,.75,2.69,3.76,3.76,0,0,1-2.46,3.72,7.6,7.6,0,0,0-2.87,1.4c-.22.19-.36.11-.55,0a7.54,7.54,0,0,0-2.67-1.3,4,4,0,0,1-2.3-5.4A8.94,8.94,0,0,0,392,343.46Z"/></g></svg>