<svg xmlns="http://www.w3.org/2000/svg" viewBox="0 0 566.49 732.21"><defs><style>.cls-1{fill:#1042e2;stroke:#1d1d1b;stroke-miterlimit:10;stroke-width:2px;}.cls-2{fill:#fefefe;}.cls-3{fill:#030302;}.cls-4{fill:#e7951a;}.cls-5{fill:#4187ba;}.cls-6{fill:#020203;}.cls-7{fill:#6f7c84;}.cls-8{fill:#fcba63;}</style></defs><g id="Capa_6" data-name="Capa 6"><path class="cls-1" d="M275.84,731.21c-14.45-7.91-17.19-23.27-23.08-36.34-22.67-50.27-44.79-100.79-67-151.27-1.5-3.42-3.86-5-7.14-6.33-56-22-100.07-58.42-132.79-108-17.1-25.92-29.85-54-36.29-84.5l44-.18a27.48,27.48,0,0,1,1.11,2.56c54,170.12,268.22,223.68,396.24,99.05,26.32-25.63,45.11-56,57.91-90.08h44.69c-7.91,27.07-19.26,52.47-35.43,75.89-9.1,13.16-18.36,26.11-29.72,37.37-29.6,29.32-63.06,53.15-102.51,68.08-2.69,1-3.89,2.67-5,5.2-13.25,30.27-26.18,60.69-40.22,90.61-12.15,25.89-22.8,52.4-34.46,78.48-3.79,8.48-8.32,15.75-17.29,19.47Zm52.83-177.67c-30.95,4.94-60.41,4.69-91.14.16,15.35,34.57,30.16,67.92,45.53,102.55Z"/><path class="cls-1" d="M53.53,344.58l-44,.18c-7.72-26.51-9.64-53.68-8-81C4.73,210.15,21.72,161,53.93,117.56,101.73,53.06,165.82,14.81,246.23,3.5c3.6-.51,7.69.3,10.81-2.5H306.2c10.53,1.81,21.17,3.11,31.56,5.5,116,26.66,189.65,97,219.81,210.5,12,45.19,9.78,90.83-2.68,135.92a22,22,0,0,1-1.41,3.19H508.79c.42-1.59.75-3.2,1.26-4.77A232.63,232.63,0,0,0,520,251.5C508.51,153.9,434.69,71.75,337.3,50.05c-69.08-15.4-133.56-3.48-191.78,37.09-30,20.88-54.42,46.74-71.86,79A238.66,238.66,0,0,0,44.55,275.62C44,299.06,48,321.91,53.53,344.58Z"/><path class="cls-2" d="M53.53,344.58c-5.55-22.67-9.54-45.52-9-69A238.66,238.66,0,0,1,73.66,166.13c17.44-32.25,41.9-58.11,71.86-79,58.22-40.57,122.7-52.49,191.78-37.09C434.69,71.75,508.51,153.9,520,251.5a232.63,232.63,0,0,1-9.94,99.84c-.51,1.57-.84,3.18-1.26,4.77-12.8,34.1-31.59,64.45-57.91,90.08-128,124.63-342.22,71.07-396.24-99.05A27.48,27.48,0,0,0,53.53,344.58ZM160.4,363.24c-.07,5.7-.47,11.42-.1,17.09.31,4.73-1.33,5.87-6,5.89-13.62,0-23,9.07-23,21.31s9.79,21.21,23.16,21.3c14.69.09,29.38,0,44.08,0q105.85,0,211.71,0c7.36,0,13.92-1.58,18.86-7.13,5.89-6.62,7.65-14.3,4-22.5-3.86-8.62-10.9-13.35-20.49-13-5.38.17-7.14-1.19-6.77-6.63.48-6.84,0-13.76-.08-20.65V246.75c3.44,2.58,5.49,4.12,7.54,5.64,10.61,7.86,23.38,6.86,31.07-2.44,7.91-9.56,6.44-22.72-4-31q-71-56.24-142.2-112.22c-10.36-8.16-19.92-8.09-30.21,0Q196.8,162.84,125.77,219c-10.17,8.05-11.87,20.69-4.43,30.37s20.37,11,31,3.47c2.39-1.69,4.18-4.49,8.09-4.8Z"/><path class="cls-2" d="M362.83,358.27c-.07,7.58-.31,15.18-.15,22.76.08,3.42-1.06,4.46-4.5,4.43-16.36-.15-32.71-.21-49.06,0-4.36.06-4.43-2.06-4.41-5.23q.14-21.35,0-42.7c-.06-13.8-9-23.44-21.65-23.44s-21.58,9.64-21.64,23.43c-.06,14.24-.15,28.48.06,42.71.06,3.95-1,5.3-5.17,5.24q-23.81-.36-47.62,0c-4.09.06-5.45-1.08-5.25-5.16.28-5.91,0-11.85-.12-17.78.08-47.47.39-94.94,0-142.41-.06-7.41,2.78-11.91,8.18-15.57,14.95-10.12,28.56-21.86,42.37-33.38,8.44-7.05,17.61-13.24,26.32-20,2.43-1.88,4.12-1.4,6.29.32q36.47,28.93,73.08,57.65c3.3,2.57,3,5.54,3,8.81q0,66.24,0,132.46C362.59,353.06,362.74,355.66,362.83,358.27Zm-79.72-87c4.81,0,9.62.12,14.42,0,12.27-.39,21.6-9.59,21.69-21.23s-9.23-21.17-21.4-21.48q-14.77-.39-29.57,0c-12.16.33-21.44,9.91-21.32,21.55.12,11.34,9.24,20.61,21,21.13C273,271.46,278.06,271.27,283.11,271.29Z"/><path class="cls-3" d="M450.88,237.63c5.45,3,5.92,4,4.64,12-6.56,40.56-17.46,79.78-34,117.38-18.07,41.14-42.47,77.53-76,107.17-17.65,15.6-36.94,28.61-58.89,37.17-.54.21-1.17.24-1.3,1H280c-8.88-4.42-18-8.28-26.55-13.44-37.92-22.95-66.74-55-89.79-92.87-9.27-15.24-16.53-31.51-23.63-47.86-2.34-5.38-1.86-7.09,2.68-10.95,4.9-1,7.86,1.06,9.7,5.75,5.1,13,11.46,25.38,18,37.64a257.39,257.39,0,0,0,30,44.19c21.77,26.18,47,47.83,78.09,61.85a9.57,9.57,0,0,0,8.51,0A188.34,188.34,0,0,0,327.1,472.1c36.29-28.71,61.95-65.66,81-107.88,17.13-38,27.87-77.76,34.67-118.81C443.74,239.59,445,238.45,450.88,237.63Z"/><path class="cls-3" d="M434.06,170.5c-3.29,62.37-12.8,122.11-36.8,178.69-16.39,38.65-38.11,73.56-69.65,101.44a195.86,195.86,0,0,1-39.85,27.61,10.05,10.05,0,0,1-10.14,0c-32.14-16.66-57.51-41.17-78.05-70.92-25.16-36.45-41.34-77.09-52.12-120.11-7.89-31.46-11.89-63.53-14.39-95.84-.64-8.18-1.33-16.36-1.83-24.56-.37-6.1,2.42-9.34,8.28-9.8,34.5-2.73,67.13-11.71,97.09-29.84,14.48-8.77,27.09-19.86,39.23-31.61,5.72-5.55,8.19-5.4,13.83.39,31.81,32.63,70.45,51.35,114.75,58.46,6.76,1.08,13.6,1.71,20.41,2.49,7.22.83,9.47,3.42,9.25,10.77C434,169.06,434.06,170.43,434.06,170.5Zm-288.94,6a643,643,0,0,0,8.65,75.63C162.42,301,177.88,347.28,204,389.38c19.06,30.78,43.48,56.26,75,74.1,2.54,1.44,4.6,1.63,7,.09,4.79-3.07,9.79-5.81,14.45-9.07,29.32-20.52,51.47-47.51,68.83-79,34.51-62.55,46.77-130.88,51.07-201.36.12-1.94-.09-2.94-2.44-3.2-21.13-2.3-41.69-6.47-61.6-14.8-26.21-11-50.2-25.1-70.73-45.07-2.49-2.42-3.68-2.11-6,.15-22.45,22.26-49.54,36.87-78.39,48.21-14.9,5.86-30.64,8.82-46.52,10.67C144.74,171.3,144.73,171.26,145.12,176.52Z"/><path class="cls-2" d="M145.12,176.52c-.39-5.26-.38-5.22,9.58-6.39,15.88-1.85,31.62-4.81,46.52-10.67,28.85-11.34,55.94-26,78.39-48.21,2.29-2.26,3.48-2.57,6-.15,20.53,20,44.52,34.1,70.73,45.07,19.91,8.33,40.47,12.5,61.6,14.8,2.35.26,2.56,1.26,2.44,3.2-4.3,70.48-16.56,138.81-51.07,201.36-17.36,31.46-39.51,58.45-68.83,79-4.66,3.26-9.66,6-14.45,9.07-2.41,1.54-4.47,1.35-7-.09-31.55-17.84-56-43.32-75-74.1-26.08-42.1-41.54-88.41-50.19-137.23A643,643,0,0,1,145.12,176.52Z"/><path class="cls-3" d="M452.86,220.93c-4.47-1.52-6.15-4.55-5.68-9.41,2.12-22.09,3.44-44.24,3.83-66.44.07-3.65-.88-4.47-4.39-4.4-41.68.88-80.69-8.58-116-31.8a174.87,174.87,0,0,1-45.14-43.11c-1.87-2.56-2.84-3.88-5.46-.35-30.8,41.52-72.18,64.69-122.18,72.77a195.93,195.93,0,0,1-39.66,2.49c-3.25-.14-3.91.87-3.86,4,.94,59.84,7.77,118.77,26,176,1.77,5.51,1.06,7.42-3.63,10.71-5.69.15-7.25-1-9.06-6.56-10.59-32.68-17.38-66.2-21.53-100.32a742,742,0,0,1-5.25-89.16c0-7.12,2.74-9.2,9.66-8.83,67.83,3.62,124-18.86,164.18-76.75.43-.61.82-1.26,1.24-1.88,4.33-6.43,9.05-6.5,13.28-.1a183.43,183.43,0,0,0,20.1,25.58c28.52,29.93,63.59,46.28,103.78,52a179.45,179.45,0,0,0,43.26,1.07c4.92-.49,8,2.4,8,7.47a791.16,791.16,0,0,1-3.84,79.23C460.1,218,457.54,220.47,452.86,220.93Z"/><path class="cls-4" d="M450.88,237.63c-5.86.82-7.14,2-8.1,7.78-6.8,41-17.54,80.86-34.67,118.81-19.06,42.22-44.72,79.17-81,107.88a188.34,188.34,0,0,1-40.19,24.49,9.57,9.57,0,0,1-8.51,0c-31.07-14-56.32-35.67-78.09-61.85a257.39,257.39,0,0,1-30-44.19c-6.5-12.26-12.86-24.66-18-37.64-1.84-4.69-4.8-6.75-9.7-5.75q-3-7.9-5.95-15.82c4.69-3.29,5.4-5.2,3.63-10.71-18.27-57.18-25.1-116.11-26-175.95,0-3.15.61-4.16,3.86-4a195.93,195.93,0,0,0,39.66-2.49c50-8.08,91.38-31.25,122.18-72.77,2.62-3.53,3.59-2.21,5.46.35a174.87,174.87,0,0,0,45.14,43.11c35.32,23.22,74.33,32.68,116,31.8,3.51-.07,4.46.75,4.39,4.4-.39,22.2-1.71,44.35-3.83,66.44-.47,4.86,1.21,7.89,5.68,9.41ZM434.06,170.5c0-.07,0-1.44,0-2.81.22-7.35-2-9.94-9.25-10.77-6.81-.78-13.65-1.41-20.41-2.49-44.3-7.11-82.94-25.83-114.75-58.46-5.64-5.79-8.11-5.94-13.83-.39-12.14,11.75-24.75,22.84-39.23,31.61-30,18.13-62.59,27.11-97.09,29.84-5.86.46-8.65,3.7-8.28,9.8.5,8.2,1.19,16.38,1.83,24.56,2.5,32.31,6.5,64.38,14.39,95.84,10.78,43,27,83.66,52.12,120.11,20.54,29.75,45.91,54.26,78.05,70.92a10.05,10.05,0,0,0,10.14,0,195.86,195.86,0,0,0,39.85-27.61c31.54-27.88,53.26-62.79,69.65-101.44C421.26,292.61,430.77,232.87,434.06,170.5Z"/><path class="cls-5" d="M210.7,243.42c2.56.79,3.57.32,4.91-2.34s2.53-5.08,3.75-7.66a3.78,3.78,0,0,1,2.18-2.1q30.24-11.79,60.45-23.69a3.52,3.52,0,0,1,2.72,0q30.12,11.85,60.26,23.63a3.85,3.85,0,0,1,2.23,2.06q12.09,24.39,24.25,48.76a1.89,1.89,0,0,1-.12,2.4Q358.82,300.72,346.38,317a3,3,0,0,1-.53.34c0-5.6,0-11.05,0-16.5,0-1,.65-.88,1.19-.95a55.82,55.82,0,0,0,8.49-1.46,3.64,3.64,0,0,0,2.89-4.2,3.21,3.21,0,0,0-4.09-2.85c-2.34.41-4.69.73-7,1.21-1.2.25-1.57-.18-1.48-1.53.08-1.13-.07-2.29,0-3.42.44-4.68-1.66-7.7-4.86-10.07a43.23,43.23,0,0,0-7.18-3.83,159.91,159.91,0,0,0,10.37-19.24,108.65,108.65,0,0,0,4.08-10.33c.81-2.45.24-4.45-1.44-5.28s-3.54.07-4.41,2.58a141.86,141.86,0,0,1-14,28.47c-.8,1.29-1.53,1.68-2.89,1.35-19.24-4.66-38.7-5.27-58.25-3.95a144.1,144.1,0,0,0-26.47,4c-1.2.31-1.78-.11-2.43-1.15a137.76,137.76,0,0,1-14.13-28.64c-.64-1.86-1.62-3-3.47-2.91-1.52.09-2.34,1.12-2.8,2.68a4.85,4.85,0,0,0,.42,3.1A140.37,140.37,0,0,0,231.63,272c.35.57.68,1.15,1.07,1.8-1.71.83-3.35,1.52-4.91,2.4-4.64,2.62-7.81,6.21-7.13,12.88.36,3.54.06,3.64-3,3.29-1.85-.21-3.69-.63-5.53-1a3.21,3.21,0,0,0-4,2.76,3.65,3.65,0,0,0,2.72,4.34,54.43,54.43,0,0,0,8.67,1.51c.67.09,1.19.15,1.18,1.19,0,5.33,0,10.66,0,16.48l-10.1-13.16c-5-6.56-10-13.15-15.08-19.64a2.43,2.43,0,0,1-.19-3.11c4.58-9.09,9.1-18.22,13.63-27.35,1.35-2.73,1.14-3.94-.95-5.9Zm53,0c0,8.26,4.43,14.9,11,16.75a11.43,11.43,0,0,1,5.95,3.78c1.72,2.09,3.43,2.1,5.14.06a11.67,11.67,0,0,1,5.92-3.83c5.54-1.63,9.1-5.7,10.63-12,1.14-4.65.26-9-1.64-13.24-1.59-3.51-1.46-6.8.83-9.94,1.35-1.84,1.21-3.56-.27-5.34q-2.6-3.09-5.26-6.09c-1.58-1.77-2.79-1.92-4.66-.45a4.45,4.45,0,0,1-6.08.07,2.87,2.87,0,0,0-3.84-.13c-2.24,1.77-4.37,1.69-6.55-.13-1.48-1.24-2.94-1-4.22.45-1.9,2.16-3.82,4.31-5.65,6.55a3.7,3.7,0,0,0-.2,4.84c2.49,3.31,2.54,6.77.86,10.51A18.42,18.42,0,0,0,263.73,243.41Z"/><path class="cls-6" d="M210.7,243.42c-1.84-2.38-1.92-3.29-.55-6.07,1.56-3.16,3.15-6.31,4.69-9.49a5,5,0,0,1,2.76-2.67q32-12.51,64.06-25.1a4.44,4.44,0,0,1,3.45.06q31.93,12.53,63.89,25a5.34,5.34,0,0,1,2.84,2.88q13.2,26.58,26.44,53.15c1.31,2.62,1.22,3.57-.58,5.93q-15.42,20.14-30.87,40.28a9.32,9.32,0,0,0-1.69,3.25c-1.35,4.76-4.24,8.17-7.66,11-6.81,5.72-14.6,8.92-22.71,11-23.24,5.91-46.39,5.69-69.33-2.05a46.75,46.75,0,0,1-18-10.47,21.11,21.11,0,0,1-6.24-10.43,5.28,5.28,0,0,0-1.25-2.09q-15.42-20.14-30.86-40.28c-.57-.74-1.08-1.54-1.61-2.31v-2.58c.63-.3.74-1.05,1-1.62q7.5-15,15-30.06c1.28-2.58,2.12-3,4.56-2.33,2.09,2,2.3,3.17.95,5.9-4.53,9.13-9,18.26-13.63,27.35a2.43,2.43,0,0,0,.19,3.11c5.09,6.49,10.07,13.08,15.08,19.64l10.1,13.16c0-5.82,0-11.15,0-16.48,0-1-.51-1.1-1.18-1.19a54.43,54.43,0,0,1-8.67-1.51,3.65,3.65,0,0,1-2.72-4.34,3.21,3.21,0,0,1,4-2.76c1.84.34,3.68.76,5.53,1,3,.35,3.33.25,3-3.29-.68-6.67,2.49-10.26,7.13-12.88,1.56-.88,3.2-1.57,4.91-2.4-.39-.65-.72-1.23-1.07-1.8a140.37,140.37,0,0,1-13.25-27.5,4.85,4.85,0,0,1-.42-3.1c.46-1.56,1.28-2.59,2.8-2.68,1.85-.11,2.83,1.05,3.47,2.91a137.76,137.76,0,0,0,14.13,28.64c.65,1,1.23,1.46,2.43,1.15a144.1,144.1,0,0,1,26.47-4c19.55-1.32,39-.71,58.25,3.95,1.36.33,2.09-.06,2.89-1.35a141.86,141.86,0,0,0,14-28.47c.87-2.51,2.59-3.47,4.41-2.58s2.25,2.83,1.44,5.28a108.65,108.65,0,0,1-4.08,10.33,159.91,159.91,0,0,1-10.37,19.24A43.23,43.23,0,0,1,341,277.6c3.2,2.37,5.3,5.39,4.86,10.07-.1,1.13,0,2.29,0,3.42-.09,1.35.28,1.78,1.48,1.53,2.33-.48,4.68-.8,7-1.21a3.21,3.21,0,0,1,4.09,2.85,3.64,3.64,0,0,1-2.89,4.2,55.82,55.82,0,0,1-8.49,1.46c-.54.07-1.19,0-1.19.95,0,5.45,0,10.9,0,16.5a3,3,0,0,0,.53-.34q12.47-16.27,24.95-32.54a1.89,1.89,0,0,0,.12-2.4q-12.15-24.36-24.25-48.76a3.85,3.85,0,0,0-2.23-2.06q-30.14-11.78-60.26-23.63a3.52,3.52,0,0,0-2.72,0q-30.21,11.88-60.45,23.69a3.78,3.78,0,0,0-2.18,2.1c-1.22,2.58-2.48,5.12-3.75,7.66S213.26,244.21,210.7,243.42ZM250,301.87c-1.77-.27-3.44.43-5.12.82-5.31,1.24-10.62,2.51-15.39,5.65-2.47,1.64-2.68,2.41-2.09,5.86a58.7,58.7,0,0,1,13-5c3.24-.91,6.59-1.2,9.78-2.32,4.83-.58,9.66-1.31,14.5-1.69a217.37,217.37,0,0,1,40.17.32c11.78,1.24,23.46,3,34.39,8.45.89-3.1-.56-4.8-2.8-6-.9-.48-1.8-1-2.72-1.4a69.16,69.16,0,0,0-11.44-3.73c-2.65-.72-3.27-1.6-3.3-4.71,1.61-2.76,2.2-3.06,5.14-2.33,2.06.51,4.12,1.1,6.17,1.69a52.37,52.37,0,0,1,9.2,3.86c0-4.36-.21-8.45.07-12.5a5.65,5.65,0,0,0-3.23-6,49.14,49.14,0,0,0-12.78-4.68,162.4,162.4,0,0,0-33-4c-15.32-.5-30.54.32-45.61,3.64a51.83,51.83,0,0,0-14.61,5.09c-2.2,1.23-3.65,2.83-3.21,6a30.67,30.67,0,0,1,0,4.29v8.24a47.22,47.22,0,0,1,10.49-4.32c9.89-2.89,20-4.1,30.12-4.85a229.39,229.39,0,0,1,43,1.08c2.4.27,4,1.3,4.51,4.14-1.16,3.17-2,3.65-5,3.28-5.38-.69-10.78-1.18-16.19-1.42a223,223,0,0,0-28.55.45A103.34,103.34,0,0,0,250,301.87Zm33.43,10a170.31,170.31,0,0,0-40.27,4.3c-5,1.17-10,2.5-14.33,5.83a2.87,2.87,0,0,0-1.53,2.24,11.16,11.16,0,0,0,1.31,6.33,20,20,0,0,0,5.35,5.89c6.32,4.8,13.46,7.34,20.71,9.43a94,94,0,0,0,19.95,3.17c14.73,1,29.27-.2,43.49-4.95,6.24-2.08,12.25-4.86,17.29-9.8a13.22,13.22,0,0,0,3.89-6.41c.87-3.59.34-5.07-2.48-6.87a37.17,37.17,0,0,0-10.35-4.24C312.28,312.9,297.86,312,283.39,311.89Z"/><path class="cls-7" d="M283.39,311.89c14.47.15,28.89,1,43,4.92a37.17,37.17,0,0,1,10.35,4.24c2.82,1.8,3.35,3.28,2.48,6.87a13.22,13.22,0,0,1-3.89,6.41c-5,4.94-11.05,7.72-17.29,9.8-14.22,4.75-28.76,5.94-43.49,4.95a94,94,0,0,1-19.95-3.17c-7.25-2.09-14.39-4.63-20.71-9.43a20,20,0,0,1-5.35-5.89,11.16,11.16,0,0,1-1.31-6.33,2.87,2.87,0,0,1,1.53-2.24c4.35-3.33,9.35-4.66,14.33-5.83A170.31,170.31,0,0,1,283.39,311.89Z"/><path class="cls-5" d="M315.22,297.44c-.48-2.84-2.11-3.87-4.51-4.14a229.39,229.39,0,0,0-43-1.08c-10.15.75-20.23,2-30.12,4.85a47.22,47.22,0,0,0-10.49,4.32v-8.24a30.67,30.67,0,0,0,0-4.29c-.44-3.13,1-4.73,3.21-6a51.83,51.83,0,0,1,14.61-5.09c15.07-3.32,30.29-4.14,45.61-3.64a162.4,162.4,0,0,1,33,4,49.14,49.14,0,0,1,12.78,4.68,5.65,5.65,0,0,1,3.23,6c-.28,4.05-.07,8.14-.07,12.5a52.37,52.37,0,0,0-9.2-3.86c-2.05-.59-4.11-1.18-6.17-1.69-2.94-.73-3.53-.43-5.14,2.33A9.42,9.42,0,0,1,315.22,297.44Z"/><path class="cls-8" d="M315.22,297.44a9.42,9.42,0,0,0,3.77.7c0,3.11.65,4,3.3,4.71a69.16,69.16,0,0,1,11.44,3.73c.92.43,1.82.92,2.72,1.4,2.24,1.19,3.69,2.89,2.8,6-10.93-5.45-22.61-7.21-34.39-8.45a217.37,217.37,0,0,0-40.17-.32c-4.84.38-9.67,1.11-14.49,1.69.08-1.68.49-3.39-.24-5a103.34,103.34,0,0,1,15.53-2.12A223,223,0,0,1,294,299.3c5.41.24,10.81.73,16.19,1.42C313.19,301.09,314.06,300.61,315.22,297.44Z"/><path class="cls-8" d="M250,301.87c.73,1.63.32,3.34.24,5-3.2,1.12-6.55,1.41-9.79,2.32a58.7,58.7,0,0,0-13,5c-.59-3.45-.38-4.22,2.09-5.86,4.77-3.14,10.08-4.41,15.39-5.65C246.52,302.3,248.19,301.6,250,301.87Z"/><path class="cls-6" d="M263.73,243.41a18.42,18.42,0,0,1,2-8.12c1.68-3.74,1.63-7.2-.86-10.51a3.7,3.7,0,0,1,.2-4.84c1.83-2.24,3.75-4.39,5.65-6.55,1.28-1.46,2.74-1.69,4.22-.45,2.18,1.82,4.31,1.9,6.55.13a2.87,2.87,0,0,1,3.84.13,4.45,4.45,0,0,0,6.08-.07c1.87-1.47,3.08-1.32,4.66.45q2.67,3,5.26,6.09c1.48,1.78,1.62,3.5.27,5.34-2.29,3.14-2.42,6.43-.83,9.94,1.9,4.2,2.78,8.59,1.64,13.24-1.53,6.28-5.09,10.35-10.63,12a11.67,11.67,0,0,0-5.92,3.83c-1.71,2-3.42,2-5.14-.06a11.43,11.43,0,0,0-5.95-3.78C268.16,258.31,263.69,251.67,263.73,243.41Zm9.56-12.76c.24,3.39-1.24,6.34-2.38,9.4-2.09,5.61.29,11.37,5.42,12.95a17.48,17.48,0,0,1,6.27,3.11c.44.37.77.57,1.29.11a18.11,18.11,0,0,1,6.77-3.37c3.57-1.16,5.74-4.7,5.78-8.93,0-2.39-.93-4.4-1.76-6.45a17.51,17.51,0,0,1-.19-13.41c.31-.79.54-1.39-.17-2.05s-1.1-1.53-2.35-1a9.12,9.12,0,0,1-7.82-.22,1.87,1.87,0,0,0-1.75,0,9.19,9.19,0,0,1-7.82.18c-1.14-.48-1.56.27-2.21.89s-.64,1.34-.26,2.22A14.45,14.45,0,0,1,273.29,230.65Z"/><path class="cls-8" d="M273.29,230.65a14.45,14.45,0,0,0-1.18-6.54c-.38-.88-.48-1.52.26-2.22s1.07-1.37,2.21-.89a9.19,9.19,0,0,0,7.82-.18,1.87,1.87,0,0,1,1.75,0A9.12,9.12,0,0,0,292,221c1.25-.54,1.66.34,2.35,1s.48,1.26.17,2.05a17.51,17.51,0,0,0,.19,13.41c.83,2.05,1.78,4.06,1.76,6.45,0,4.23-2.21,7.77-5.78,8.93a18.11,18.11,0,0,0-6.77,3.37c-.52.46-.85.26-1.29-.11a17.48,17.48,0,0,0-6.27-3.11c-5.13-1.58-7.51-7.34-5.42-12.95C272.05,237,273.53,234,273.29,230.65Z"/></g></svg>