<svg xmlns="http://www.w3.org/2000/svg" viewBox="0 0 566.49 732.21"><defs><style>.cls-1{fill:#1042e2;stroke:#1d1d1b;stroke-miterlimit:10;stroke-width:2px;}.cls-2{fill:#fefefe;}.cls-3{fill:#030302;}.cls-4{fill:#e7951a;}.cls-5{fill:#f40c3e;}</style></defs><g id="Capa_4" data-name="Capa 4"><path class="cls-1" d="M275.84,731.21c-14.45-7.91-17.19-23.27-23.08-36.34-22.67-50.27-44.79-100.79-67-151.27-1.5-3.42-3.86-5-7.14-6.33-56-22-100.07-58.42-132.79-108-17.1-25.92-29.85-54-36.29-84.5l44-.18a27.48,27.48,0,0,1,1.11,2.56c54,170.12,268.22,223.68,396.24,99.05,26.32-25.63,45.11-56,57.91-90.08h44.69c-7.91,27.07-19.26,52.47-35.43,75.89-9.1,13.16-18.36,26.11-29.72,37.37-29.6,29.32-63.06,53.15-102.51,68.08-2.69,1-3.89,2.67-5,5.2-13.25,30.27-26.18,60.69-40.22,90.61-12.15,25.89-22.8,52.4-34.46,78.48-3.79,8.48-8.32,15.75-17.29,19.47Zm52.83-177.67c-30.95,4.94-60.41,4.69-91.14.16,15.35,34.57,30.16,67.92,45.53,102.55Z"/><path class="cls-1" d="M53.53,344.58l-44,.18c-7.72-26.51-9.64-53.68-8-81C4.73,210.15,21.72,161,53.93,117.56,101.73,53.06,165.82,14.81,246.23,3.5c3.6-.51,7.69.3,10.81-2.5H306.2c10.53,1.81,21.17,3.11,31.56,5.5,116,26.66,189.65,97,219.81,210.5,12,45.19,9.78,90.83-2.68,135.92a22,22,0,0,1-1.41,3.19H508.79c.42-1.59.75-3.2,1.26-4.77A232.63,232.63,0,0,0,520,251.5C508.51,153.9,434.69,71.75,337.3,50.05c-69.08-15.4-133.56-3.48-191.78,37.09-30,20.88-54.42,46.74-71.86,79A238.66,238.66,0,0,0,44.55,275.62C44,299.06,48,321.91,53.53,344.58Z"/><path class="cls-2" d="M53.53,344.58c-5.55-22.67-9.54-45.52-9-69A238.66,238.66,0,0,1,73.66,166.13c17.44-32.25,41.9-58.11,71.86-79,58.22-40.57,122.7-52.49,191.78-37.09C434.69,71.75,508.51,153.9,520,251.5a232.63,232.63,0,0,1-9.94,99.84c-.51,1.57-.84,3.18-1.26,4.77-12.8,34.1-31.59,64.45-57.91,90.08-128,124.63-342.22,71.07-396.24-99.05A27.48,27.48,0,0,0,53.53,344.58ZM160.4,363.24c-.07,5.7-.47,11.42-.1,17.09.31,4.73-1.33,5.87-6,5.89-13.62,0-23,9.07-23,21.31s9.79,21.21,23.16,21.3c14.69.09,29.38,0,44.08,0q105.85,0,211.71,0c7.36,0,13.92-1.58,18.86-7.13,5.89-6.62,7.65-14.3,4-22.5-3.86-8.62-10.9-13.35-20.49-13-5.38.17-7.14-1.19-6.77-6.63.48-6.84,0-13.76-.08-20.65V246.75c3.44,2.58,5.49,4.12,7.54,5.64,10.61,7.86,23.38,6.86,31.07-2.44,7.91-9.56,6.44-22.72-4-31q-71-56.24-142.2-112.22c-10.36-8.16-19.92-8.09-30.21,0Q196.8,162.84,125.77,219c-10.17,8.05-11.87,20.69-4.43,30.37s20.37,11,31,3.47c2.39-1.69,4.18-4.49,8.09-4.8Z"/><path class="cls-2" d="M362.83,358.27c-.07,7.58-.31,15.18-.15,22.76.08,3.42-1.06,4.46-4.5,4.43-16.36-.15-32.71-.21-49.06,0-4.36.06-4.43-2.06-4.41-5.23q.14-21.35,0-42.7c-.06-13.8-9-23.44-21.65-23.44s-21.58,9.64-21.64,23.43c-.06,14.24-.15,28.48.06,42.71.06,3.95-1,5.3-5.17,5.24q-23.81-.36-47.62,0c-4.09.06-5.45-1.08-5.25-5.16.28-5.91,0-11.85-.12-17.78.08-47.47.39-94.94,0-142.41-.06-7.41,2.78-11.91,8.18-15.57,14.95-10.12,28.56-21.86,42.37-33.38,8.44-7.05,17.61-13.24,26.32-20,2.43-1.88,4.12-1.4,6.29.32q36.47,28.93,73.08,57.65c3.3,2.57,3,5.54,3,8.81q0,66.24,0,132.46C362.59,353.06,362.74,355.66,362.83,358.27Zm-79.72-87c4.81,0,9.62.12,14.42,0,12.27-.39,21.6-9.59,21.69-21.23s-9.23-21.17-21.4-21.48q-14.77-.39-29.57,0c-12.16.33-21.44,9.91-21.32,21.55.12,11.34,9.24,20.61,21,21.13C273,271.46,278.06,271.27,283.11,271.29Z"/><path class="cls-3" d="M445.41,239c5.35,2.91,5.8,3.94,4.55,11.67-6.43,39.57-17.13,77.84-33.33,114.53C398.9,405.38,375,440.88,342,469.81c-17.32,15.22-36.25,27.91-57.79,36.26-.53.21-1.14.24-1.27,1h-5.27c-8.71-4.3-17.68-8.07-26-13.11-37.2-22.39-65.48-53.67-88.09-90.61-9.1-14.87-16.23-30.74-23.19-46.7-2.3-5.24-1.82-6.92,2.63-10.68,4.8-1,7.71,1,9.52,5.61,5,12.66,11.24,24.76,17.61,36.73a251.72,251.72,0,0,0,29.42,43.11c21.37,25.55,46.13,46.67,76.62,60.34a9.43,9.43,0,0,0,8.35,0A184.7,184.7,0,0,0,324,467.81c35.6-28,60.78-64.06,79.48-105.25,16.81-37,27.35-75.88,34-115.93C438.41,241,439.66,239.84,445.41,239Z"/><path class="cls-3" d="M428.91,173.54c-3.24,60.86-12.56,119.14-36.11,174.35-16.08,37.71-37.4,71.77-68.33,99a192.51,192.51,0,0,1-39.1,26.94,9.91,9.91,0,0,1-9.95,0c-31.54-16.25-56.43-40.16-76.59-69.19-24.68-35.56-40.55-75.22-51.13-117.19-7.75-30.7-11.66-62-14.12-93.51-.63-8-1.31-16-1.79-24-.36-6,2.37-9.12,8.12-9.57,33.85-2.66,65.86-11.43,95.26-29.12,14.2-8.55,26.58-19.37,38.48-30.84,5.62-5.41,8.05-5.26,13.58.38,31.21,31.84,69.12,50.11,112.58,57,6.64,1.06,13.35,1.67,20,2.43,7.09.81,9.29,3.34,9.07,10.51C428.87,172.14,428.91,173.47,428.91,173.54Zm-283.5,5.87a625.32,625.32,0,0,0,8.49,73.8c8.49,47.63,23.65,92.82,49.24,133.9,18.7,30,42.67,54.89,73.62,72.29,2.5,1.41,4.51,1.6,6.88.09,4.7-3,9.61-5.67,14.17-8.85,28.77-20,50.5-46.35,67.53-77.05,33.86-61,45.9-127.7,50.11-196.47.12-1.89-.09-2.87-2.39-3.12-20.73-2.24-40.91-6.31-60.43-14.44-25.72-10.71-49.27-24.49-69.4-44-2.45-2.36-3.62-2.07-5.86.14-22,21.72-48.6,36-76.92,47-14.61,5.72-30,8.6-45.63,10.41C145,174.32,145,174.29,145.41,179.41Z"/><path class="cls-2" d="M145.41,179.41c-.38-5.12-.37-5.09,9.41-6.23,15.58-1.81,31-4.69,45.63-10.41,28.32-11.06,54.89-25.32,76.92-47,2.24-2.21,3.41-2.5,5.86-.14,20.13,19.48,43.68,33.26,69.4,44,19.52,8.13,39.7,12.2,60.43,14.44,2.3.25,2.51,1.23,2.39,3.12-4.21,68.77-16.25,135.44-50.11,196.47-17,30.7-38.76,57-67.53,77.05-4.56,3.18-9.47,5.86-14.17,8.85-2.37,1.51-4.38,1.32-6.88-.09-30.95-17.4-54.92-42.27-73.62-72.29-25.59-41.08-40.75-86.27-49.24-133.9A625.32,625.32,0,0,1,145.41,179.41Z"/><path class="cls-3" d="M447.35,222.74c-4.38-1.48-6-4.44-5.57-9.17,2.08-21.56,3.38-43.17,3.76-64.83.06-3.56-.87-4.37-4.31-4.29-40.89.85-79.17-8.38-113.83-31a171,171,0,0,1-44.28-42.07c-1.84-2.49-2.79-3.78-5.36-.33-30.22,40.51-70.82,63.11-119.88,71A192.83,192.83,0,0,1,119,144.45c-3.19-.14-3.84.84-3.79,3.92.92,58.39,7.63,115.88,25.56,171.67,1.73,5.38,1,7.24-3.57,10.46-5.58.14-7.12-1-8.89-6.41-10.39-31.88-17-64.58-21.12-97.88a720.53,720.53,0,0,1-5.15-87c0-6.95,2.68-9,9.48-8.62,66.54,3.53,121.64-18.4,161.08-74.88.42-.6.81-1.23,1.22-1.84,4.24-6.27,8.87-6.34,13-.09a179.36,179.36,0,0,0,19.72,24.95c28,29.21,62.4,45.15,101.83,50.72a176.83,176.83,0,0,0,42.45,1c4.82-.48,7.82,2.35,7.86,7.29a770.37,770.37,0,0,1-3.77,77.3C454.46,219.85,451.94,222.3,447.35,222.74Z"/><path class="cls-4" d="M445.41,239c-5.75.8-7,1.92-8,7.59-6.67,40.05-17.21,78.9-34,115.93-18.7,41.19-43.88,77.24-79.48,105.25a184.7,184.7,0,0,1-39.43,23.9,9.43,9.43,0,0,1-8.35,0c-30.49-13.67-55.25-34.79-76.62-60.34a251.72,251.72,0,0,1-29.42-43.11c-6.37-12-12.61-24.07-17.61-36.73-1.81-4.58-4.72-6.58-9.52-5.61q-2.92-7.73-5.84-15.43c4.6-3.22,5.3-5.08,3.57-10.46-17.93-55.79-24.64-113.28-25.56-171.67-.05-3.08.6-4.06,3.79-3.92A192.83,192.83,0,0,0,157.88,142c49.06-7.88,89.66-30.48,119.88-71,2.57-3.45,3.52-2.16,5.36.33a171,171,0,0,0,44.28,42.07c34.66,22.65,72.94,31.88,113.83,31,3.44-.08,4.37.73,4.31,4.29-.38,21.66-1.68,43.27-3.76,64.83-.46,4.73,1.19,7.69,5.57,9.17Q446.39,230.9,445.41,239Zm-16.5-65.5c0-.07,0-1.4,0-2.74.22-7.17-2-9.7-9.07-10.51-6.68-.76-13.39-1.37-20-2.43-43.46-6.93-81.37-25.2-112.58-57-5.53-5.64-8-5.79-13.58-.38-11.9,11.47-24.28,22.29-38.48,30.84-29.4,17.69-61.41,26.46-95.26,29.12-5.75.45-8.48,3.61-8.12,9.57.48,8,1.16,16,1.79,24,2.46,31.52,6.37,62.81,14.12,93.51,10.58,42,26.45,81.63,51.13,117.19,20.16,29,45,52.94,76.59,69.19a9.91,9.91,0,0,0,9.95,0,192.51,192.51,0,0,0,39.1-26.94c30.93-27.21,52.25-61.27,68.33-99C416.35,292.68,425.67,234.4,428.91,173.54Z"/><path class="cls-5" d="M250.05,212.92a76.84,76.84,0,0,1,8-14.37c4.21,2.29,7.39.87,10.36-2.55a55.36,55.36,0,0,1,19.79-14.95l0,0c-.81,5.85-2,11.67-2.35,17.55-.89,13.25,2.54,25.14,11.21,35.44,9.3,11.07,12.22,24,9.91,38.28a34.9,34.9,0,0,0-.28,8.42c.4,4.62,3.26,6.41,7.7,5.2s7.28-4.23,10-7.61c6.5-8.11,11.85-16.83,14.24-27.3,28.13,36.26,16.06,100.28-21.86,117.14-1.72-14.75-4-20.55-13-32.78a22.56,22.56,0,0,1-4.18-11.07c-.85-7.68.61-15,2.86-22.3s-2.36-12.33-9.9-10.9a31.91,31.91,0,0,0-5.07,1.37c-33.74,12.21-45.38,38.1-43,70.07.13,1.79,1,3.55.37,5.82a91.29,91.29,0,0,1-17.29-16.26c-25.93-30.43-26.74-65-10.07-99,1.43-2.91,2.56-3.62,4.56-.35A68.61,68.61,0,0,0,232.29,266c2.62,2.58,5.74,4.41,9.51,2.88s5.25-5,5.2-9a111.47,111.47,0,0,1,6.25-37.07C254.71,218.54,253.87,215.31,250.05,212.92Z"/><path class="cls-3" d="M288.22,181.05A55.36,55.36,0,0,0,268.43,196c-3,3.42-6.15,4.84-10.36,2.55-3.55-4.53-3.55-7,.1-11.31,9.23-10.79,20.94-17.89,33.89-23,3.81-1.51,8.13-2.64,11.51.93s2.42,7.83.71,12c-4,9.87-6,20.08-4.76,30.81a30,30,0,0,0,6.87,16.06C314.64,234,320,245.3,321,259.3a43.38,43.38,0,0,0,5.69-19.63c.11-2.65-.14-5.32.78-7.92,1.88-5.36,7-7.14,11.56-3.84a13.46,13.46,0,0,1,3.11,3.1c16.4,23.07,26.75,48.23,25.28,77.27s-15.37,51-37.88,68c-16.18,12.22-34.05,19-54.51,17.7-9.59-.6-19.12-2.15-27.32-7.22-17.93-11.09-32.71-25.58-43.1-44.35a91.88,91.88,0,0,1-11.17-54.82,115.65,115.65,0,0,1,16.83-49.08c6.73-11,13.07-10.62,19.18.65,1.32,2.42,2.45,5,4.79,7.35,1.43-9.82,3.25-19.16,6.43-28.16,1.78-5,4-6.35,9.35-5.43,3.82,2.39,4.66,5.62,3.2,9.92A111.47,111.47,0,0,0,247,259.91c.05,4-1.3,7.42-5.2,9s-6.89-.3-9.51-2.88a68.61,68.61,0,0,1-10.23-13.31c-2-3.27-3.13-2.56-4.56.35-16.67,34-15.86,68.59,10.07,99a91.29,91.29,0,0,0,17.29,16.26c.62-2.27-.24-4-.37-5.82-2.38-32,9.26-57.86,43-70.07a31.91,31.91,0,0,1,5.07-1.37c7.54-1.43,12.19,3.48,9.9,10.9s-3.71,14.62-2.86,22.3a22.56,22.56,0,0,0,4.18,11.07c9,12.23,11.24,18,13,32.78,37.92-16.86,50-80.88,21.86-117.14-2.39,10.47-7.74,19.19-14.24,27.3-2.71,3.38-5.66,6.43-10,7.61s-7.3-.58-7.7-5.2a34.9,34.9,0,0,1,.28-8.42c2.31-14.29-.61-27.21-9.91-38.28-8.67-10.3-12.1-22.19-11.21-35.44.39-5.88,1.54-11.7,2.35-17.55l.24-.08Zm-1,126.21a20.46,20.46,0,0,0-2.35.7c-23.91,10.7-35.44,44.13-23.44,67.68a4.75,4.75,0,0,0,3.72,2.58c11.82,2.76,23.45,1.94,35-1.57,2.56-.78,3-2.27,3.12-4.54.45-9.86-2.13-18.77-8.24-26.47a37.66,37.66,0,0,1-8-16.56C285.68,321.89,286.18,314.69,287.2,307.26Z"/><path class="cls-4" d="M287.2,307.26c-1,7.43-1.52,14.63-.15,21.82a37.66,37.66,0,0,0,8,16.56c6.11,7.7,8.69,16.61,8.24,26.47-.11,2.27-.56,3.76-3.12,4.54-11.57,3.51-23.2,4.33-35,1.57a4.75,4.75,0,0,1-3.72-2.58c-12-23.55-.47-57,23.44-67.68A20.46,20.46,0,0,1,287.2,307.26Z"/></g></svg>