<svg xmlns="http://www.w3.org/2000/svg" viewBox="0 0 566.49 732.21"><defs><style>.cls-1{fill:#0f2fb5;stroke:#1d1d1b;stroke-miterlimit:10;stroke-width:2px;}.cls-2{fill:#fefefe;}.cls-3{fill:#030302;}.cls-4{fill:#e7951a;}.cls-5{fill:#f40c3e;}</style></defs><g id="Capa_4" data-name="Capa 4"><path class="cls-1" d="M275.84,731.21c-14.45-7.91-17.19-23.27-23.08-36.34-22.67-50.27-44.79-100.79-67-151.27-1.5-3.42-3.86-5-7.14-6.33-56-22-100.07-58.42-132.79-108-17.1-25.92-29.85-54-36.29-84.5l44-.18a27.48,27.48,0,0,1,1.11,2.56c54,170.12,268.22,223.68,396.24,99.05,26.32-25.63,45.11-56,57.91-90.08h44.69c-7.91,27.07-19.26,52.47-35.43,75.89-9.1,13.16-18.36,26.11-29.72,37.37-29.6,29.32-63.06,53.15-102.51,68.08-2.69,1-3.89,2.67-5,5.2-13.25,30.27-26.18,60.69-40.22,90.61-12.15,25.89-22.8,52.4-34.46,78.48-3.79,8.48-8.32,15.75-17.29,19.47Zm52.83-177.67c-30.95,4.94-60.41,4.69-91.14.16,15.35,34.57,30.16,67.92,45.53,102.55Z"/><path class="cls-1" d="M53.53,344.58l-44,.18c-7.72-26.51-9.64-53.68-8-81C4.73,210.15,21.72,161,53.93,117.56,101.73,53.06,165.82,14.81,246.23,3.5c3.6-.51,7.69.3,10.81-2.5H306.2c10.53,1.81,21.17,3.11,31.56,5.5,116,26.66,189.65,97,219.81,210.5,12,45.19,9.78,90.83-2.68,135.92a22,22,0,0,1-1.41,3.19H508.79c.42-1.59.75-3.2,1.26-4.77A232.63,232.63,0,0,0,520,251.5C508.51,153.9,434.69,71.75,337.3,50.05c-69.08-15.4-133.56-3.48-191.78,37.09-30,20.88-54.42,46.74-71.86,79A238.66,238.66,0,0,0,44.55,275.62C44,299.06,48,321.91,53.53,344.58Z"/><path class="cls-2" d="M53.53,344.58c-5.55-22.67-9.54-45.52-9-69A238.66,238.66,0,0,1,73.66,166.13c17.44-32.25,41.9-58.11,71.86-79,58.22-40.57,122.7-52.49,191.78-37.09C434.69,71.75,508.51,153.9,520,251.5a232.63,232.63,0,0,1-9.94,99.84c-.51,1.57-.84,3.18-1.26,4.77-12.8,34.1-31.59,64.45-57.91,90.08-128,124.63-342.22,71.07-396.24-99.05A27.48,27.48,0,0,0,53.53,344.58ZM160.4,363.24c-.07,5.7-.47,11.42-.1,17.09.31,4.73-1.33,5.87-6,5.89-13.62,0-23,9.07-23,21.31s9.79,21.21,23.16,21.3c14.69.09,29.38,0,44.08,0q105.85,0,211.71,0c7.36,0,13.92-1.58,18.86-7.13,5.89-6.62,7.65-14.3,4-22.5-3.86-8.62-10.9-13.35-20.49-13-5.38.17-7.14-1.19-6.77-6.63.48-6.84,0-13.76-.08-20.65V246.75c3.44,2.58,5.49,4.12,7.54,5.64,10.61,7.86,23.38,6.86,31.07-2.44,7.91-9.56,6.44-22.72-4-31q-71-56.24-142.2-112.22c-10.36-8.16-19.92-8.09-30.21,0Q196.8,162.84,125.77,219c-10.17,8.05-11.87,20.69-4.43,30.37s20.37,11,31,3.47c2.39-1.69,4.18-4.49,8.09-4.8Z"/><path class="cls-1" d="M160.4,363.24V248.07c-3.91.31-5.7,3.11-8.09,4.8-10.6,7.48-23.63,6.07-31-3.47s-5.74-22.32,4.43-30.37q71-56.21,142.19-112.25c10.29-8.1,19.85-8.17,30.21,0q71.19,56,142.2,112.22c10.41,8.24,11.88,21.4,4,31-7.69,9.3-20.46,10.3-31.07,2.44-2-1.52-4.1-3.06-7.54-5.64V359H362.82c-.08-2.6-.24-5.21-.24-7.81q0-66.22,0-132.46c0-3.27.26-6.24-3-8.81-24.47-19.08-48.78-38.37-73.08-57.65-2.18-1.72-3.87-2.2-6.3-.32-8.71,6.73-17.88,12.92-26.32,20-13.81,11.53-27.41,23.27-42.37,33.39-5.4,3.65-8.24,8.16-8.18,15.57.4,47.47.09,94.94,0,142.41Z"/><path class="cls-1" d="M160.4,363.24h42.92c.07,5.93.4,11.87.12,17.78-.19,4.07,1.17,5.21,5.25,5.16q23.81-.33,47.62,0c4.2.06,5.24-1.28,5.18-5.24-.22-14.23-.13-28.46-.07-42.7.06-13.8,9-23.44,21.65-23.43s21.58,9.63,21.64,23.44q.1,21.35,0,42.7c0,3.16.05,5.29,4.41,5.23,16.35-.23,32.71-.17,49.06,0,3.44,0,4.58-1,4.51-4.42-.16-7.59.07-15.18.14-22.77h42.91c.07,6.88.56,13.8.08,20.64-.37,5.44,1.39,6.8,6.77,6.63,9.59-.32,16.63,4.41,20.49,13,3.67,8.2,1.91,15.88-4,22.5-4.94,5.55-11.5,7.14-18.86,7.13q-105.86-.13-211.71,0c-14.7,0-29.39.07-44.08,0-13.37-.09-23.11-9.13-23.16-21.3s9.39-21.26,23-21.31c4.68,0,6.32-1.16,6-5.89C159.93,374.66,160.33,368.94,160.4,363.24Z"/><path class="cls-1" d="M283.1,272c-5.05,0-10.1.18-15.14-.05-11.8-.53-20.92-9.79-21-21.13-.13-11.64,9.16-21.22,21.31-21.55q14.77-.41,29.57,0c12.17.32,21.48,9.85,21.4,21.48S309.8,271.57,297.52,272C292.72,272.11,287.91,272,283.1,272Z"/><path class="cls-2" d="M362.83,358.27c-.07,7.58-.31,15.18-.15,22.76.08,3.42-1.06,4.46-4.5,4.43-16.36-.15-32.71-.21-49.06,0-4.36.06-4.43-2.06-4.41-5.23q.14-21.35,0-42.7c-.06-13.8-9-23.44-21.65-23.44s-21.58,9.64-21.64,23.43c-.06,14.24-.15,28.48.06,42.71.06,3.95-1,5.3-5.17,5.24q-23.81-.36-47.62,0c-4.09.06-5.45-1.08-5.25-5.16.28-5.91,0-11.85-.12-17.78.08-47.47.39-94.94,0-142.41-.06-7.41,2.78-11.91,8.18-15.57,14.95-10.12,28.56-21.86,42.37-33.38,8.44-7.05,17.61-13.24,26.32-20,2.43-1.88,4.12-1.4,6.29.32q36.47,28.93,73.08,57.65c3.3,2.57,3,5.54,3,8.81q0,66.24,0,132.46C362.59,353.06,362.74,355.66,362.83,358.27Zm-79.72-87c4.81,0,9.62.12,14.42,0,12.27-.39,21.6-9.59,21.69-21.23s-9.23-21.17-21.4-21.48q-14.77-.39-29.57,0c-12.16.33-21.44,9.91-21.32,21.55.12,11.34,9.24,20.61,21,21.13C273,271.46,278.06,271.27,283.11,271.29Z"/><path class="cls-3" d="M468.93,346.37c2.31,1.24,2.51,1.68,2,5a197.24,197.24,0,0,1-14.43,48.92c-7.68,17.15-18,32.32-32.3,44.68a84.38,84.38,0,0,1-25,15.49c-.23.08-.49.1-.55.41H396.3c-3.78-1.84-7.66-3.45-11.28-5.6-16.12-9.57-28.36-22.93-38.15-38.71a161.91,161.91,0,0,1-10.05-20c-1-2.24-.79-3,1.14-4.56,2.08-.42,3.34.44,4.12,2.39a153.44,153.44,0,0,0,7.63,15.69,107.76,107.76,0,0,0,12.74,18.42c9.26,10.91,20,19.94,33.19,25.78a4.12,4.12,0,0,0,3.61,0,80.06,80.06,0,0,0,17.08-10.21c15.42-12,26.32-27.37,34.42-45,7.28-15.82,11.84-32.41,14.73-49.52C465.89,347.18,466.43,346.7,468.93,346.37Z"/><path class="cls-3" d="M461.78,318.38c-1.4,26-5.44,50.9-15.64,74.48-7,16.11-16.19,30.66-29.59,42.29a83.59,83.59,0,0,1-16.94,11.5,4.33,4.33,0,0,1-4.31,0c-13.65-6.94-24.43-17.16-33.16-29.56C351.45,401.91,344.57,385,340,367a235.45,235.45,0,0,1-6.11-40c-.27-3.41-.57-6.82-.78-10.23-.15-2.55,1-3.9,3.52-4.09,14.66-1.14,28.52-4.88,41.25-12.44a94.34,94.34,0,0,0,16.67-13.18c2.43-2.31,3.48-2.24,5.88.17,13.52,13.6,29.93,21.4,48.76,24.36,2.87.46,5.78.72,8.67,1,3.07.35,4,1.43,3.93,4.49C461.76,317.78,461.78,318.35,461.78,318.38ZM339,320.89a263.24,263.24,0,0,0,3.68,31.53c3.68,20.34,10.24,39.65,21.32,57.2,8.1,12.82,18.48,23.44,31.89,30.88a2.62,2.62,0,0,0,3,0c2-1.28,4.16-2.42,6.13-3.78,12.46-8.56,21.87-19.8,29.25-32.92,14.66-26.07,19.88-54.55,21.7-83.93.05-.8,0-1.22-1-1.33a94.61,94.61,0,0,1-26.17-6.17c-11.14-4.57-21.33-10.46-30.05-18.78-1.06-1-1.57-.89-2.54.06-9.54,9.27-21,15.37-33.31,20.09a79.86,79.86,0,0,1-19.76,4.45C338.84,318.72,338.84,318.7,339,320.89Z"/><path class="cls-2" d="M339,320.89c-.16-2.19-.16-2.17,4.08-2.66a79.86,79.86,0,0,0,19.76-4.45c12.26-4.72,23.77-10.82,33.31-20.09,1-.95,1.48-1.07,2.54-.06,8.72,8.32,18.91,14.21,30.05,18.78a94.61,94.61,0,0,0,26.17,6.17c1,.11,1.09.53,1,1.33-1.82,29.38-7,57.86-21.7,83.93C426.87,417,417.46,428.2,405,436.76c-2,1.36-4.1,2.5-6.13,3.78a2.62,2.62,0,0,1-3,0c-13.41-7.44-23.79-18.06-31.89-30.88-11.08-17.55-17.64-36.86-21.32-57.2A263.24,263.24,0,0,1,339,320.89Z"/><path class="cls-3" d="M469.77,339.4c-1.9-.63-2.62-1.89-2.42-3.92.9-9.21,1.47-18.44,1.63-27.69,0-1.52-.37-1.87-1.87-1.84-17.71.37-34.28-3.57-49.29-13.25a73.73,73.73,0,0,1-19.18-18c-.8-1.07-1.21-1.62-2.32-.14-13.09,17.3-30.67,27-51.92,30.33a85.63,85.63,0,0,1-16.85,1c-1.38-.06-1.66.36-1.64,1.67.4,24.94,3.3,49.5,11.07,73.34.75,2.3.44,3.09-1.55,4.46-2.41.06-3.08-.41-3.85-2.73a218.13,218.13,0,0,1-9.14-41.82,303.68,303.68,0,0,1-2.24-37.16c0-3,1.17-3.83,4.11-3.68,28.82,1.51,52.68-7.86,69.76-32l.53-.78c1.84-2.68,3.84-2.71,5.64,0a76.73,76.73,0,0,0,8.54,10.66c12.12,12.47,27,19.29,44.1,21.66a78,78,0,0,0,18.38.45,2.87,2.87,0,0,1,3.41,3.11,322.18,322.18,0,0,1-1.64,33A3.24,3.24,0,0,1,469.77,339.4Z"/><path class="cls-4" d="M468.93,346.37c-2.5.33-3,.81-3.45,3.24-2.89,17.11-7.45,33.7-14.73,49.52-8.1,17.59-19,33-34.42,45a80.06,80.06,0,0,1-17.08,10.21,4.12,4.12,0,0,1-3.61,0c-13.21-5.84-23.93-14.87-33.19-25.78a107.76,107.76,0,0,1-12.74-18.42,153.44,153.44,0,0,1-7.63-15.69c-.78-1.95-2-2.81-4.12-2.39q-1.26-3.3-2.53-6.6c2-1.37,2.3-2.16,1.55-4.46-7.77-23.84-10.67-48.4-11.07-73.34,0-1.31.26-1.73,1.64-1.67a85.63,85.63,0,0,0,16.85-1c21.25-3.37,38.83-13,51.92-30.33,1.11-1.48,1.52-.93,2.32.14a73.73,73.73,0,0,0,19.18,18c15,9.68,31.58,13.62,49.29,13.25,1.5,0,1.9.32,1.87,1.84-.16,9.25-.73,18.48-1.63,27.69-.2,2,.52,3.29,2.42,3.92Zm-7.15-28s0-.6,0-1.17c.1-3.06-.86-4.14-3.93-4.49-2.89-.32-5.8-.58-8.67-1-18.83-3-35.24-10.76-48.76-24.36-2.4-2.41-3.45-2.48-5.88-.17a94.34,94.34,0,0,1-16.67,13.18c-12.73,7.56-26.59,11.3-41.25,12.44-2.49.19-3.67,1.54-3.52,4.09.21,3.41.51,6.82.78,10.23A235.45,235.45,0,0,0,340,367c4.58,17.93,11.46,34.87,22.15,50.06,8.73,12.4,19.51,22.62,33.16,29.56a4.33,4.33,0,0,0,4.31,0,83.59,83.59,0,0,0,16.94-11.5c13.4-11.63,22.63-26.18,29.59-42.29C456.34,369.28,460.38,344.38,461.78,318.38Z"/><path class="cls-5" d="M384.32,335.2a33.1,33.1,0,0,1,3.47-6.13c1.83,1,3.2.37,4.49-1.09a23.9,23.9,0,0,1,8.57-6.39l0,0c-.35,2.5-.85,5-1,7.5a20.33,20.33,0,0,0,4.86,15.14c4,4.73,5.29,10.25,4.29,16.35a14.46,14.46,0,0,0-.12,3.6c.17,2,1.41,2.74,3.33,2.22a8.46,8.46,0,0,0,4.33-3.25,28.86,28.86,0,0,0,6.17-11.66c12.18,15.49,6.95,42.84-9.47,50-.74-6.3-1.74-8.78-5.61-14a9.45,9.45,0,0,1-1.81-4.73,22.92,22.92,0,0,1,1.24-9.53c1-3.17-1-5.27-4.29-4.66a15.54,15.54,0,0,0-2.2.59c-14.61,5.22-19.65,16.28-18.62,29.93a6.11,6.11,0,0,1,.16,2.49,39.23,39.23,0,0,1-7.49-7c-11.22-13-11.58-27.76-4.36-42.3.62-1.24,1.11-1.54,2-.15a29.39,29.39,0,0,0,4.43,5.69c1.13,1.1,2.48,1.88,4.12,1.23a3.7,3.7,0,0,0,2.25-3.84,46.93,46.93,0,0,1,2.71-15.84A3.2,3.2,0,0,0,384.32,335.2Z"/><path class="cls-3" d="M400.85,321.59a23.9,23.9,0,0,0-8.57,6.39c-1.29,1.46-2.66,2.07-4.49,1.09-1.53-1.94-1.53-3,0-4.83a36,36,0,0,1,14.67-9.83c1.65-.64,3.53-1.13,5,.4s1,3.34.31,5.14a26.14,26.14,0,0,0-2.07,13.16,12.72,12.72,0,0,0,3,6.86,25.88,25.88,0,0,1,6.34,15,18.29,18.29,0,0,0,2.46-8.39,11,11,0,0,1,.34-3.38,3.12,3.12,0,0,1,5-1.64,6,6,0,0,1,1.35,1.32c7.09,9.86,11.58,20.61,10.94,33s-6.65,21.78-16.4,29.05c-7,5.22-14.75,8.11-23.61,7.56-4.15-.25-8.28-.92-11.83-3.08a51.8,51.8,0,0,1-18.67-19,38.93,38.93,0,0,1-4.84-23.42,48.94,48.94,0,0,1,7.3-21c2.91-4.72,5.66-4.54,8.3.27a12.38,12.38,0,0,0,2.07,3.15,62,62,0,0,1,2.79-12c.77-2.15,1.74-2.72,4.05-2.33a3.2,3.2,0,0,1,1.39,4.24A46.93,46.93,0,0,0,383,355.28a3.7,3.7,0,0,1-2.25,3.84c-1.64.65-3-.13-4.12-1.23a29.39,29.39,0,0,1-4.43-5.69c-.87-1.39-1.36-1.09-2,.15-7.22,14.54-6.86,29.3,4.36,42.3a39.23,39.23,0,0,0,7.49,7,6.11,6.11,0,0,0-.16-2.49c-1-13.65,4-24.71,18.62-29.93a15.54,15.54,0,0,1,2.2-.59c3.27-.61,5.28,1.49,4.29,4.66a22.92,22.92,0,0,0-1.24,9.53,9.45,9.45,0,0,0,1.81,4.73c3.87,5.22,4.87,7.7,5.61,14,16.42-7.2,21.65-34.55,9.47-50a28.86,28.86,0,0,1-6.17,11.66,8.46,8.46,0,0,1-4.33,3.25c-1.92.52-3.16-.24-3.33-2.22a14.46,14.46,0,0,1,.12-3.6c1-6.1-.26-11.62-4.29-16.35a20.33,20.33,0,0,1-4.86-15.14c.17-2.51.67-5,1-7.5l.1,0Zm-.44,53.91a8.61,8.61,0,0,0-1,.31C389,380.38,384,394.66,389.24,404.72a2,2,0,0,0,1.61,1.1,29.16,29.16,0,0,0,15.17-.67c1.1-.33,1.3-1,1.35-1.94a16.27,16.27,0,0,0-3.57-11.31,16.06,16.06,0,0,1-3.46-7.07A28.39,28.39,0,0,1,400.41,375.5Z"/><path class="cls-4" d="M400.41,375.5a28.39,28.39,0,0,0-.07,9.33,16.06,16.06,0,0,0,3.46,7.07,16.27,16.27,0,0,1,3.57,11.31c-.05,1-.25,1.61-1.35,1.94a29.16,29.16,0,0,1-15.17.67,2,2,0,0,1-1.61-1.1c-5.2-10.06-.2-24.34,10.15-28.91A8.61,8.61,0,0,1,400.41,375.5Z"/></g></svg>