<svg xmlns="http://www.w3.org/2000/svg" xmlns:xlink="http://www.w3.org/1999/xlink" viewBox="0 0 1066.38 436.77"><defs><style>.cls-1{fill:none;}.cls-2{isolation:isolate;}.cls-3{fill:#ffbd9c;}.cls-4{fill:#362349;}.cls-5{fill:#232323;}.cls-6{fill:#d89682;}.cls-7{fill:#d86507;}.cls-8{fill:#f4872f;}.cls-9{fill:#ffde3b;}.cls-10{fill:#c3d2e0;}.cls-11,.cls-34,.cls-39,.cls-46,.cls-47,.cls-58{mix-blend-mode:multiply;}.cls-11{fill:url(#linear-gradient);}.cls-12{fill:#7e2e3b;}.cls-13{opacity:0.35;}.cls-14{fill:#561a25;}.cls-15{fill:#f7f7f7;}.cls-16{opacity:0.24;}.cls-17{fill:#18214d;}.cls-18{fill:#fff1e9;}.cls-19{fill:#b7652e;}.cls-20{fill:#040055;}.cls-21{fill:#b56835;}.cls-22{fill:#ce9b9b;}.cls-23{fill:#422d51;}.cls-24{fill:#00b493;}.cls-25{fill:#009198;}.cls-26{fill:#fca054;}.cls-27{fill:#9e6235;}.cls-28{opacity:0.8;}.cls-29{fill:#ffb87d;}.cls-30{fill:#c48362;}.cls-31{fill:#2d2d2d;}.cls-32{fill:#191919;}.cls-33{fill:#161616;}.cls-34,.cls-39,.cls-46,.cls-47,.cls-58{fill:#2f2f6f;}.cls-34{opacity:0.49;}.cls-35{fill:url(#linear-gradient-2);}.cls-36{fill:#1d1d4c;}.cls-37{fill:url(#linear-gradient-3);}.cls-38{fill:#4a77b5;}.cls-39{opacity:0.7;}.cls-40{fill:url(#linear-gradient-4);}.cls-41{fill:url(#linear-gradient-5);}.cls-42{fill:url(#linear-gradient-6);}.cls-43{fill:#111;}.cls-44{fill:#2b2b2b;}.cls-45{fill:#8aded0;}.cls-46{opacity:0.26;}.cls-47{opacity:0.45;}.cls-48{fill:url(#linear-gradient-7);}.cls-49{fill:#ffd359;}.cls-50,.cls-61{opacity:0.39;}.cls-51,.cls-61{fill:#fff;}.cls-52{fill:url(#linear-gradient-8);}.cls-53{fill:#3f3f3f;}.cls-54{fill:url(#linear-gradient-9);}.cls-55{fill:#636363;}.cls-56{fill:url(#linear-gradient-10);}.cls-57{fill:url(#linear-gradient-11);}.cls-58{opacity:0.35;}.cls-59{fill:url(#linear-gradient-12);}.cls-60{clip-path:url(#clip-path);}.cls-62{fill:url(#linear-gradient-13);}.cls-63{fill:url(#linear-gradient-14);}.cls-64{fill:#747474;}.cls-65{fill:url(#linear-gradient-15);}</style><linearGradient id="linear-gradient" x1="433.04" y1="348.72" x2="437.88" y2="322.49" gradientTransform="matrix(-0.7, -0.5, -0.5, 0.7, 687.62, 265.94)" gradientUnits="userSpaceOnUse"><stop offset="0" stop-color="#fff"/><stop offset="0.64" stop-color="#d4c9bd"/></linearGradient><linearGradient id="linear-gradient-2" x1="-137.49" y1="170.77" x2="2.94" y2="298.65" gradientTransform="matrix(-1, -0.01, -0.01, 1, 882.84, 5.45)" gradientUnits="userSpaceOnUse"><stop offset="0.19" stop-color="#4a77b5"/><stop offset="1" stop-color="#28206f"/></linearGradient><linearGradient id="linear-gradient-3" x1="820.44" y1="89.05" x2="1048.81" y2="384.59" gradientUnits="userSpaceOnUse"><stop offset="0.15" stop-color="#8aded0"/><stop offset="0.21" stop-color="#8aded0" stop-opacity="0.83"/><stop offset="0.35" stop-color="#8aded0" stop-opacity="0.48"/><stop offset="0.46" stop-color="#8aded0" stop-opacity="0.22"/><stop offset="0.54" stop-color="#8aded0" stop-opacity="0.06"/><stop offset="0.58" stop-color="#8aded0" stop-opacity="0"/></linearGradient><linearGradient id="linear-gradient-4" x1="-3.58" y1="52.14" x2="40.59" y2="77.38" gradientTransform="matrix(-0.92, -0.4, -0.4, 0.92, 915.49, 194.65)" xlink:href="#linear-gradient-2"/><linearGradient id="linear-gradient-5" x1="855.19" y1="281.17" x2="869.22" y2="281.17" gradientTransform="translate(2.73 -7.49) rotate(0.81)" gradientUnits="userSpaceOnUse"><stop offset="0.01" stop-color="#de725b"/><stop offset="0.87" stop-color="#fccca9"/></linearGradient><linearGradient id="linear-gradient-6" x1="857.17" y1="286.57" x2="852.29" y2="281.44" gradientUnits="userSpaceOnUse"><stop offset="0.25" stop-color="#de725b"/><stop offset="0.87" stop-color="#fccca9"/></linearGradient><linearGradient id="linear-gradient-7" x1="8.4" y1="216.17" x2="-32.45" y2="226.93" gradientTransform="matrix(-1, -0.01, -0.01, 1, 941.12, 2.75)" gradientUnits="userSpaceOnUse"><stop offset="0" stop-color="#4a77b5"/><stop offset="0.16" stop-color="#4872b1"/><stop offset="0.34" stop-color="#4264a5"/><stop offset="0.54" stop-color="#394c92"/><stop offset="0.75" stop-color="#2c2b78"/><stop offset="0.81" stop-color="#28206f"/></linearGradient><linearGradient id="linear-gradient-8" x1="110.87" y1="194.94" x2="87.43" y2="203.27" gradientTransform="matrix(-0.99, -0.15, -0.15, 0.99, 1041.02, 45.36)" gradientUnits="userSpaceOnUse"><stop offset="0.41" stop-color="#ef8d48"/><stop offset="0.48" stop-color="#f0934a"/><stop offset="0.57" stop-color="#f4a54e"/><stop offset="0.67" stop-color="#fbc255"/><stop offset="0.72" stop-color="#ffd359"/></linearGradient><linearGradient id="linear-gradient-9" x1="781.93" y1="464.84" x2="970.01" y2="316.11" gradientUnits="userSpaceOnUse"><stop offset="0.15" stop-color="#4c4c4c"/><stop offset="0.26" stop-color="#4c4c4c" stop-opacity="0.92"/><stop offset="0.41" stop-color="#4c4c4c" stop-opacity="0.71"/><stop offset="0.58" stop-color="#4c4c4c" stop-opacity="0.36"/><stop offset="0.71" stop-color="#4c4c4c" stop-opacity="0"/></linearGradient><linearGradient id="linear-gradient-10" x1="866.36" y1="314.44" x2="909.23" y2="324.65" gradientTransform="translate(-16.14 33.3) rotate(-4.21)" xlink:href="#linear-gradient-5"/><linearGradient id="linear-gradient-11" x1="-46.19" y1="-86.89" x2="41.44" y2="-66.03" gradientTransform="matrix(-0.64, -0.77, -0.77, 0.64, 905.73, 317.54)" xlink:href="#linear-gradient-2"/><linearGradient id="linear-gradient-12" x1="259.93" y1="111.95" x2="228.97" y2="122.94" gradientTransform="translate(712.79 154.64) rotate(-7.01)" xlink:href="#linear-gradient-8"/><clipPath id="clip-path" transform="translate(58.28 -2.7)"><path class="cls-1" d="M795.05,292l24.72-8.83,4.58,2.77a1.22,1.22,0,0,1,0,2.11,93.55,93.55,0,0,1-24.91,9.79,1.25,1.25,0,0,1-1.33-.59Z"/></clipPath><linearGradient id="linear-gradient-13" x1="741.5" y1="413.82" x2="781.82" y2="413.82" gradientTransform="translate(-54.43 133.88) rotate(-18.92)" xlink:href="#linear-gradient-2"/><linearGradient id="linear-gradient-14" x1="763.31" y1="425.22" x2="739.86" y2="433.55" gradientTransform="matrix(0.95, -0.32, 0.32, 0.95, -44.68, 113.93)" xlink:href="#linear-gradient-8"/><linearGradient id="linear-gradient-15" x1="979.97" y1="228.63" x2="799.5" y2="256.97" gradientUnits="userSpaceOnUse"><stop offset="0.27" stop-color="#353535"/><stop offset="0.4" stop-color="#383838" stop-opacity="0.88"/><stop offset="0.57" stop-color="#404040" stop-opacity="0.53"/><stop offset="0.76" stop-color="#4c4c4c" stop-opacity="0"/></linearGradient></defs><g class="cls-2"><g id="Layer_1" data-name="Layer 1"><path class="cls-3" d="M190,348.7c-.3-.2,9-6.3,0-7.9-8.1-1.5,8.2-33.5,8.2-33.5l-9-24s-14.9,42-21.3,55c-1.3,2.6.1,9.5,2.5,11.1,1.3.8,2.8,1.8,4.5,2.9C177.1,347.7,187.9,353.5,190,348.7Z" transform="translate(58.28 -2.7)"/><path class="cls-3" d="M182.8,333.1c-2.1,4.8-4.3,15.7-6.4,20.4,9.8,6.3,45.2,25.6,45.2,25.6l3.9-10.7C225.4,368.4,199.1,334.6,182.8,333.1Z" transform="translate(58.28 -2.7)"/><rect class="cls-4" x="215.48" y="431.5" width="11.3" height="4.9"/><path class="cls-5" d="M158,420c-3.9,1.8-6.34,6.6-9.74,9.1-3.2,2.4-7.9,5.2-12.4,5.4-9.2.3-9.9,4.5-5.8,4.7a148,148,0,0,0,18,0c7-.5,14.1-1.8,17.8-2.1,1.5-.1,2.5-.7,2.9-3.1.6-3.8,1.24-8.34-.86-10.74-1.8-2-3.44-6.15-5.94-5.05Z" transform="translate(58.28 -2.7)"/><rect class="cls-4" x="234.89" y="366.38" width="4.9" height="11.3" transform="translate(54.56 -0.3) rotate(-0.57)"/><path class="cls-5" d="M223.5,375.8a54.17,54.17,0,0,0,6.5,10.9c2.4,3.2,5.3,7.9,5.5,12.3.4,9.2,4.6,9.9,4.7,5.8a160.46,160.46,0,0,0-.2-18c-.5-7-1.9-14.1-2.3-17.8-.1-1.5-.7-2.5-3.2-2.9-3.8-.6-7.3.1-9.6,2.2a6.3,6.3,0,0,0-1.5,7.2Z" transform="translate(58.28 -2.7)"/><path class="cls-6" d="M172.5,351.1h0c-.2-.1-.4-.2-.3-.4l16.2-66.9c0-.2.2-.3.4-.2s.3.2.2.4l-16.2,66.9C172.8,351,172.7,351.1,172.5,351.1Z" transform="translate(58.28 -2.7)"/><path class="cls-6" d="M180.4,334.5a.3.3,0,0,1,0-.6c3.6,0,5.1-7.8,5.1-7.9s.2-.3.4-.3.3.2.3.4C186.1,326.5,184.6,334.5,180.4,334.5Z" transform="translate(58.28 -2.7)"/><path class="cls-7" d="M164.9,270.62c.43,5.14-2,32.62.53,34.33a7.49,7.49,0,0,0,5.3,1.14l.45-49.94-4.77,1.42-4,12.06Z" transform="translate(58.28 -2.7)"/><path class="cls-7" d="M170.45,233.5c.08,7.16,1.46,98,1.82,106.9,1.08,27.45,43.9,47.34,49.2,47.28L226.4,361a2,2,0,0,0-.6-1.86c-2.09-2-9.34-8.15-33-23.94-16.64-11.11,3.64-84.39,3-103.57-.07-1.79,6-18.86,6-18.86l-27.21.53a3,3,0,0,0-2.92,2.79Z" transform="translate(58.28 -2.7)"/><path class="cls-8" d="M181.34,217c1.67,2-8.05,116-5.05,119,2.49,2.48,10.08,9.45,11.61,10.86a.37.37,0,0,1,0,.52c-1,1.19-4.83,5.94-4.36,8.79.56,3.44,12.43,4.92,13.18,7.5a.35.35,0,0,1-.07.33,18.7,18.7,0,0,1-2.61,2,.38.38,0,0,0,.29.69c3.84-.7,12.34-2,12.64.11s-1.9,4.56-3.15,5.76a.39.39,0,0,0,.31.66c3.28-.28,12.76-1.15,13.93-2,1-.76,5.79-8,7.65-10.91a.38.38,0,0,1,.71.22c-.31,5.65-1.92,26.64-5.14,27.5-11.61,3.12-54.08-31.87-54.14-48.6-.07-16,.74-117.68,5.34-125.25C173.06,213.25,175.44,210,181.34,217Z" transform="translate(58.28 -2.7)"/><path class="cls-9" d="M214.78,387.28c1.47-1.09,3.42-4.38,4.91-9.26,2.58-10.59,3.67-20.16,3.52-21.23-4.48-3.76-7.91-6.05-7.91-6.05s-3.05,17.78-4.91,24.13c-1.91,7.53-3.54,8.48-3.07,8.86A46.76,46.76,0,0,0,214.78,387.28Z" transform="translate(58.28 -2.7)"/><path class="cls-10" d="M209.56,385c1.45-2.93,6.84-21.42,8.26-32.46,2.22,1.72,3.86,3,3.86,3s-1.09,21.67-8.9,31A22,22,0,0,1,209.56,385Z" transform="translate(58.28 -2.7)"/><path class="cls-7" d="M196.61,222.25c-14.69,50.52-22.14,95.48-27.69,114.85-6.73,23.49-12.46,65.2-15.91,77s22.26,15.21,27.87,7.33c3.79-5.34,13.91-54.88,27.6-92.76,16.47-45.6,23.61-62.71,30.12-91,4.28-18.59-1.71-39.32-1.71-39.32Z" transform="translate(58.28 -2.7)"/><path class="cls-8" d="M191.8,240.49c-3.25,10.69-19.07,80.05-22.88,96.61-.55,2.38-2,8.53-3.9,16.82-4.51,20.25-3.7,19.53-6,28.57-5.29,21.15-3.88,25.61-6.65,33.49-1.34,3.82,8.41,9.92,12.46,10,6.9,0,3-27.81,4.24-32.41s9.86-5.29,5.61-10.17-2.63-23.26-.57-28.6,8.35-60.6,9-65.05C186,271.59,191.8,240.49,191.8,240.49Z" transform="translate(58.28 -2.7)"/><path class="cls-8" d="M222.3,281.57c-3,9.11-8.42,36.72-11.45,37.19s-20.36-1.75-16.18-9.7c1.11-2.11,8.93-31.21,9.44-33.34C205.11,271.47,222.3,281.57,222.3,281.57Z" transform="translate(58.28 -2.7)"/><path class="cls-11" d="M202.39,278.16,213.57,312s9.58-27.5,8.53-32.77-11.6-6.06-11.6-6.06Z" transform="translate(58.28 -2.7)"/><path class="cls-8" d="M225,274c1.17,3.23-2.3,13.13-2.3,13.13s1.25-.56-4.76-1.78c-6.62-1.36-16.2-3.95-16.18-5.77s4.51-12.92,4.51-12.92Z" transform="translate(58.28 -2.7)"/><path class="cls-9" d="M154,409.56a17.34,17.34,0,0,0,9.87,7.73c9.23,2.86,17.36-.58,19-1.2a58.94,58.94,0,0,0,3.27-10.91s-13.34,5-21,1.56c-8.62-3.88-8.82-8.38-9.36-6.42A86,86,0,0,0,154,409.56Z" transform="translate(58.28 -2.7)"/><path class="cls-10" d="M155.16,403.61c6.32,6.09,14.34,12.22,30.34,4.65-1,3.34-1.44,4.71-1.44,4.71s-17.91,7.93-29.55-6.33A15.64,15.64,0,0,1,155.16,403.61Z" transform="translate(58.28 -2.7)"/><path class="cls-12" d="M187.4,53.2a12.3,12.3,0,0,0,9.2,3.5,9.13,9.13,0,0,0,5.8-2.6,7.54,7.54,0,0,0,1.7-2.8c1.2-3.5-.5-7.6-3.8-11.2-6.2-6.8-13.1-4.8-17.1-1.4a9,9,0,0,0-1,.9,4.45,4.45,0,0,0-1.2,2.1C179.9,45.2,183.6,49.6,187.4,53.2Z" transform="translate(58.28 -2.7)"/><g class="cls-13"><path d="M180.9,41.6l1.5,2.8,14.1,12.3a9.13,9.13,0,0,0,5.8-2.6,7.54,7.54,0,0,0,1.7-2.8l-.3-.6c-4.6-8.6-14.9-11.2-20.6-12a9,9,0,0,0-1,.9A4.66,4.66,0,0,0,180.9,41.6Z" transform="translate(58.28 -2.7)"/></g><path class="cls-12" d="M165.9,70.3c5.2,10.6,15.5,16.6,24.5,14.7a19.84,19.84,0,0,0,3.9-1.3c5.9-2.9,9.4-9.1,9.9-16.3A29.1,29.1,0,0,0,201.3,53c-5.9-12.2-18.7-16.6-28.6-12.1C153.8,49.5,159.9,58.1,165.9,70.3Z" transform="translate(58.28 -2.7)"/><g class="cls-13"><path d="M190.4,85a19.84,19.84,0,0,0,3.9-1.3c5.9-2.9,9.4-9.1,9.9-16.3a93.81,93.81,0,0,1-12.4,8.1S190.7,82.9,190.4,85Z" transform="translate(58.28 -2.7)"/></g><path class="cls-3" d="M186.4,115.5c-.1,1.4,15.8-8.7,21.8-12.1a1.55,1.55,0,0,0,.2-2.6C203.8,97.2,193,87.1,193.6,76c.3-4.6-18.1,8.8-18.1,8.8C190.1,99.7,187.2,107,186.4,115.5Z" transform="translate(58.28 -2.7)"/><path class="cls-6" d="M181.9,92c.3-.2,7.7-5.9,7.2-3.9-.4,1.6-6.1,5.9-6.1,5.9Z" transform="translate(58.28 -2.7)"/><path class="cls-3" d="M163.1,76.9a67,67,0,0,0,6.1,9.6l1.8,2.4c2.6,3.3,4.7,5.7,4.7,5.7s12.2-3.7,15.8-8.6c3.2-4.4,7.8-10,1.2-23.6s-17.5-21.7-26.1-17.6S156.5,63.3,163.1,76.9Z" transform="translate(58.28 -2.7)"/><path class="cls-3" d="M198.5,70.7c-.8,4.4-3.5,7.7-5.9,7.2s-3.7-4.4-2.9-8.8,3.5-7.7,5.9-7.2S199.3,66.2,198.5,70.7Z" transform="translate(58.28 -2.7)"/><path class="cls-3" d="M160.9,70.3a36.91,36.91,0,0,1,1.8,7.2c.4,2.5-.9,6.7.6,6.3l6.2-2.6Z" transform="translate(58.28 -2.7)"/><path class="cls-14" d="M170.1,74.4c.8.7,1,1.7.5,2.2s-1.5.3-2.2-.5-1-1.7-.5-2.2S169.3,73.7,170.1,74.4Z" transform="translate(58.28 -2.7)"/><path class="cls-12" d="M173.8,67.9c.6-.1-2.1-.6-6.9,1.4a6.92,6.92,0,0,0-3.1,2c-.4.6.9,1.3,2.3.4A21.23,21.23,0,0,1,173.8,67.9Z" transform="translate(58.28 -2.7)"/><polygon class="cls-14" points="229.48 69.2 225.28 71.3 226.18 72.9 229.78 69.7 229.48 69.2"/><path class="cls-12" d="M197.5,54.8a13.6,13.6,0,0,1-11.1,11.1c-7.8,1.6-23.8,1-27.4-5.5-1.5-2.8.9-10.2,3-12.5a21.81,21.81,0,0,1,7.3-5.3h14.3l11,7.7Z" transform="translate(58.28 -2.7)"/><path class="cls-15" d="M169.2,86.5l1.8,2.4a4.11,4.11,0,0,0,2.9-4.9C173.7,82.9,170.4,85.6,169.2,86.5Z" transform="translate(58.28 -2.7)"/><path class="cls-6" d="M196.6,67.5c.1-.1.2-.2.2-.3a2.5,2.5,0,0,0-1-2.4,2.29,2.29,0,0,0-2-.1c-.2.1-.3.3-.2.4s.3.3.4.2a1.79,1.79,0,0,1,1.3,0,2.52,2.52,0,0,1,.7,1.8.32.32,0,0,0,.3.3C196.5,67.6,196.6,67.5,196.6,67.5Z" transform="translate(58.28 -2.7)"/><path class="cls-6" d="M195.7,72.5c.1-.1.2-.2.2-.3s-.1-.3-.3-.4c-.7,0-1.2-.2-1.4-.6-.4-.6,0-1.6.2-2a.36.36,0,1,0-.6-.4c0,.1-.8,1.6-.2,2.6a2,2,0,0,0,1.9.9C195.6,72.5,195.7,72.5,195.7,72.5Z" transform="translate(58.28 -2.7)"/><g class="cls-16"><path d="M186.2,59.4c-11.9.5-20.3-5.4-22.2-7.5-.4-.4-.6-.7-.4-1a.45.45,0,0,1,.6-.3c.2.1.3.2.3.4.7,1.1,13.1,11,30.1,6a.47.47,0,0,1,.3.9A36.13,36.13,0,0,1,186.2,59.4Z" transform="translate(58.28 -2.7)"/></g><path class="cls-17" d="M157,153.3l-8.8,9.8s-14-14.3-18.1-18.4a1.37,1.37,0,0,1,.1-2.1l8.1-7.4a1.22,1.22,0,0,1,1.6,0l1,1,13.3,13.4,1.6,1.6,1.1,1.1A.77.77,0,0,1,157,153.3Z" transform="translate(58.28 -2.7)"/><path class="cls-18" d="M155.9,151.3l-7.8,8.7-15.8-15.5,8.7-8.2,13.3,13.4Z" transform="translate(58.28 -2.7)"/><path class="cls-17" d="M130.7,142.1l18.9,18.5-2.1,1.8-17.3-17.8a1.37,1.37,0,0,1,.1-2.1Z" transform="translate(58.28 -2.7)"/><path d="M138,138.1l-3.6,3.3a.48.48,0,0,1-.7,0h0a.48.48,0,0,1,0-.7l3.6-3.3a.48.48,0,0,1,.7,0h0C138.3,137.6,138.2,137.9,138,138.1Z" transform="translate(58.28 -2.7)"/><path class="cls-7" d="M204.83,98.17c16.21,1.72,20,27.7,21.19,35.17,1.6,9.84,15.95,60.54,16.85,74.62.45,7.07-54,14.24-57.89,12.38,0,0-1.43-61.82-1-72.8s1-38.5,3.42-38.58C195.72,108.68,204.83,98.17,204.83,98.17Z" transform="translate(58.28 -2.7)"/><path class="cls-7" d="M199.53,87.89c-1.62,2.6-9.75,9.66-12.56,10.32s5.55,10.7,5.55,10.7,15.45-6.45,14.75-14.77C207,90.3,199.53,87.89,199.53,87.89Z" transform="translate(58.28 -2.7)"/><path class="cls-8" d="M183.89,95.66c1.33.52-.53,4.47,8.11-.62,9.52,5.08,6.23,13.26,4.08,16.94a5.13,5.13,0,0,1-3.35,2.41c-3.26.7-9.44,1.52-12-1.54S180.24,94.25,183.89,95.66Z" transform="translate(58.28 -2.7)"/><path class="cls-8" d="M175.42,153.6c.22-5.25,5.16-41.72,11.6-45.92,0,0,7.32,7.3,6.45,12-1,5.32-1.12,41.41-1.38,61.37-.22,17.94,1.06,39.23,1.06,39.23s-22.83,1.24-23.49-2.43C166.49,200.3,175.1,161.17,175.42,153.6Z" transform="translate(58.28 -2.7)"/><path class="cls-19" d="M156.11,156.51c-2,1.36-3.74,2.49-4.64,4.79-1.5,3.6-3,8.2-.3,7.3,9.2-3.2,8.68-13.91,8.38-13.71C158.21,155.69,157.08,156,156.11,156.51Z" transform="translate(58.28 -2.7)"/><path class="cls-3" d="M160,160l.8,5.6-5.9,2.5S139,158.7,139,157.2v-.5c0-.2.1-.3.1-.5v-.1a9.38,9.38,0,0,1,.6-1.5l.3-.6h0a7.23,7.23,0,0,1,.4-.7c6.6-10.1,13.5,3.1,13.5,3.1Z" transform="translate(58.28 -2.7)"/><path class="cls-3" d="M134.3,148.9a3.92,3.92,0,0,0-.7,1.9,3.3,3.3,0,0,0,1.7,2.2,48,48,0,0,0,5.7,1.1l4-4.4-8.8,1.1Z" transform="translate(58.28 -2.7)"/><path class="cls-6" d="M143,155.7c-.1.1-.2.2-.3.2h-.1l-2.9-1.3.3-.6c1.1.5,2.8,1.3,2.8,1.3C143,155.3,143,155.5,143,155.7Z" transform="translate(58.28 -2.7)"/><path class="cls-6" d="M141.1,157.8c-.1.1-.2.2-.3.2a.31.31,0,0,1-.2-.1c-.1,0-.8-.5-1.7-1v-.2c0-.2.1-.3.1-.5.7.5,1.5.9,1.9,1.2C141.1,157.4,141.2,157.6,141.1,157.8Z" transform="translate(58.28 -2.7)"/><path class="cls-6" d="M146.7,148.3v.9s0,.5-.1.4-.9-.1-.9-.1Z" transform="translate(58.28 -2.7)"/><path class="cls-3" d="M148.1,147a1.57,1.57,0,0,0-1.6.3c-.7.6-1.9,2.2-1.7,2.4s1.3-.1,1.7,0l-.5,2.1,4.6,1.5-.8-4.2a2.77,2.77,0,0,0-1.7-2.1Z" transform="translate(58.28 -2.7)"/><polygon class="cls-8" points="216.78 155.7 211.78 152.2 215.58 147.6 248.75 149.41 246.57 174.17 216.78 155.7"/><path class="cls-8" d="M207.62,113.4c4.69.54,12.35,6.7,9.7,32.17,0,0-1.13,32.42-13.32,45.06a13.2,13.2,0,0,1-12.7,4c-31-7.8-40.73-24.84-41.3-26.22,7.74-1.53,9.62-8.85,9.45-13.53,7.57.68,20.84,9.68,29,12.08,1.34-1.82-.24-24.28,5.82-43.18C196.88,114.11,204.67,113.07,207.62,113.4Z" transform="translate(58.28 -2.7)"/><path class="cls-9" d="M215.57,161.49a79.16,79.16,0,0,0-12-9.16c-3.66-1.73-10.92-4.6-13.75-4.19.4-4.87,1.49-12,1.49-12s11.3,2.46,13.91,3.74c2.45,1.23,12.12,7.2,12,8.38C216.53,155.09,215.57,161.49,215.57,161.49Z" transform="translate(58.28 -2.7)"/><path class="cls-10" d="M190.16,144.81c1.09-.05,5.7-.62,13.61,3a91.76,91.76,0,0,1,12.42,9.49,35.25,35.25,0,0,0,.6-5.17,44.24,44.24,0,0,0-12.18-9.38c-7.26-3.29-11.28-2.78-13.87-2.93C190.45,141.78,190.16,144.81,190.16,144.81Z" transform="translate(58.28 -2.7)"/><path class="cls-9" d="M159.24,179.1a19.55,19.55,0,0,0,6.28-8c3-7.29,2.43-11.47,2.89-13.41,3.75,1.72,8.27,4,8.27,4s0,7.61-1.85,12.33c-.77,4.15-6,11.23-7.09,11.07A24,24,0,0,1,159.24,179.1Z" transform="translate(58.28 -2.7)"/><path class="cls-10" d="M164.65,183.55c4.86-4.78,10.12-14.5,10-22.83L171.22,159s-.15,13.68-9.48,22.5A12.82,12.82,0,0,0,164.65,183.55Z" transform="translate(58.28 -2.7)"/><path class="cls-20" d="M216.26,124.19a.27.27,0,0,1-.3-.3c-1.4-7.5-5.2-9.6-8.3-10-3.9-.5-8.34,1.47-9,3.17-.1.2-.18.1-.28.1-.38-.18-.18-.3-.18-.4,1-2.1,5.7-4,9.6-3.37,2.6.3,7.3,2.2,8.8,10.5a.32.32,0,0,1-.3.3Z" transform="translate(58.28 -2.7)"/><path class="cls-20" d="M189.16,167.28h-.09l-7.71-2.65a.31.31,0,1,1,.14-.61s7.19,2.64,7.2,2.52c.45-6.76,1.43-23.91,2.17-31.3,0-.2.38-.36.58-.38s.11.21.13.41l-2.14,31.77c0,.1-.08.21-.28.23Z" transform="translate(58.28 -2.7)"/><path class="cls-20" d="M195.39,195.16a12.19,12.19,0,0,1-3.2-.4c-.2,0-.3-.2-.2-.4s.2-.3.4-.2a11.33,11.33,0,0,0,10.2-2.2c14.4-11.4,14.5-56.8,14.5-57.2a.27.27,0,0,1,.3-.3h0a.27.27,0,0,1,.3.3c0,1.9-.1,46.2-14.7,57.7A12.4,12.4,0,0,1,195.39,195.16Z" transform="translate(58.28 -2.7)"/><path class="cls-20" d="M190.5,145h0c-.11,0-.17,0-.19-.11a10.18,10.18,0,0,0-1.44-3.68.17.17,0,0,1,.07-.26c.1-.09.21-.07.23,0a10.5,10.5,0,0,1,1.51,3.77C190.64,144.9,190.6,145,190.5,145Z" transform="translate(58.28 -2.7)"/><path class="cls-20" d="M197.16,172.27c-.1,0-.1,0-.2-.1a62.62,62.62,0,0,0-8-4.9.32.32,0,1,1,.2-.6,53.37,53.37,0,0,1,8.2,4.9c.1.1.2.3.1.4S197.26,172.27,197.16,172.27Z" transform="translate(58.28 -2.7)"/><path class="cls-21" d="M163.15,155.62c-.7,5.84-4,13.65-11.61,15.24a8.5,8.5,0,0,1-1-1.42c4.68-.21,10.45-5.41,10.74-14.25Z" transform="translate(58.28 -2.7)"/><path class="cls-3" d="M143.4,139.3a17.9,17.9,0,0,1,5.7,2.8,17,17,0,0,0,4.1,2.3,9.9,9.9,0,0,1,4,3.3h0l3.5,2.8s-1.6,7.1-2.2,7.9c-.8,1-3.3-1-3.3-1l-5.4-2.1-5.5-13.9Z" transform="translate(58.28 -2.7)"/><polygon class="cls-6" points="208.78 143.1 209.68 144 210.98 143.5 208.78 143.1"/><path class="cls-3" d="M153.2,145.8s-3.3,1-3.4,1.5a2.42,2.42,0,0,0,2.3,1.6c.7.1,2.6.1,2.6.1Z" transform="translate(58.28 -2.7)"/><path class="cls-22" d="M235,437.6H30.9a.7.7,0,0,0,0,1.4H235.1v-.2A5.28,5.28,0,0,0,235,437.6Z" transform="translate(58.28 -2.7)"/><path class="cls-23" d="M102,389.6c0,2.1-10.9,3.9-24.3,3.9s-24.3-1.8-24.3-3.9,11.2-2.5,24.7-2.5C91.4,387.1,102,387.5,102,389.6Z" transform="translate(58.28 -2.7)"/><path class="cls-24" d="M122.7,289.2v.6c-.2,4.7-2.5,36.7-20.9,63.9-19.9,29.5-9.4,40.6-9.4,40.6H80.8s5.1-86.4,41.4-104.8C122.4,289.4,122.5,289.3,122.7,289.2Z" transform="translate(58.28 -2.7)"/><path class="cls-25" d="M122.7,289.2v.6a414.49,414.49,0,0,0-25,49.3C85.5,368,87.8,391,87.8,391.2a.27.27,0,0,1-.3.3h0a.32.32,0,0,1-.3-.3c0-.2-2.4-23.4,9.9-52.4a412,412,0,0,1,25.1-49.4C122.4,289.4,122.5,289.3,122.7,289.2Z" transform="translate(58.28 -2.7)"/><g class="cls-16"><path d="M85,362.2l6,13s-2,7.9-1.3,11.5a46.43,46.43,0,0,0,1,4.6H87.3l-2.7-27.2Z" transform="translate(58.28 -2.7)"/></g><path class="cls-24" d="M80.4,394.3h-10a100,100,0,0,0-28.7-48.8,1,1,0,0,1-.3-1,.55.55,0,0,1,.3-.5,1.19,1.19,0,0,1,1.1-.4c5.4,1,16.8,4.9,28.8,19.9C88.4,384.3,80.4,394.3,80.4,394.3Z" transform="translate(58.28 -2.7)"/><path class="cls-24" d="M91,395.7H81.3s-1.6-4.6-9.7-32.3c-7.5-25.7,9.1-66.3,11.4-71.9h0l.3-.6c.1,0,.2-.1.3-.1,3.9-1.2,10.8,19.6,5.1,36.7C77.7,361,91,395.7,91,395.7Z" transform="translate(58.28 -2.7)"/><path class="cls-25" d="M84.1,393.3c.1.2,0,.3-.2.4h-.1c-.1,0-.2-.1-.3-.2-4.7-12.4-9.9-39.8-4.7-64.7,4.4-21.5,4.4-34.3,4.3-37.2h0l.3-.6c.1,0,.2-.1.3-.1v.1c0,.1.8,13.4-4.3,38S79.4,381,84.1,393.3Z" transform="translate(58.28 -2.7)"/><path class="cls-25" d="M76.1,392.4a.27.27,0,0,1-.3.3h0a.27.27,0,0,1-.3-.3c-2.6-29.9-32.8-47.2-34.1-47.9a.55.55,0,0,1,.3-.5C42.7,344.5,73.4,362,76.1,392.4Z" transform="translate(58.28 -2.7)"/><path class="cls-26" d="M102,389.6l-.8,7.7-.1.7-.6,6.2-.1.7L97,439.3H56.7l-2.4-34.4v-.7l-.4-6.4v-.7l-.5-7.4s7,1.6,24.7,1.6C96.7,391.2,102,389.6,102,389.6Z" transform="translate(58.28 -2.7)"/><path class="cls-27" d="M101.2,397.3l-.1.7A143.76,143.76,0,0,1,79,399.6a176.49,176.49,0,0,1-25.2-1.8v-.7C64.1,398.5,82.1,400.1,101.2,397.3Z" transform="translate(58.28 -2.7)"/><path class="cls-27" d="M100.6,404.1l-.1.7a147.17,147.17,0,0,1-22.3,1.6,181.67,181.67,0,0,1-23.8-1.6v-.7C64.8,405.5,82.1,406.9,100.6,404.1Z" transform="translate(58.28 -2.7)"/><g class="cls-28"><rect class="cls-29" x="-54.08" y="247.88" width="1.3" height="9.7" transform="translate(19.38 -7.88) rotate(-8.71)"/><rect class="cls-29" x="-58.23" y="251.93" width="9.7" height="1.3" transform="translate(22.87 -7.65) rotate(-7.94)"/></g><g class="cls-28"><path class="cls-29" d="M-41.92,316.52a3,3,0,0,1-.69-4.19,3,3,0,0,1,4.19-.69,3,3,0,0,1,.69,4.19A3,3,0,0,1-41.92,316.52Zm2.8-3.9a1.79,1.79,0,0,0-2.51.41,1.81,1.81,0,0,0,.41,2.52,1.79,1.79,0,0,0,2.51-.42A1.79,1.79,0,0,0-39.12,312.62Z" transform="translate(58.28 -2.7)"/></g><g class="cls-28"><path class="cls-29" d="M35.63,137.47a4.3,4.3,0,1,1,6-1A4.4,4.4,0,0,1,35.63,137.47Zm4.19-5.85a3,3,0,1,0,.69,4.18A3.07,3.07,0,0,0,39.82,131.62Z" transform="translate(58.28 -2.7)"/></g><g class="cls-28"><path class="cls-29" d="M89.2,63.34a4.1,4.1,0,1,1,4.1-4.1A4.06,4.06,0,0,1,89.2,63.34Zm0-7a2.9,2.9,0,1,0,2.9,2.9A2.9,2.9,0,0,0,89.2,56.34Z" transform="translate(58.28 -2.7)"/></g><path class="cls-29" d="M119.7,118.74a.37.37,0,0,1-.3-.1l-6.8-4.4a.65.65,0,0,1,.7-1.1l6.8,4.4a.65.65,0,0,1,.2.9A.86.86,0,0,1,119.7,118.74Z" transform="translate(58.28 -2.7)"/><path class="cls-29" d="M123.3,115.64a.68.68,0,0,1-.6-.4l-2.2-7.3a.63.63,0,0,1,1.2-.4l2.2,7.3a.68.68,0,0,1-.4.8Z" transform="translate(58.28 -2.7)"/><path class="cls-29" d="M129.3,114.44h0c-.4,0-.6-.3-.6-.7l.3-7.6a.65.65,0,0,1,1.3.1l-.3,7.6A.86.86,0,0,1,129.3,114.44Z" transform="translate(58.28 -2.7)"/><path class="cls-29" d="M110.6,123.74a.6.6,0,0,1,0-1.2l8-.1h0a.6.6,0,0,1,0,1.2l-8,.1Z" transform="translate(58.28 -2.7)"/><g class="cls-28"><rect class="cls-29" x="83.52" y="200.41" width="1.3" height="9.4" transform="translate(-61.12 114.57) rotate(-44.35)"/><rect class="cls-29" x="79.39" y="204.54" width="9.4" height="1.3" transform="translate(-60 111.81) rotate(-43.58)"/></g><path d="M191.67,241.35l-4.78,22.09-5,22-10.19,44q-5.19,22-10,44.05-2.49,11-4.77,22.09c-1.59,7.36-3,14.75-4.41,22.16l-.09,0c2.41-14.87,5.39-29.65,8.51-44.39s6.45-29.43,9.84-44.11c6.81-29.35,14-58.62,20.84-88Z" transform="translate(58.28 -2.7)"/><path d="M234.85,171.47c1.33,4.52,2.55,9.08,3.76,13.64s2.15,9.18,3.12,13.8c.47,2.31,1,4.62,1.28,7a12,12,0,0,1,.13,1.84,1.26,1.26,0,0,1,0,.29.78.78,0,0,1-.13.3l-.27.37c-.19.24-.36.5-.56.74a14.56,14.56,0,0,1-2.74,2.35c-4,2.67-8.61,4.11-13.18,5.31a113.86,113.86,0,0,1-13.94,2.55c-4.69.59-9.41,1-14.13,1.12s-9.45.15-14.17-.13a80.27,80.27,0,0,1-14-2.27,80.51,80.51,0,0,0,14,1.52c4.69.28,9.4.3,14.09.13s9.4-.53,14.06-1.11A113.74,113.74,0,0,0,226,216.37c4.51-1.19,9.07-2.63,12.93-5.2a14.36,14.36,0,0,0,2.61-2.24c.18-.21.33-.45.5-.67l.26-.34c.06-.07,0-.09,0-.1a1.09,1.09,0,0,0,0-.15,11.13,11.13,0,0,0-.13-1.68c-.32-2.31-.79-4.62-1.26-6.93-1-4.6-2-9.19-3.12-13.78Z" transform="translate(58.28 -2.7)"/><path class="cls-22" d="M1007.3,437.9H717.1c.2.5.4.9.6,1.4h289.7a.68.68,0,0,0,.7-.7A.77.77,0,0,0,1007.3,437.9Z" transform="translate(58.28 -2.7)"/><path class="cls-26" d="M819.1,193.62c-9.12,24.71-3.76,57.55,17.29,74.64,33.69,27.35,99.25,7.68,115.61-36.41,10-26.9,1.5-62.49-22.76-79.2C893.59,128.09,834.57,151.72,819.1,193.62Z" transform="translate(58.28 -2.7)"/><path class="cls-3" d="M950.38,181.7l-20.78-2.34c6.23,18.12-8.16,35.35-8.16,35.35l27.94,3.1a5.26,5.26,0,0,0,5.15-8,35,35,0,0,1-4.94-24.3A20,20,0,0,1,950.38,181.7Z" transform="translate(58.28 -2.7)"/><path class="cls-30" d="M939.62,197.35c-3.67.24-8.77-4.29-8.63-7.08l2.48,2c4.59,3.08,17.12-4.25,17.12-4.25C949,192.8,943.52,197,939.62,197.35Z" transform="translate(58.28 -2.7)"/><path class="cls-31" d="M918.1,151.71c-.67-13.5,6.77-21.45,24.36-21.8,12.76-.2,21.37,6.11,22,19.49v.33c.1,2.9.09,6.25-.14,9.72-.83,13.21-4.92,28.76-18,31C913.46,195.87,918.67,165.32,918.1,151.71Z" transform="translate(58.28 -2.7)"/><path class="cls-3" d="M941.76,132.94c10.45-.45,18.27,17.05,18.85,31.11s-10.26,30.6-20.72,31.06-19.07-13.33-19.65-27.39S931.3,133.29,941.76,132.94Z" transform="translate(58.28 -2.7)"/><path class="cls-3" d="M964.55,164.92c1.78,1.51.2,6-3.46,10.28s-8.07,6.41-9.84,5-.2-6,3.46-10.28S962.78,163.42,964.55,164.92Z" transform="translate(58.28 -2.7)"/><path class="cls-30" d="M963.74,168.19c-.23-.11-.24-.22-.24-.44.21-.57.19-1,0-1.23a1.59,1.59,0,0,0-1.27-.4c-.23,0-.35-.1-.36-.33a.35.35,0,0,1,.33-.34,2.59,2.59,0,0,1,1.86.61,1.88,1.88,0,0,1,.18,1.78.26.26,0,0,1-.22.23C963.85,168.07,963.85,168.07,963.74,168.19Z" transform="translate(58.28 -2.7)"/><path class="cls-30" d="M958.66,174.5c-.13-.22,0-.34.1-.45,1.92-1,4.1-4.61,4.1-4.61s.34-.23.46-.12.24.33.13.44-2.3,3.76-4.44,5h0C958.9,174.83,958.66,174.72,958.66,174.5Z" transform="translate(58.28 -2.7)"/><path class="cls-31" d="M929.13,161.73a17.7,17.7,0,0,1,6.38,1.58c.71.53,1-2-2.53-3.49s-10.68.68-10.88,1.58C922,162,927.18,161.8,929.13,161.73Z" transform="translate(58.28 -2.7)"/><path class="cls-31" d="M951.52,164a18.22,18.22,0,0,0-6.55.22c-.79.36-.41-2.22,3.24-2.9s10.22,2.9,10.25,3.79C958.48,165.68,953.38,164.51,951.52,164Z" transform="translate(58.28 -2.7)"/><polygon class="cls-31" points="983.69 164.85 990.28 165.86 990.46 164.41 984.35 163.94 983.69 164.85"/><path class="cls-31" d="M929.19,167c-.92-.08-1.7,1-1.88,2.3s.43,2.55,1.24,2.64,1.69-.95,1.88-2.3S930,167.06,929.19,167Z" transform="translate(58.28 -2.7)"/><polygon class="cls-31" points="1011.6 167.17 1005.02 166.38 1005.32 165.03 1011.22 166.07 1011.6 167.17"/><path class="cls-31" d="M949.71,168.31c.8,0,1.42,1.19,1.35,2.53s-.84,2.48-1.65,2.4-1.42-1.18-1.35-2.53S948.9,168.23,949.71,168.31Z" transform="translate(58.28 -2.7)"/><path class="cls-30" d="M938.31,185.56a10.65,10.65,0,0,1-5.93-2,.33.33,0,0,1,0-.45.35.35,0,0,1,.45,0,11.06,11.06,0,0,0,5.47,1.83,14.54,14.54,0,0,0,5.49-1.08.35.35,0,1,1,.25.66,11.62,11.62,0,0,1-2.62.87A7.22,7.22,0,0,1,938.31,185.56Z" transform="translate(58.28 -2.7)"/><path class="cls-32" d="M964.39,149.62c.12.11.12.11.24.11,0,1.45.1,3,0,4.69a3.38,3.38,0,0,1-4.86,2.84h0l-1.73-7.32C961.83,148.59,963.38,150.33,964.39,149.62Z" transform="translate(58.28 -2.7)"/><path class="cls-31" d="M918.27,156.73c.34-3.59-1.41-4.2,4.62-13.33s21.32-19.7,38.17-7.74c9.77,6.83,5.48,16.24,1.12,20.18-5.47,4.87-25.74.62-34.1-1.45h0c-1.39-.4-2.43-.59-3-.79a4.06,4.06,0,0,1-.7-.2v.22l-3.65,11.52S917.81,160.21,918.27,156.73Z" transform="translate(58.28 -2.7)"/><path class="cls-33" d="M922.82,144.85v-.11a.37.37,0,0,1,.33-.35.31.31,0,0,1,.36.33v.22c-.16,2.35,3.49,8.15,4.56,9.34h0c-1.39-.4-2.43-.59-3-.79a4.09,4.09,0,0,1-.69-.2h0C923.53,152.2,922.65,150.11,922.82,144.85Z" transform="translate(58.28 -2.7)"/><path class="cls-30" d="M935.4,188a.34.34,0,0,1,0-.45.36.36,0,0,1,.46,0,3.61,3.61,0,0,0,4.38.19c.11-.12.34,0,.46.09s0,.34-.1.45a5.78,5.78,0,0,1-1.48.61A4.56,4.56,0,0,1,935.4,188Z" transform="translate(58.28 -2.7)"/><path class="cls-30" d="M938.75,181.3a12.55,12.55,0,0,0-2.34-1.27c-1.41-.73-2.11-1-2.12-1.49,0-.11,0-.33.33-.46a7.81,7.81,0,0,0,3.72-9.06c-.11-.1,0-.33.22-.34s.35,0,.36.21a8.62,8.62,0,0,1-4.06,9.74,9.33,9.33,0,0,0,1.76,1l2.46,1.26a.27.27,0,0,1,.13.44c-.12,0-.11.12-.23.12S938.75,181.41,938.75,181.3Z" transform="translate(58.28 -2.7)"/><path class="cls-3" d="M918.34,162.31c2.15-.85,5.72,2.49,7.95,7.56s2.4,10,.25,10.82-5.72-2.49-8-7.55S916.18,163.28,918.34,162.31Z" transform="translate(58.28 -2.7)"/><path class="cls-30" d="M917.9,166.46a1.94,1.94,0,0,1,.28-1.8,1.71,1.71,0,0,1,1.71-.5c.12,0,.24.1.24.33s-.1.22-.33.23a1.27,1.27,0,0,0-1.14.26c-.34.35-.2,1-.19,1.24s0,.33-.22.34h0C918.14,166.67,917.9,166.57,917.9,166.46Z" transform="translate(58.28 -2.7)"/><path class="cls-30" d="M920.93,174.62c-1.66-1.5-2.94-5.48-2.95-5.71s0-.33.22-.34.34,0,.35.21,1.28,4,2.83,5.49c.12.11.12.34-.1.57h0A.34.34,0,0,1,920.93,174.62Z" transform="translate(58.28 -2.7)"/><path class="cls-34" d="M952.67,298.71a120.34,120.34,0,0,1-16.32,4.8,109.77,109.77,0,0,1-17,2.45,71.6,71.6,0,0,1-17.06-.86,50.94,50.94,0,0,1-8.24-2.24,43.26,43.26,0,0,1-7.65-3.8l-.13,2.34a34,34,0,0,0,6.7,4,55.08,55.08,0,0,0,8.52,3.14,75.58,75.58,0,0,0,17.93,2.52,114.61,114.61,0,0,0,18-1,126.6,126.6,0,0,0,17.88-3.58Z" transform="translate(58.28 -2.7)"/><path class="cls-35" d="M968.84,209.3s7.53,23-16.54,61.06L954,302.61s-12.6,5.29-34.49,6-33.11-9.58-33.11-9.58,1.48-18.75,5.47-34.7c0,0,4.07-43.56,12.63-53.8C904.52,210.56,932.67,203.63,968.84,209.3Z" transform="translate(58.28 -2.7)"/><path class="cls-36" d="M905.65,307.89a109.68,109.68,0,0,1-.76-12.81,121.37,121.37,0,0,1,.71-12.79c.47-4.25,1.1-8.48,2-12.66s1.83-8.34,3-12.44a196.07,196.07,0,0,1,8.62-24.08,189.53,189.53,0,0,1,11.59-22.77A189.4,189.4,0,0,0,919.4,233.2,194.26,194.26,0,0,0,911,257.31c-1.14,4.1-2.09,8.25-2.9,12.43s-1.41,8.39-1.84,12.62a117.48,117.48,0,0,0-.6,12.72,107.78,107.78,0,0,0,.86,12.7Z" transform="translate(58.28 -2.7)"/><path class="cls-37" d="M906.34,210.16a183.9,183.9,0,0,1,62.5-.86s7.53,23-16.54,61.06L954,302.61a81.78,81.78,0,0,1-15.92,4.15c-11.6-10-24.22-22.86-30.9-35.07C897.18,253.36,895.47,235.25,906.34,210.16Z" transform="translate(58.28 -2.7)"/><polygon class="cls-38" points="987.03 200.38 983.42 203.33 982.38 208.36 986.91 208 987.03 200.38"/><polygon class="cls-38" points="991.9 204.91 989.95 208.1 1000.28 212.94 991.9 204.91"/><polygon class="cls-39" points="986.91 208 985.48 204.55 982.38 208.36 986.91 208"/><path class="cls-39" d="M962.4,208.41,942,215.64l3.72-8.48C951,207.32,956.56,207.71,962.4,208.41Z" transform="translate(58.28 -2.7)"/><polygon class="cls-38" points="1008.81 197.64 1017 205.66 1000.28 212.94 991.9 204.91 1008.81 197.64"/><path class="cls-40" d="M904.52,210.56a202.32,202.32,0,0,0-21.06,9.75c-22.63,11.73-23.56,18.28-24.09,21.12-2.75,14.63-3.81,25.88-1.71,39.8l9.05-1.23a326,326,0,0,0,5.83-35.12,149.38,149.38,0,0,0,23.93-10.47Z" transform="translate(58.28 -2.7)"/><path class="cls-39" d="M894.91,224.68l9.61-14.12L899,233.07c-16.44,9-26.48,11.81-26.48,11.81-.07.72-.15,1.46-.25,2.2l-1.13-8.54,2.2,4.39A145.42,145.42,0,0,0,894.91,224.68Z" transform="translate(58.28 -2.7)"/><path class="cls-39" d="M924.09,207.72l1.19-.1-1.17,3.44Z" transform="translate(58.28 -2.7)"/><path class="cls-41" d="M866.71,280s1.73,7.77.91,9.45-10.68,3.25-11.94,1.82-3-5.15-.88-5.69l2.48-.92.38-3.43Z" transform="translate(58.28 -2.7)"/><path class="cls-42" d="M857.28,284.66s-.11,2.69-.64,3.12-1.15-2.64-2-2.13Z" transform="translate(58.28 -2.7)"/><path class="cls-43" d="M919.44,311.06a75.58,75.58,0,0,1-17.93-2.52A55.08,55.08,0,0,1,893,305.4a41.57,41.57,0,0,1-4.74-2.6A80.37,80.37,0,0,0,909,309.1a62.72,62.72,0,0,0,14.3.5c7.17-.56,12-1,15.26-4.66a10.94,10.94,0,0,0,1.63-2.42c4.62-1.32,9.59-3.12,13.57-4.64l1.6,8.62a126.6,126.6,0,0,1-17.88,3.58A114.61,114.61,0,0,1,919.44,311.06Z" transform="translate(58.28 -2.7)"/><path class="cls-39" d="M948.28,242.82l7.49-1.81,8.5,5.85c-.87,2.34-1.59,4-2.74,6.55-.09.2-.19.41-.28.62l-.91,1.92q-.4.81-.81,1.65l-.51,1c-.38.74-.77,1.49-1.17,2.24l-.35.64c-.45.83-.9,1.65-1.37,2.49l-.52.89c-.43.74-.85,1.49-1.3,2.24-.65,1.07-1.31,2.15-2,3.26l1.47,27.52c-3,1.88-6.83,4.22-7.56,6a4.58,4.58,0,0,0-.27,1.26c-1.12.29-2.35.58-3.7.86l-2.06-35.09c6.09-9.63,9.21-17.59,13.19-26.05C950.33,243.44,949.19,243.29,948.28,242.82Z" transform="translate(58.28 -2.7)"/><path class="cls-44" d="M953.77,297.88a138.44,138.44,0,0,1-17.42,5.63,109.77,109.77,0,0,1-17,2.45,71.6,71.6,0,0,1-17.06-.86,50.94,50.94,0,0,1-8.24-2.24,43.26,43.26,0,0,1-7.65-3.8l-.13,2.34a34,34,0,0,0,6.7,4,55.08,55.08,0,0,0,8.52,3.14,75.58,75.58,0,0,0,17.93,2.52,114.61,114.61,0,0,0,18-1,126.6,126.6,0,0,0,17.88-3.58Z" transform="translate(58.28 -2.7)"/><polygon class="cls-39" points="991.9 204.91 989.95 208.1 1000.28 212.94 991.9 204.91"/><polygon class="cls-45" points="989.97 208.05 986.91 208 985.22 208.13 986.11 211.85 989.4 212.36 993.15 209.6 989.97 208.05"/><path class="cls-45" d="M931.12,215.06s-8.1,21.07-8.86,33.16c0,0-6,5.52-8.71,10.79s-3.37-11.56-1.83-16.55,9.91-22.21,16.11-27.91Z" transform="translate(58.28 -2.7)"/><polygon class="cls-46" points="989.97 208.05 989.43 210.35 987.91 212.21 989.4 212.36 993.15 209.6 989.97 208.05"/><path class="cls-46" d="M913.09,257.93c1.47-2.08,6-8.54,6.8-11.63s9.74-31.39,9.74-31.39l1.49.15s-8.1,21.07-8.86,33.16c0,0-6,5.52-8.71,10.79-.95,1.84-1.65,1-2.09-1.14C912,258.43,912.6,258.62,913.09,257.93Z" transform="translate(58.28 -2.7)"/><path class="cls-47" d="M928.47,214.89c-.1.26-.21.47-.3.67s-.22.38-.3.58-.22.37-.35.56a3.7,3.7,0,0,1-.45.59H927a3.6,3.6,0,0,1,1.42-2.42Z" transform="translate(58.28 -2.7)"/><path class="cls-47" d="M929,214.92a2.75,2.75,0,0,1,.08.58c0,.18,0,.34,0,.5s-.07.33-.13.5a2.18,2.18,0,0,1-.26.54h0a3.42,3.42,0,0,1,.33-2.15Z" transform="translate(58.28 -2.7)"/><polygon class="cls-48" points="972.31 227.81 960 227.08 959.23 229.87 970.85 231.81 972.31 227.81"/><path class="cls-49" d="M904.52,225.13l.88-3.64h0a4.43,4.43,0,0,1,5.68.51l.76.47-1,3.94-4.15,2.29Z" transform="translate(58.28 -2.7)"/><g class="cls-50"><path class="cls-51" d="M909.62,227.09l-1.08.6a21.78,21.78,0,0,1-2.73-6.45l1.16-.43A18.49,18.49,0,0,0,909.62,227.09Z" transform="translate(58.28 -2.7)"/></g><path class="cls-52" d="M909.57,226l1-3.95h0a5.05,5.05,0,0,0-5-.62l-.16.06h0a4.51,4.51,0,0,1,6.06.56l.38.42-1,3.94-4.15,2.29-.51-.84Z" transform="translate(58.28 -2.7)"/><path class="cls-53" d="M976.13,291c0,2.38-18.69,4.32-41.74,4.32s-41.74-1.94-41.74-4.32,18.69-4.32,41.74-4.32S976.13,288.6,976.13,291Z" transform="translate(58.28 -2.7)"/><rect class="cls-44" x="844.23" y="303.41" width="194.34" height="132.42"/><path class="cls-54" d="M980.29,382.87c-15.3-15-33-28.34-51.5-38C875.46,317,820.9,322.44,786,331.1V438.54H980.29Z" transform="translate(58.28 -2.7)"/><rect class="cls-43" x="835.27" y="294.41" width="211.82" height="15.78"/><polygon class="cls-55" points="1035.15 285.45 847.64 285.45 835.27 294.41 1047.52 294.41 1035.15 285.45"/><path class="cls-56" d="M912,282.39s-11.93,1.43-13.82,1.89-7.52,5-12.88,6.22-.65,4.21,9.15,2.37,12.2-.3,15.9-2.34Z" transform="translate(58.28 -2.7)"/><path class="cls-57" d="M974.28,288.72s2.17.86,7.43-17.61c10.74-37.79-12.87-61.81-12.87-61.81s-17.45,9.68-14.08,35.32c0,0,1.07,8.61,4.2,25.79,0,0-12.67,3-24.89,6.72s-17.11,2.71-23.22,4.55c0,0-6,7.58-1.46,9.5C932.18,300.86,974.28,288.72,974.28,288.72Z" transform="translate(58.28 -2.7)"/><path class="cls-58" d="M910.82,281.73l-.08.09h0a21.22,21.22,0,0,0-1.26,1.88h0a222.24,222.24,0,0,1,28.17-5.53c16.24-2.12,26.58-9.54,26.58-9.54l-2.67,0c.05-3.09-4.61-19.35-5-20.91,0,0-2.07-6.36-2.13-6.34s0,.31,0,.47c0,.61.17,1.82.38,3.54.32,2.39,1.49,10.73,4.1,25.05,0,0-12.67,3-24.89,6.72s-17.11,2.71-23.22,4.55l0,0Z" transform="translate(58.28 -2.7)"/><path class="cls-49" d="M981.55,239l-1.17-5.51h0a5.87,5.87,0,0,0-7.41.07l-1.16.68,1.5,6.16,5.36,3Z" transform="translate(58.28 -2.7)"/><g class="cls-50"><path class="cls-51" d="M974.7,240.81l1.6.94a24,24,0,0,0,3.47-8.64l-1.72-.7A20,20,0,0,1,974.7,240.81Z" transform="translate(58.28 -2.7)"/></g><path class="cls-59" d="M973.93,240.09l-1.32-6h0a7.59,7.59,0,0,1,7.54-.74l.23.1h0c-2.74-2.19-5-1.89-8,.14l-.59.61,1.5,6.16,5.36,3,.27-.43Z" transform="translate(58.28 -2.7)"/><path class="cls-45" d="M795.05,292l24.72-8.83,4.58,2.77a1.22,1.22,0,0,1,0,2.11,93.55,93.55,0,0,1-24.91,9.79,1.25,1.25,0,0,1-1.33-.59Z" transform="translate(58.28 -2.7)"/><g class="cls-60"><path class="cls-61" d="M795.31,308.84a33.68,33.68,0,0,1-6.85,1.64l-.51-4.89c.62-.07,15.29-1.74,21.11-14.45a25.44,25.44,0,0,0,1-17.58l4.7-1.43a29.94,29.94,0,0,1-1.21,21.06C809.28,302.48,801.16,306.84,795.31,308.84Z" transform="translate(58.28 -2.7)"/></g><path class="cls-61" d="M823.93,286.9A93.65,93.65,0,0,1,799,296.69a1.23,1.23,0,0,1-1.32-.59l-2.41-4.18-.23.08,3,5.25a1.25,1.25,0,0,0,1.33.59,93.55,93.55,0,0,0,24.91-9.79,1.21,1.21,0,0,0,.2-2A1.22,1.22,0,0,1,823.93,286.9Z" transform="translate(58.28 -2.7)"/><path class="cls-43" d="M787.22,292.67c1.29-.21,2.71-.54,4.06-.88s2.73-.74,4.09-1.15c2.71-.82,5.4-1.75,8.07-2.73s5.32-2.06,8-3.15l3.93-1.7,3.9-1.77.75,1.56-3.88,1.89-3.92,1.82c-2.63,1.18-5.26,2.34-7.95,3.4s-5.38,2.09-8.13,3c-1.37.45-2.75.89-4.15,1.29s-2.78.76-4.31,1.06Z" transform="translate(58.28 -2.7)"/><path class="cls-62" d="M787.51,292.71s-7.65-7.09-6.22-8.84,16.32-16.41,19.32-16.81,16.71,2.11,18.18,3.64.46,10.55.46,10.55S812.3,287.57,787.51,292.71Z" transform="translate(58.28 -2.7)"/><path class="cls-49" d="M812.73,278.34l-1.5-3.43h0a4.42,4.42,0,0,0-5.5,1.48l-.67.6,1.65,3.71,4.48,1.53Z" transform="translate(58.28 -2.7)"/><g class="cls-50"><path class="cls-51" d="M808,281.15l1.17.4a21.39,21.39,0,0,0,1.57-6.82l-1.21-.22A18.27,18.27,0,0,1,808,281.15Z" transform="translate(58.28 -2.7)"/></g><path class="cls-63" d="M807.9,280.07l-1.65-3.71h0a5,5,0,0,1,4.82-1.49l.16,0h0a4.51,4.51,0,0,0-5.87,1.6l-.3.48,1.65,3.71,4.48,1.53.36-.92Z" transform="translate(58.28 -2.7)"/><polygon class="cls-64" points="948.11 275.24 862.97 272.52 861.76 270.78 856.53 209.32 859.45 207.68 943.33 209.62 948.11 275.24"/><polygon class="cls-43" points="943.33 209.62 929.63 218.45 933.88 264.57 948.11 275.24 943.33 209.62"/><polygon class="cls-43" points="862.97 272.52 861.76 270.77 933.88 264.57 948.11 275.24 862.97 272.52"/><polygon class="cls-53" points="943.8 273 861.76 270.77 856.53 209.32 940.02 211.96 943.8 273"/><polygon class="cls-65" points="943.8 273 861.76 270.77 856.53 209.32 940.02 211.96 943.8 273"/><polygon class="cls-43" points="887.7 238.12 879.92 289.93 899.96 290.57 907.43 239.18 887.7 238.12"/><polygon class="cls-43" points="879.92 289.93 896.31 287.21 916.27 287.61 899.97 290.57 879.92 289.93"/><polygon class="cls-44" points="900.45 287.28 900.12 288.97 916.27 287.61 900.45 287.28"/><polygon class="cls-44" points="907.43 239.18 907.24 271.99 902.68 271.86 907.43 239.18"/><g class="cls-28"><path class="cls-29" d="M861.7,12.7a5,5,0,0,1-5-5,5,5,0,0,1,10,0A5,5,0,0,1,861.7,12.7Zm0-8.7A3.69,3.69,0,0,0,858,7.7a3.7,3.7,0,1,0,7.4,0A3.69,3.69,0,0,0,861.7,4Z" transform="translate(58.28 -2.7)"/></g><g class="cls-28"><path class="cls-29" d="M983.8,150.2a3,3,0,1,1,3-3A3.07,3.07,0,0,1,983.8,150.2Zm0-4.7a1.7,1.7,0,1,0,1.7,1.7A1.75,1.75,0,0,0,983.8,145.5Z" transform="translate(58.28 -2.7)"/></g><g class="cls-28"><rect class="cls-29" x="798.6" y="351.66" width="9.4" height="1.3" transform="translate(3.81 533.03) rotate(-35.75)"/><rect class="cls-29" x="802.52" y="347.57" width="1.3" height="9.4" transform="translate(1.42 521.42) rotate(-34.98)"/></g><g class="cls-28"><rect class="cls-29" x="839.17" y="92.89" width="1.3" height="9.4" transform="translate(229.32 612.15) rotate(-44.35)"/><rect class="cls-29" x="835.09" y="97.11" width="9.4" height="1.3" transform="translate(222.3 603.14) rotate(-43.58)"/></g><g class="cls-28"><rect class="cls-29" x="973.24" y="192.1" width="1.3" height="9.4" transform="translate(198.16 734.13) rotate(-44.35)"/><rect class="cls-29" x="968.97" y="196.17" width="9.4" height="1.3" transform="translate(190.9 722.73) rotate(-43.58)"/></g></g></g></svg>